<mxfile host="app.diagrams.net" agent="Mozilla/5.0 (Windows NT 10.0; Win64; x64) AppleWebKit/537.36 (KHTML, like Gecko) Chrome/132.0.0.0 Safari/537.36" version="25.0.3">
  <diagram name="Page-1" id="s-U5ysY51iMxo10WTuYH">
    <mxGraphModel dx="740" dy="455" grid="1" gridSize="10" guides="1" tooltips="1" connect="1" arrows="1" fold="1" page="1" pageScale="1" pageWidth="850" pageHeight="1100" math="0" shadow="0">
      <root>
        <mxCell id="0" />
        <mxCell id="1" parent="0" />
        <mxCell id="QQM3joWRBrfqUw3WO8kn-137" style="edgeStyle=orthogonalEdgeStyle;rounded=0;orthogonalLoop=1;jettySize=auto;html=1;entryX=0.5;entryY=0;entryDx=0;entryDy=0;fontFamily=Times New Roman;" parent="1" source="QQM3joWRBrfqUw3WO8kn-1" target="QQM3joWRBrfqUw3WO8kn-136" edge="1">
          <mxGeometry relative="1" as="geometry" />
        </mxCell>
        <mxCell id="QQM3joWRBrfqUw3WO8kn-1" value="Start" style="rounded=1;whiteSpace=wrap;html=1;fontFamily=Times New Roman;fontSize=11;" parent="1" vertex="1">
          <mxGeometry x="70" y="13.130000000000003" width="70" height="30" as="geometry" />
        </mxCell>
        <mxCell id="QQM3joWRBrfqUw3WO8kn-41" style="edgeStyle=orthogonalEdgeStyle;rounded=0;orthogonalLoop=1;jettySize=auto;html=1;exitX=0.5;exitY=1;exitDx=0;exitDy=0;entryX=0.5;entryY=0;entryDx=0;entryDy=0;fontFamily=Times New Roman;fontSize=11;" parent="1" source="QQM3joWRBrfqUw3WO8kn-2" target="QQM3joWRBrfqUw3WO8kn-3" edge="1">
          <mxGeometry relative="1" as="geometry" />
        </mxCell>
        <mxCell id="QQM3joWRBrfqUw3WO8kn-2" value="Initialize all constants&lt;div style=&quot;font-size: 11px;&quot;&gt;(ex: Ideal factors, pins and etc.)&lt;/div&gt;" style="rounded=0;whiteSpace=wrap;html=1;fontFamily=Times New Roman;fontSize=11;" parent="1" vertex="1">
          <mxGeometry x="41.88" y="180" width="125" height="40" as="geometry" />
        </mxCell>
        <mxCell id="QQM3joWRBrfqUw3WO8kn-38" style="edgeStyle=orthogonalEdgeStyle;rounded=0;orthogonalLoop=1;jettySize=auto;html=1;exitX=0.5;exitY=1;exitDx=0;exitDy=0;entryX=0.5;entryY=0;entryDx=0;entryDy=0;fontFamily=Times New Roman;fontSize=11;" parent="1" source="QQM3joWRBrfqUw3WO8kn-3" target="QQM3joWRBrfqUw3WO8kn-37" edge="1">
          <mxGeometry relative="1" as="geometry" />
        </mxCell>
        <mxCell id="QQM3joWRBrfqUw3WO8kn-3" value="Initiate mutable variables (ex: current readings, timer and etc.)" style="rounded=0;whiteSpace=wrap;html=1;fontFamily=Times New Roman;fontSize=11;" parent="1" vertex="1">
          <mxGeometry x="44.38" y="234.75" width="120" height="40" as="geometry" />
        </mxCell>
        <mxCell id="QQM3joWRBrfqUw3WO8kn-40" style="edgeStyle=orthogonalEdgeStyle;rounded=0;orthogonalLoop=1;jettySize=auto;html=1;exitX=0.5;exitY=1;exitDx=0;exitDy=0;entryX=0.5;entryY=0;entryDx=0;entryDy=0;fontFamily=Times New Roman;fontSize=11;" parent="1" source="QQM3joWRBrfqUw3WO8kn-4" target="QQM3joWRBrfqUw3WO8kn-2" edge="1">
          <mxGeometry relative="1" as="geometry" />
        </mxCell>
        <mxCell id="QQM3joWRBrfqUw3WO8kn-4" value="Import all modules necessary." style="rounded=0;whiteSpace=wrap;html=1;fontFamily=Times New Roman;fontSize=11;" parent="1" vertex="1">
          <mxGeometry x="41.88" y="128.75" width="125" height="40" as="geometry" />
        </mxCell>
        <mxCell id="QQM3joWRBrfqUw3WO8kn-27" style="edgeStyle=orthogonalEdgeStyle;rounded=0;orthogonalLoop=1;jettySize=auto;html=1;exitX=0.5;exitY=1;exitDx=0;exitDy=0;entryX=0.5;entryY=0;entryDx=0;entryDy=0;fontFamily=Times New Roman;fontSize=11;" parent="1" source="QQM3joWRBrfqUw3WO8kn-5" target="QQM3joWRBrfqUw3WO8kn-22" edge="1">
          <mxGeometry relative="1" as="geometry" />
        </mxCell>
        <mxCell id="QQM3joWRBrfqUw3WO8kn-5" value="Turn off the circuit to make sure it is off by default." style="rounded=0;whiteSpace=wrap;html=1;fontFamily=Times New Roman;fontSize=11;" parent="1" vertex="1">
          <mxGeometry x="45" y="343.13" width="120" height="40" as="geometry" />
        </mxCell>
        <mxCell id="QQM3joWRBrfqUw3WO8kn-26" style="edgeStyle=orthogonalEdgeStyle;rounded=0;orthogonalLoop=1;jettySize=auto;html=1;exitX=0.5;exitY=1;exitDx=0;exitDy=0;entryX=0.5;entryY=0;entryDx=0;entryDy=0;fontFamily=Times New Roman;fontSize=11;" parent="1" source="QQM3joWRBrfqUw3WO8kn-6" target="QQM3joWRBrfqUw3WO8kn-15" edge="1">
          <mxGeometry relative="1" as="geometry" />
        </mxCell>
        <mxCell id="QQM3joWRBrfqUw3WO8kn-6" value="Try to connect to the wifi automatically." style="rounded=0;whiteSpace=wrap;html=1;fontFamily=Times New Roman;fontSize=11;" parent="1" vertex="1">
          <mxGeometry x="42.5" y="483.13" width="120" height="40" as="geometry" />
        </mxCell>
        <mxCell id="QQM3joWRBrfqUw3WO8kn-87" style="edgeStyle=orthogonalEdgeStyle;rounded=0;orthogonalLoop=1;jettySize=auto;html=1;exitX=0.5;exitY=1;exitDx=0;exitDy=0;entryX=0.5;entryY=0;entryDx=0;entryDy=0;fontFamily=Times New Roman;fontSize=11;" parent="1" source="QQM3joWRBrfqUw3WO8kn-7" target="QQM3joWRBrfqUw3WO8kn-8" edge="1">
          <mxGeometry relative="1" as="geometry" />
        </mxCell>
        <mxCell id="QQM3joWRBrfqUw3WO8kn-7" value="Connect to the Backend server and begin the http connection." style="rounded=0;whiteSpace=wrap;html=1;fontFamily=Times New Roman;fontSize=11;" parent="1" vertex="1">
          <mxGeometry x="42.5" y="643.13" width="120" height="40" as="geometry" />
        </mxCell>
        <mxCell id="QQM3joWRBrfqUw3WO8kn-88" style="edgeStyle=orthogonalEdgeStyle;rounded=0;orthogonalLoop=1;jettySize=auto;html=1;fontFamily=Times New Roman;fontSize=11;" parent="1" source="QQM3joWRBrfqUw3WO8kn-8" target="QQM3joWRBrfqUw3WO8kn-9" edge="1">
          <mxGeometry relative="1" as="geometry" />
        </mxCell>
        <mxCell id="QQM3joWRBrfqUw3WO8kn-8" value="Read all the sensors and store them." style="rounded=0;whiteSpace=wrap;html=1;fontFamily=Times New Roman;fontSize=11;" parent="1" vertex="1">
          <mxGeometry x="40" y="698.13" width="120" height="40" as="geometry" />
        </mxCell>
        <mxCell id="QQM3joWRBrfqUw3WO8kn-89" style="edgeStyle=orthogonalEdgeStyle;rounded=0;orthogonalLoop=1;jettySize=auto;html=1;entryX=0.5;entryY=0;entryDx=0;entryDy=0;fontFamily=Times New Roman;fontSize=11;" parent="1" source="QQM3joWRBrfqUw3WO8kn-9" target="QQM3joWRBrfqUw3WO8kn-10" edge="1">
          <mxGeometry relative="1" as="geometry" />
        </mxCell>
        <mxCell id="QQM3joWRBrfqUw3WO8kn-9" value="Check for errors in data reading." style="rounded=0;whiteSpace=wrap;html=1;fontFamily=Times New Roman;fontSize=11;" parent="1" vertex="1">
          <mxGeometry x="40" y="758.13" width="120" height="40" as="geometry" />
        </mxCell>
        <mxCell id="QQM3joWRBrfqUw3WO8kn-91" style="edgeStyle=orthogonalEdgeStyle;rounded=0;orthogonalLoop=1;jettySize=auto;html=1;entryX=0.5;entryY=0;entryDx=0;entryDy=0;fontFamily=Times New Roman;fontSize=11;" parent="1" source="QQM3joWRBrfqUw3WO8kn-10" target="QQM3joWRBrfqUw3WO8kn-11" edge="1">
          <mxGeometry relative="1" as="geometry" />
        </mxCell>
        <mxCell id="QQM3joWRBrfqUw3WO8kn-10" value="Activate the pins of some of diffrent modules to rebound the factors bad to ideal" style="rounded=0;whiteSpace=wrap;html=1;fontFamily=Times New Roman;fontSize=11;" parent="1" vertex="1">
          <mxGeometry x="40" y="818.13" width="120" height="75" as="geometry" />
        </mxCell>
        <mxCell id="QQM3joWRBrfqUw3WO8kn-92" style="edgeStyle=orthogonalEdgeStyle;rounded=0;orthogonalLoop=1;jettySize=auto;html=1;fontFamily=Times New Roman;fontSize=11;" parent="1" source="QQM3joWRBrfqUw3WO8kn-11" target="QQM3joWRBrfqUw3WO8kn-12" edge="1">
          <mxGeometry relative="1" as="geometry" />
        </mxCell>
        <mxCell id="QQM3joWRBrfqUw3WO8kn-11" value="Spray fertilizer if timer &amp;gt; 72 hours" style="rounded=0;whiteSpace=wrap;html=1;fontFamily=Times New Roman;fontSize=11;" parent="1" vertex="1">
          <mxGeometry x="40" y="913.13" width="120" height="40" as="geometry" />
        </mxCell>
        <mxCell id="QQM3joWRBrfqUw3WO8kn-93" style="edgeStyle=orthogonalEdgeStyle;rounded=0;orthogonalLoop=1;jettySize=auto;html=1;fontFamily=Times New Roman;fontSize=11;" parent="1" source="QQM3joWRBrfqUw3WO8kn-12" target="QQM3joWRBrfqUw3WO8kn-13" edge="1">
          <mxGeometry relative="1" as="geometry" />
        </mxCell>
        <mxCell id="QQM3joWRBrfqUw3WO8kn-12" value="Create a JSON object." style="rounded=0;whiteSpace=wrap;html=1;fontFamily=Times New Roman;fontSize=11;" parent="1" vertex="1">
          <mxGeometry x="40" y="973.13" width="120" height="40" as="geometry" />
        </mxCell>
        <mxCell id="QQM3joWRBrfqUw3WO8kn-47" style="edgeStyle=elbowEdgeStyle;rounded=0;orthogonalLoop=1;jettySize=auto;html=1;strokeColor=default;entryX=0;entryY=0.5;entryDx=0;entryDy=0;fontFamily=Times New Roman;fontSize=11;" parent="1" source="QQM3joWRBrfqUw3WO8kn-13" target="QQM3joWRBrfqUw3WO8kn-53" edge="1">
          <mxGeometry relative="1" as="geometry">
            <mxPoint x="350" y="30" as="targetPoint" />
            <Array as="points">
              <mxPoint x="320" y="530" />
            </Array>
          </mxGeometry>
        </mxCell>
        <mxCell id="QQM3joWRBrfqUw3WO8kn-13" value="Store all of the readings into the JSON object" style="rounded=0;whiteSpace=wrap;html=1;fontFamily=Times New Roman;fontSize=11;" parent="1" vertex="1">
          <mxGeometry x="40" y="1033.13" width="120" height="40" as="geometry" />
        </mxCell>
        <mxCell id="QQM3joWRBrfqUw3WO8kn-18" style="edgeStyle=orthogonalEdgeStyle;rounded=0;orthogonalLoop=1;jettySize=auto;html=1;exitX=1;exitY=0.5;exitDx=0;exitDy=0;entryX=0.5;entryY=0;entryDx=0;entryDy=0;fontFamily=Times New Roman;fontSize=11;" parent="1" source="QQM3joWRBrfqUw3WO8kn-15" target="QQM3joWRBrfqUw3WO8kn-16" edge="1">
          <mxGeometry relative="1" as="geometry">
            <mxPoint x="257.75" y="508.13" as="targetPoint" />
          </mxGeometry>
        </mxCell>
        <mxCell id="QQM3joWRBrfqUw3WO8kn-33" style="edgeStyle=orthogonalEdgeStyle;rounded=0;orthogonalLoop=1;jettySize=auto;html=1;exitX=0.5;exitY=1;exitDx=0;exitDy=0;entryX=0.5;entryY=0;entryDx=0;entryDy=0;fontFamily=Times New Roman;fontSize=11;" parent="1" source="QQM3joWRBrfqUw3WO8kn-15" target="QQM3joWRBrfqUw3WO8kn-7" edge="1">
          <mxGeometry relative="1" as="geometry" />
        </mxCell>
        <mxCell id="QQM3joWRBrfqUw3WO8kn-15" value="Connected?" style="rhombus;whiteSpace=wrap;html=1;fontFamily=Times New Roman;fontSize=11;" parent="1" vertex="1">
          <mxGeometry x="53.5" y="543.13" width="98" height="70" as="geometry" />
        </mxCell>
        <mxCell id="QQM3joWRBrfqUw3WO8kn-43" style="edgeStyle=orthogonalEdgeStyle;rounded=0;orthogonalLoop=1;jettySize=auto;html=1;exitX=0.5;exitY=1;exitDx=0;exitDy=0;entryX=0.5;entryY=0;entryDx=0;entryDy=0;fontFamily=Times New Roman;fontSize=11;" parent="1" source="QQM3joWRBrfqUw3WO8kn-16" target="QQM3joWRBrfqUw3WO8kn-21" edge="1">
          <mxGeometry relative="1" as="geometry" />
        </mxCell>
        <mxCell id="QQM3joWRBrfqUw3WO8kn-16" value="Switch the Node Mcu to AP mode." style="rounded=0;whiteSpace=wrap;html=1;fontFamily=Times New Roman;fontSize=11;" parent="1" vertex="1">
          <mxGeometry x="175.25" y="600" width="120" height="40" as="geometry" />
        </mxCell>
        <mxCell id="QQM3joWRBrfqUw3WO8kn-19" value="True" style="text;html=1;align=center;verticalAlign=middle;whiteSpace=wrap;rounded=0;rotation=90;fontFamily=Times New Roman;fontSize=11;" parent="1" vertex="1">
          <mxGeometry x="81.5" y="610" width="70" height="30" as="geometry" />
        </mxCell>
        <mxCell id="QQM3joWRBrfqUw3WO8kn-20" value="False" style="text;html=1;align=center;verticalAlign=middle;whiteSpace=wrap;rounded=0;fontFamily=Times New Roman;fontSize=11;" parent="1" vertex="1">
          <mxGeometry x="160" y="550" width="60" height="30" as="geometry" />
        </mxCell>
        <mxCell id="QQM3joWRBrfqUw3WO8kn-46" style="edgeStyle=orthogonalEdgeStyle;rounded=0;orthogonalLoop=1;jettySize=auto;html=1;exitX=0.5;exitY=1;exitDx=0;exitDy=0;fontFamily=Times New Roman;fontSize=11;entryX=1;entryY=0.5;entryDx=0;entryDy=0;" parent="1" target="QQM3joWRBrfqUw3WO8kn-136" edge="1">
          <mxGeometry relative="1" as="geometry">
            <mxPoint x="110" y="110" as="targetPoint" />
            <mxPoint x="235.25" y="695.63" as="sourcePoint" />
            <Array as="points">
              <mxPoint x="235" y="716" />
              <mxPoint x="305" y="716" />
              <mxPoint x="305" y="90" />
            </Array>
          </mxGeometry>
        </mxCell>
        <mxCell id="QQM3joWRBrfqUw3WO8kn-21" value="Restart the Node Mcu" style="rounded=0;whiteSpace=wrap;html=1;fontFamily=Times New Roman;fontSize=11;" parent="1" vertex="1">
          <mxGeometry x="175.25" y="658.13" width="120" height="40" as="geometry" />
        </mxCell>
        <mxCell id="QQM3joWRBrfqUw3WO8kn-25" style="edgeStyle=orthogonalEdgeStyle;rounded=0;orthogonalLoop=1;jettySize=auto;html=1;exitX=0.5;exitY=1;exitDx=0;exitDy=0;entryX=0.5;entryY=0;entryDx=0;entryDy=0;fontFamily=Times New Roman;fontSize=11;" parent="1" source="QQM3joWRBrfqUw3WO8kn-22" target="QQM3joWRBrfqUw3WO8kn-6" edge="1">
          <mxGeometry relative="1" as="geometry" />
        </mxCell>
        <mxCell id="QQM3joWRBrfqUw3WO8kn-29" style="edgeStyle=orthogonalEdgeStyle;rounded=0;orthogonalLoop=1;jettySize=auto;html=1;exitX=1;exitY=0.5;exitDx=0;exitDy=0;fontFamily=Times New Roman;fontSize=11;" parent="1" source="QQM3joWRBrfqUw3WO8kn-22" target="QQM3joWRBrfqUw3WO8kn-28" edge="1">
          <mxGeometry relative="1" as="geometry" />
        </mxCell>
        <mxCell id="QQM3joWRBrfqUw3WO8kn-22" value="Is the Node Mcu in AP mode" style="rhombus;whiteSpace=wrap;html=1;fontFamily=Times New Roman;fontSize=11;" parent="1" vertex="1">
          <mxGeometry x="60" y="400" width="88.75" height="56.75" as="geometry" />
        </mxCell>
        <mxCell id="QQM3joWRBrfqUw3WO8kn-23" value="True" style="text;html=1;align=center;verticalAlign=middle;whiteSpace=wrap;rounded=0;rotation=0;fontFamily=Times New Roman;fontSize=11;" parent="1" vertex="1">
          <mxGeometry x="135.25" y="373.13" width="65" height="30" as="geometry" />
        </mxCell>
        <mxCell id="QQM3joWRBrfqUw3WO8kn-24" value="False" style="text;html=1;align=center;verticalAlign=middle;whiteSpace=wrap;rounded=0;rotation=90;fontFamily=Times New Roman;fontSize=11;" parent="1" vertex="1">
          <mxGeometry x="88.75" y="448.13" width="60" height="30" as="geometry" />
        </mxCell>
        <mxCell id="QQM3joWRBrfqUw3WO8kn-31" style="edgeStyle=orthogonalEdgeStyle;rounded=0;orthogonalLoop=1;jettySize=auto;html=1;exitX=0.5;exitY=1;exitDx=0;exitDy=0;entryX=0.5;entryY=0;entryDx=0;entryDy=0;fontFamily=Times New Roman;fontSize=11;" parent="1" source="QQM3joWRBrfqUw3WO8kn-28" target="QQM3joWRBrfqUw3WO8kn-30" edge="1">
          <mxGeometry relative="1" as="geometry" />
        </mxCell>
        <mxCell id="QQM3joWRBrfqUw3WO8kn-28" value="Open the Wifi config portal." style="rounded=0;whiteSpace=wrap;html=1;fontFamily=Times New Roman;fontSize=11;" parent="1" vertex="1">
          <mxGeometry x="187.75" y="383.13" width="95" height="40" as="geometry" />
        </mxCell>
        <mxCell id="QQM3joWRBrfqUw3WO8kn-32" style="edgeStyle=orthogonalEdgeStyle;rounded=0;orthogonalLoop=1;jettySize=auto;html=1;exitX=0.5;exitY=1;exitDx=0;exitDy=0;entryX=1;entryY=0.5;entryDx=0;entryDy=0;fontFamily=Times New Roman;fontSize=11;" parent="1" source="QQM3joWRBrfqUw3WO8kn-30" target="QQM3joWRBrfqUw3WO8kn-6" edge="1">
          <mxGeometry relative="1" as="geometry">
            <mxPoint x="236" y="503.13" as="targetPoint" />
            <Array as="points">
              <mxPoint x="236" y="503" />
            </Array>
          </mxGeometry>
        </mxCell>
        <mxCell id="QQM3joWRBrfqUw3WO8kn-30" value="Let&amp;nbsp; the user configure the wifi." style="rounded=0;whiteSpace=wrap;html=1;fontFamily=Times New Roman;fontSize=11;" parent="1" vertex="1">
          <mxGeometry x="187.75" y="443.13" width="97" height="40" as="geometry" />
        </mxCell>
        <mxCell id="QQM3joWRBrfqUw3WO8kn-42" style="edgeStyle=orthogonalEdgeStyle;rounded=0;orthogonalLoop=1;jettySize=auto;html=1;exitX=0.5;exitY=1;exitDx=0;exitDy=0;entryX=0.5;entryY=0;entryDx=0;entryDy=0;fontFamily=Times New Roman;fontSize=11;" parent="1" source="QQM3joWRBrfqUw3WO8kn-37" target="QQM3joWRBrfqUw3WO8kn-5" edge="1">
          <mxGeometry relative="1" as="geometry" />
        </mxCell>
        <mxCell id="QQM3joWRBrfqUw3WO8kn-37" value="Set the pin mode of all the pins needed." style="rounded=0;whiteSpace=wrap;html=1;fontFamily=Times New Roman;fontSize=11;" parent="1" vertex="1">
          <mxGeometry x="45" y="288.75" width="120" height="40" as="geometry" />
        </mxCell>
        <mxCell id="QQM3joWRBrfqUw3WO8kn-70" style="edgeStyle=orthogonalEdgeStyle;rounded=0;orthogonalLoop=1;jettySize=auto;html=1;exitX=0.5;exitY=1;exitDx=0;exitDy=0;entryX=0.5;entryY=0;entryDx=0;entryDy=0;fontFamily=Times New Roman;fontSize=11;" parent="1" source="QQM3joWRBrfqUw3WO8kn-53" target="QQM3joWRBrfqUw3WO8kn-54" edge="1">
          <mxGeometry relative="1" as="geometry" />
        </mxCell>
        <mxCell id="QQM3joWRBrfqUw3WO8kn-100" style="edgeStyle=orthogonalEdgeStyle;rounded=0;orthogonalLoop=1;jettySize=auto;html=1;entryX=1;entryY=0.5;entryDx=0;entryDy=0;fontFamily=Times New Roman;fontSize=11;" parent="1" source="QQM3joWRBrfqUw3WO8kn-53" target="QQM3joWRBrfqUw3WO8kn-129" edge="1">
          <mxGeometry relative="1" as="geometry">
            <mxPoint x="460" y="705" as="targetPoint" />
            <Array as="points">
              <mxPoint x="630" y="69" />
              <mxPoint x="630" y="570" />
            </Array>
          </mxGeometry>
        </mxCell>
        <mxCell id="QQM3joWRBrfqUw3WO8kn-53" value="Post the JSON data with some headers." style="rounded=0;whiteSpace=wrap;html=1;fontFamily=Times New Roman;fontSize=11;" parent="1" vertex="1">
          <mxGeometry x="340" y="48.75" width="120" height="40" as="geometry" />
        </mxCell>
        <mxCell id="QQM3joWRBrfqUw3WO8kn-69" style="edgeStyle=orthogonalEdgeStyle;rounded=0;orthogonalLoop=1;jettySize=auto;html=1;exitX=0.5;exitY=1;exitDx=0;exitDy=0;entryX=0.5;entryY=0;entryDx=0;entryDy=0;fontFamily=Times New Roman;fontSize=11;" parent="1" source="QQM3joWRBrfqUw3WO8kn-54" target="QQM3joWRBrfqUw3WO8kn-57" edge="1">
          <mxGeometry relative="1" as="geometry" />
        </mxCell>
        <mxCell id="QQM3joWRBrfqUw3WO8kn-54" value="Get the HTTP response code." style="rounded=0;whiteSpace=wrap;html=1;fontFamily=Times New Roman;fontSize=11;" parent="1" vertex="1">
          <mxGeometry x="340" y="108.75" width="120" height="40" as="geometry" />
        </mxCell>
        <mxCell id="QQM3joWRBrfqUw3WO8kn-68" style="edgeStyle=orthogonalEdgeStyle;rounded=0;orthogonalLoop=1;jettySize=auto;html=1;exitX=0.5;exitY=1;exitDx=0;exitDy=0;entryX=0.5;entryY=0;entryDx=0;entryDy=0;fontFamily=Times New Roman;fontSize=11;" parent="1" source="QQM3joWRBrfqUw3WO8kn-57" target="QQM3joWRBrfqUw3WO8kn-59" edge="1">
          <mxGeometry relative="1" as="geometry" />
        </mxCell>
        <mxCell id="QQM3joWRBrfqUw3WO8kn-71" style="edgeStyle=orthogonalEdgeStyle;rounded=0;orthogonalLoop=1;jettySize=auto;html=1;exitX=1;exitY=0.5;exitDx=0;exitDy=0;entryX=0;entryY=0.5;entryDx=0;entryDy=0;fontFamily=Times New Roman;fontSize=11;" parent="1" source="QQM3joWRBrfqUw3WO8kn-57" target="QQM3joWRBrfqUw3WO8kn-66" edge="1">
          <mxGeometry relative="1" as="geometry" />
        </mxCell>
        <mxCell id="QQM3joWRBrfqUw3WO8kn-57" value="HTTP Code &amp;gt; 0" style="rhombus;whiteSpace=wrap;html=1;fontFamily=Times New Roman;fontSize=11;" parent="1" vertex="1">
          <mxGeometry x="345" y="168.75" width="110" height="70" as="geometry" />
        </mxCell>
        <mxCell id="QQM3joWRBrfqUw3WO8kn-60" style="edgeStyle=orthogonalEdgeStyle;rounded=0;orthogonalLoop=1;jettySize=auto;html=1;fontFamily=Times New Roman;fontSize=11;" parent="1" edge="1">
          <mxGeometry relative="1" as="geometry">
            <mxPoint x="440" y="298.75" as="targetPoint" />
            <mxPoint x="440" y="298.75" as="sourcePoint" />
          </mxGeometry>
        </mxCell>
        <mxCell id="QQM3joWRBrfqUw3WO8kn-64" style="edgeStyle=orthogonalEdgeStyle;rounded=0;orthogonalLoop=1;jettySize=auto;html=1;exitX=1;exitY=0.5;exitDx=0;exitDy=0;entryX=0;entryY=0.5;entryDx=0;entryDy=0;fontFamily=Times New Roman;fontSize=11;" parent="1" source="QQM3joWRBrfqUw3WO8kn-59" target="QQM3joWRBrfqUw3WO8kn-67" edge="1">
          <mxGeometry relative="1" as="geometry">
            <mxPoint x="480.0000000000002" y="283.9722222222222" as="targetPoint" />
          </mxGeometry>
        </mxCell>
        <mxCell id="QQM3joWRBrfqUw3WO8kn-86" style="edgeStyle=orthogonalEdgeStyle;rounded=0;orthogonalLoop=1;jettySize=auto;html=1;strokeColor=default;endArrow=none;endFill=0;fontFamily=Times New Roman;fontSize=11;" parent="1" source="QQM3joWRBrfqUw3WO8kn-59" edge="1">
          <mxGeometry relative="1" as="geometry">
            <mxPoint x="200" y="90" as="targetPoint" />
            <Array as="points">
              <mxPoint x="400" y="370" />
              <mxPoint x="610" y="370" />
              <mxPoint x="610" y="40" />
            </Array>
          </mxGeometry>
        </mxCell>
        <mxCell id="QQM3joWRBrfqUw3WO8kn-59" value="If (HTTP Code == 201)&amp;nbsp;&lt;div style=&quot;font-size: 11px;&quot;&gt;|&amp;nbsp;&lt;span style=&quot;background-color: initial; font-size: 11px;&quot;&gt;(HTTP Code == 200)&lt;/span&gt;&lt;/div&gt;" style="rhombus;whiteSpace=wrap;html=1;fontFamily=Times New Roman;fontSize=11;" parent="1" vertex="1">
          <mxGeometry x="330" y="261.25" width="140" height="90" as="geometry" />
        </mxCell>
        <mxCell id="QQM3joWRBrfqUw3WO8kn-62" value="False" style="text;html=1;align=center;verticalAlign=middle;whiteSpace=wrap;rounded=0;fontFamily=Times New Roman;fontSize=11;" parent="1" vertex="1">
          <mxGeometry x="430" y="168.75" width="60" height="30" as="geometry" />
        </mxCell>
        <mxCell id="QQM3joWRBrfqUw3WO8kn-63" value="False" style="text;html=1;align=center;verticalAlign=middle;whiteSpace=wrap;rounded=0;fontFamily=Times New Roman;fontSize=11;" parent="1" vertex="1">
          <mxGeometry x="430" y="268.75" width="60" height="30" as="geometry" />
        </mxCell>
        <mxCell id="QQM3joWRBrfqUw3WO8kn-66" value="Print to serial, Connection failed." style="shape=parallelogram;perimeter=parallelogramPerimeter;whiteSpace=wrap;html=1;fixedSize=1;fontFamily=Times New Roman;fontSize=11;" parent="1" vertex="1">
          <mxGeometry x="470" y="181.25" width="120" height="45" as="geometry" />
        </mxCell>
        <mxCell id="QQM3joWRBrfqUw3WO8kn-67" value="Server return non ok status." style="shape=parallelogram;perimeter=parallelogramPerimeter;whiteSpace=wrap;html=1;fixedSize=1;fontFamily=Times New Roman;fontSize=11;" parent="1" vertex="1">
          <mxGeometry x="470" y="283.75" width="120" height="45" as="geometry" />
        </mxCell>
        <mxCell id="QQM3joWRBrfqUw3WO8kn-81" value="" style="shape=image;verticalLabelPosition=bottom;labelBackgroundColor=default;verticalAlign=top;aspect=fixed;imageAspect=0;image=data:image/png,iVBORw0KGgoAAAANSUhEUgAAAxgAAALpCAYAAAAwxIBsAAAAAXNSR0IArs4c6QAAAARnQU1BAACxjwv8YQUAAAAJcEhZcwAADsMAAA7DAcdvqGQAAMrnSURBVHhe7N0JnFXz/8fx7yBL2tOC0qISZcu+b8mShIhESiJ7pGw/pLKEbFmSbNlDlCwlW/a1hKRkK1KpKY3SxM+/9/d/7vzGmPnee2fO99xz576ej8d9dM+Z6TP3nnPuud/Pd83Lz8//2wTWXXddU7169WArub/++susWLEi2EqO+G7EdyO+G/HdiO9GfDfiuxHfjfhuxHfLxvjrBP8CAAAAQIWRYAAAAAAIDQkGAAAAgNCQYAAAAAAIDQkGAAAAgNCQYAAAAAAIDQkGAAAAgNCQYAAAAAAIDQkGAAAAgNCQYAAAAAAITV5BQcHfwXOTl5dnqlSpEmwl9/fff5s1a9YEW8kR3434bsR3I74b8d2I70Z8N+K7Ed+N+G7ZGD9v7S8VJRh//fWXWbFiRbCV3LrrrmuqV68ebCVHfDfiuxHfjfhuxHcjvhvx3YjvRnw34rtlY3y6SAEAAAAIDQkGAAAAgNCQYAAAAAAIDQkGAAAAgNCQYAAAAAAIDQkGAAAAgNCQYAAAAAAIDQkGAAAAgNCQYAAAAAAIDQkGAAAAgNDkFRYW/h08N3///bdZs2ZNsJVcXl6eqVKlSrCVHPHdiO9GfDfiuxHfjfhuxHcjvhvx3Yjvlo3x8/Lz84sSjHXXXddUr1492Erur7/+MitWrAi2kiO+G/HdiO9GfDfiuxHfjfhuxHcjvhvx3bIxPl2kAAAAAISGBAMAAABAaEgwAAAAAISGBAMAAABAaEgwAAAAAISGBAMAAABAaEgwAAAAAISGBAMAAABAaEgwAAAAAISGBAMAAABAaPIKCgr+Dp6bvLw8U6VKlWArub///tusWbMm2EqO+G7EdyO+G/HdiO9GfDfiuxHfjfhuxHfLxvh5a3+pKMH466+/zIoVK4Kt5NZdd11TvXr1YCs54rsR3434bsR3I74b8d2I70Z8N+K7Ed8tG+PTRQoAAABAaEgwAAAAAISGBAMAAABAaEgwAAAAAISGBAMAAABAaEgwAAAAAISGBAMAAABAaEgwAAAAAISGBAMAAABAaEgwAAAAAIQmr7Cw8O/gufn777/NmjVrgq3k8vLyTJUqVYKt5IjvRnw34rsR3434bsR3I74b8d2I70Z8t2yMn5efn1+UYKy77rqmevXqwVZyf/31l1mxYkWwlRzx3YjvRnw34rsR3434bsR3I74b8d2I75aN8ekiBQAAACA0JBgAAAAAQkMXKeKXKRviq99gYWGhWb16tX2sWrXKPlauXGkfiv/f//7X/i3967LOOuuYqlWrBlvJKZ7+RqqI70Z8N+K7Ed+N+G7ZEl/fg3oonv7dcMMNzUYbbWQ23nhjU69ePbP++uvbfeutt57tJ18Wyg9uxHdLJT4JBvHLFMf41apVswnE77//bpYsWWIWLlxopk+fbj744AMzc+ZM89tvv5k//vjD/o4SD/0N3agT/wIAkI2UMCixSDz0nbjBBhvYhEIPJRjbb7+92XXXXU3btm3tdp06dWwCot8rnnDkYvmB+GXzEZ8Eg/hlikv8RE3O8uXLbVIxefJkM2nSJDNv3jyzdOnStGY+AACgMlMioYRDyUXLli1Np06dzL777ms222wzU6tWLZtw6HuV8knZiO+WSnwSDOKXKdPx1RKhBOK7774zY8eONa+++qptsfjzzz+D3wAAAC5KOJRUbLrppuaEE04wxxxzjH2uVhC1bKSC8okb8f+NQd6IFY2p0EU7d+5cc+utt5rDDz/cdO7c2YwZM8b89NNPJBcAAKRB36vqBaDv1Wuvvdbss88+pn379ubxxx+3PQHUpRgIGwkGYiGRWMyePdv069fPHHzwwWbYsGHmhx9+sJkyAAComESyoTGLAwYMMB06dDA333yz/a4l0UCYSDCQUbrZ6aamblAXXHCBOeigg8y4ceNMfn5+8BsAACBs6hHwyy+/2ARDLRq33HKL+fnnn+2MjEBFkWAgYzQ4W2MqhgwZYg488EDzzDPP2NmhAABANDTg+9dffzXDhw83BxxwgHnsscfshCr0HkBF5BUUFBQN8tZAoCpVqgRbyan2OZ0ZfIjvlivxE7NXTJkyxQwcOND2AQUAAJmnNTQ0+9Q999xjWrdubdfvoPzjRvx/y1v7S0UJRi6Mai+O+G4+4uuCVM1I//79bYKhtSoAAEB8qMCpxfvOOeccO1ajRo0apqCgIPhpcpR/3HIhPl2kEAnlsZp29sMPPzSHHnqoefHFF0kuAACIIX1nK6G48cYb7aQrmoAlnRpxgAQD3iW6RN1+++3m+OOPt7NVAACAeFPN9rRp08x+++1nXnvtNQaAI2UkGPBKyYVmhDr//PNtTQiDuAEAyB5qzdAg8J49e5q77rqL6WyREhIMeKOaD92UevToYcaPH88ieQAAZCl1c77mmmvMVVddRWUhkiLBgBdKLjQF7XHHHWfeffddWwMCAACyl77bR48ebc4+++y0Bn0j95BgIHS6AWnxnmOPPdbMmDEj2AsAALKdKgzVK+GMM84gyUCZSDAQKo25WLRokR3M/dVXXwV7AQBAZaLZIM8880y6S6FUJBgITWI1UI25+PLLL4O9AACgMpo4caK57LLL7PgMoDgSDIRCTabLli0zF1xwgfn444+DvQAAoDJ7+OGHzYgRI1jbCv9AgoFQrFy50lx//fXm5ZdfDvYAAIDKThWMmoZerRkagwlI3tqMs2h6H10k6azUqKXkq1SpEmwlR3y3bI2vmEosTjrpJObHBgAgB9WpU8dMnjzZbLXVVmadddahfOWQC/Hz8vPzixKMdddd11SvXj3YSk6ZqlZoThXx3bIxvsZdzJ0713Tq1MlOSwsAAHLTrrvuaqZMmWKqVq1K+cohF+LTRQoVsnTpUjNw4ECSCwAActyHH35oBg8ezHgMkGCg/FavXm2ef/5589ZbbwV7AABALtOA708++cT2cEDuIsFAuai/3vfff28HdqupDAAAQJWP5513HmMycxxjMIhfJlf85cuX2ylpn3322WBPPGjgUeKR2AYAoLJRRZ8eJZ/HxVVXXWXOPvvslAYbU75yy8b4JBjEL1NZ8XUTe++998yxxx4bixqKREKhm9gOO+xg9tlnH7PddtuZLbfc0tSuXds+9PP111/fmXBwft2I70Z8N+K7Ed+N+P8/qYpm+vnzzz/N4sWLzfz5882cOXPMjBkz7HeyJlzR78Ql2ahfv755++23zSabbJK0so/z65aN8ekihbQtWbLE3HDDDRlPLnTD0oeiQ4cOZvTo0ebHH3+0N1nNx33yySeb3XbbzWy66aZmww03NBtssEHSGxwAAHGlqV/1Xbbxxhubpk2bmr333tv06tXL3HLLLeb99983X3zxhe22vNNOO9nfzbRFixaZm2++mQHfOYoEA2lR7YhW6lZBPpOUWHTt2tUOJHvxxRftTVa1JSQRAIBco+9ErT8xYMAA22owfvx4m4Bk+jvx0UcftYlG3LpvwT8SDKTl119/zXiNxL777muTnMcee8xsv/32saipAQAgDtTKccQRR9j1KJ5++mnbXThT1I1GPR5oxcg9lMyQMrVefPTRR+azzz4L9kRLC/eMHDnSvPrqqyQWAAA4KNE4+uijbUv/+eefb9Zbb73gJ9F67rnnaMXIQZTQkDINKrv99tszUhPRpEkTM3nyZNOnTx97k6QrFAAAbvqurFmzphk2bJgZM2aMqVGjRvCT6BQUFNhWDE1fi9yRt/bEF6WUuhBTmU4sQdmoZjRIFfHd4hxfrRcTJ060Yx2ivkm0a9fOjB071jRs2NDOBJUqzq8b8d2I70Z8N+K7Ed/NR3zNPqXuxccff7xZsGBBsDcamqFIA9G32GIL+1pL4vy6ZWP8vLW/VJRgMC2XWy7H181I09K+++67djsKuuD32msvM2HCBFOrVi2b5HB+y0Z8N+K7Ed+N+G7Ed4tLfP3e7Nmz7SQpmuY2Sj179jR33nmn7e5cEufXLRvj00UKSenCe+edd8ynn34a7PFPyUWbNm3MuHHjitaxAAAA5aeCYatWrezsTnXr1g32RkNjMX755Rdb+43KjwQDSWlw1m233Wb++OOPYI9/uvGpW5QW6AEAAOFQktG2bVtz991323WiorJ8+XIzdOjQWCzQC/9IMOCkbkmaU1v9NqOifoC68bVu3ZqWCwAAQqbv2Y4dO5ozzjgj2OOfWi6effZZZpTKESQYcFq4cKGdOSqqgd2qWenWrZs56qijSC4AAPBko402MldeeaWd9j0qasW4+uqrzcqVK4M9qKxIMFAmjb2YOnWqnUM7itoGJRQazK0m1EzN1w0AQC7Qd66mrR0+fHhaMzRWhMoSWmWcVozKjwQDZdKq3ZrxIaqxF2q9uOiii0yjRo2CPQAAwBdV5u22226mffv2wR7/li1bZgYPHkwrRiVHgoFSqfXirbfeirT1QgO6Tz/9dLpGAQAQEU0be+2119ouU1GgFSM3kGCgVEuWLDGjR4+ObLYH1aIMGDDATkkLAACisc4665gWLVqYgw8+ONjjn1oxGItRuZFg4F8SYy+mTZsWWetFnTp1zCmnnELrBQAAEVPrhbotRTVtrcoWWkR38eLFtGJUUiQY+Be1Xtx///2Rjb3QdHkXX3yxTTIAAEC0Eq0YHTp0CPb4p1aMq666yvz+++/BHlQmeYWFhUWpo7LINWvWBFvJqbZZhcNUEd8tDvHVevH000+b8847L5IPvd5D/fr1bWtJskX1OL9uxHcjvhvx3YjvRny3bIivda+++OILs/fee0dWwahu0R999JGd3OXPP/8M9ibH+XWLQ/y8/Pz8ogRDs/hUr1492EpOhdEVK1YEW8kR3y0O8bWMf9euXe3ierrgfNPUeIMGDTJ9+/a1F6wL59eN+G7EdyO+G/HdiO+WLfE17vK0004zL774YrDHL33vH3/88eaWW24xDRs2DPYmx/l1i0N8ukihiC6YKVOmmE8//TSS5EI3lpo1a9qEJllyAQAA/Npggw3MpZdeav+NgsoaL7/8slm6dGkk5Q5EhwQDRbTuxahRoyKb1UGtFxdeeCFjLwAAiIHEWIyDDjoo2OPfb7/9ZhfYZSxG5UKCAUutF5MmTYp05ii1Xhx77LG0XgAAEBOq/IuyFUNjP1566SU7wQytGJUHCQYstV5o3YuoahB0A7vkkktM3bp1gz0AACDTEq0YUa7urVaMK6+80hQUFAR7kO1IMGBbL9QHMurWixNOOIHWCwAAYkaVgAMHDrT/RkGtGM8//zzrYlQizCJFfLtcv2ZxePPNNyP5YGshn2uuucZOhZtObUW6x0dTrn377bd22j0NXp8xY4ZZvXp1mWNMlOyo5iZVOla6KaaK+G7EdyO+G/HdUo2v36tataqdNnSnnXYyBx54oH2uffpZWTL9/ah7+88//2y/x15//XUze/Zs2yKf6tSncT+/Ov61atWy50Qrbjdv3txuJ2L6OP46pr169bLdl6Kg99KzZ09z2223mWrVqgV7S0f5zS0O8Ukwcjy+bmBjxoyxhf10YpWXbrL16tUzn332mf3Xx/HRe5ozZ45tbv3ggw/M2mvc3ij1RaOf6cYNACid7tPrrbeened+4403tvfqc845xxx++OGmRo0apSYamfp+1HoN77zzjrniiivM999/byutdL9PzOlfWe73OuY6BjovWnVb3YuPOOIIO8W71pLS/rCPv74vVTF3yCGHmMLCwmCvX5r0Rd/bW265ZanXWQLlN7c4xE89nUalpLEXDz30UGT9HjVoTKt2N2jQINgTLr2P66+/3q5G+txzz5kffvjB9u3UF44+ECQXAOCm+6QK6GrtVZeVWbNm2fu2JuVQi3A6C3L5ovt5Yt0mtcCrULpgwQJb6FFhWO+hMt3v9V5USaaESpVmc+fONSNHjjRHHnmk7Vqk9SvCphaFrbfeOtIZpbS69w033MBYjEqABCOHqXZCi+l88sknkdyIVRuhsRfdunVz1kyUl+bRPvXUU821115r5s2bF1mNCwBUZvquUMF9+vTppnv37rYLkiptMkUFbXV/Vc26Zj/U7EN6jblE39lKNpRoaLr3m2++2UuhXK1Y/fv3j3Qsxrhx42x3t8qUIOYiEowclonWC80clc5qnanSl5+SiwkTJth+t9yYACBcKtj/9NNP5vzzzzdTp07NSEuGWi7mz59vOnXqZFtTcr0iScdDlWt33323bb1X0hEmtWK0bdvWJnNRUQvN8OHDacXIcnlrT2BRSUy1yspWU6VCXDo3GOK7RRlftQQae6GaiXT66ZWX/ra6RakZe9NNN7X7wjo+ei9apOemm24K/eYKAPgnFTqbNWtmHn30UdOmTRt7b47q+0uFz6OOOsp+l+Raq4WLjo/GZdx55532+GjbJZ3jr+Os1itNWxtVQqf3opayrbbaqtT3EufyVSpyIX7e2l8qSjBSGbRRHINa3OIcX/1qe/XqZd599117ofimmaM0CO/MM88sulmEdXw++ugj2w93+fLlkbwXAMh1KozovjtixAhTu3btSL6/9L111113mWHDhtEFthQ6pi1btjTPPvts0p4C6R5/jfHQ+Z44cWKwxy8lsaeccooZPHhwqTNKhVV+KAvx3VKJTxepHKTaCPVb1ewQURTIlVBo5pEuXboUJRdh0XtRU6o+GCQXABAN1V5qDN+HH34Yyb1Xf0MTdmhBWJKL0qmQqIlN7rvvvtBbd5RQ9uvXL61a7orQ61eXZ3WH47s9O5Fg5CANiHvyyScjHXuhaXA11WHYNNe5pijUjRUAEB21Gmu2Po17801JhRaE1bpNKJu6CauVQbMxhUmVg9ttt13kYzHuvffeSK4vhI8EI8ckWi+0DkVUrReaOUrTG6rJM2xvvfUWtVkAkAH6Pnnttdds1yXfVHB+5JFHqExKQt/rOh/fffddsCc8WmtDA/yjbMUYP368bZWhFSP7kGDkGLVePPHEE5HVCKj1Qgs0+Wi9EM1kwhcOAGSGZiPUVKm+aVpcdZdBclq/RAOkw6YKwx122CHyVowHHniAVowsRIKRQ1QboCZmjb3Qc990M6pVq5Y57rjjvLReyFdffRXJewEA/JsKflrgzjdNkasuWUhO42PUS8EHDe5Vl+eoWzHUIkMrRnYhwcghUbdeaOaos88+21vrheg9cdMBgMxQYTaK8XwqaGZycb9solZ9X2NVVHG44447Rt6KoTW7aMXILiQYOUI3Zw38+vzzzyNrvdDYC5+tF6K/AwDIDN2Do7oPc79Pnc/v3cRYjKhW91bCpFYMrd5OhWL2IMHIEarp18J6UbZeaM0Ln60XUr9+fb50ACBD1FVG05D7pgKzvleQnBKAzTbbLNjyQ60YBx98cGTfv1qtXIP8acXIHiQYOUAtFs8//7ztkxlV64XGXhx//PFea1Gkbdu23v8GAKB0WgTNd2FWlMjoewXJ6VgpAfApMRYjqlYMlV00JfI333xDK0aWoGSWA9R68eCDD0a27oVqmU4//XTvrRey33772RsdACB6WjG6RYsWwZY/mpGwefPmwRZcNt54Y3PggQcGW/7stNNOpn379pG2Yjz++OO0YmSJvMLCwqJUUFmhBmylShdVOjMJEN/NR3xl/eoaNWDAgEhm4NBr2nTTTe36FA0aNAj2li6M46OZJfbaay9W8gaAiKlyR33xr7zySrPRRht5/X7Uekfqh3/KKafYGaVQOrXot2nTxq535eq6Flb55P333zdHHHGEXackCqq4fOaZZ0y7du3Saj3JxvJbcdkYPy8/P7+oVKabRfXq1YOt5DTwRgW7VBHfzUd8tV6cdNJJ5sMPP4yke1TVqlXNFVdcYQYOHJi061IYx0fvqU+fPjaJ4ksHAKKjMXC69+66666237/P70d9n2gWqT333NN2k0HpdA6uu+46c9ZZZ9lCYFnCKp8oTpcuXWw37CjKGHodem+DBw8O9qQmG8tvxWVjfLpIVWL6sGvdi5kzZ0bywdfNrG7duqZnz56RjYvQ3+nfv7/9u66bKQAgPOqypFkCVVsexb1Xf0M18onWEvybkrytt97ajn+M6vtQBdOLLroo0hmlxo4da77++mtb6474IsGoxDR39MMPPxzp2Iu+ffvaWq0o6Yaq2gy1npBkAIBfKlRqgo3evXvb/v5RUVLTuXNnc+ihh9rXgP9RZZvGwwwfPtxWuEVpjz32sOtiRFWxqNXjmVEq/kgwKqlE60VUK12rYK++kaeeempkN5kE/W11AzvjjDNszRZJBgD4oYJ9s2bNzPXXX28aN24c+f1Ws1bdeeedZvfddyfJCOg7V0nFoEGDzC677BL5OUm0YigBjIJaMZ566ilaMWKOBKOSWrZsmV35MsrWCw2+i7r1IkGtF1dddZU599xz7QJ/USc5AFDZqQC57bbb2gL+dtttZ7vkRE33dn3PaDYhrcOQ62tjJNa80Pdft27dIivkl6SET+cjylYMdZWiFSO+KIVVQmqxmDx5ss3uo2q90IxRJ598ckYL9uqfq5usvvx22GEHukwBQAhUiN1kk03MMcccY+677760Z/AJm2rMN998c9tNRrNYbbHFFmnNmFMZ6LtW33n77ruvGTVqlB13oe+8TNE1olaMqBI+tWJoXQxaMeJr3UsuuWRQ8NxesOlkvzqpmjouVcR3Cyu+xl5cdtll5ocffrC/45u6JWndiw4dOqR1c/FxfPQlo77Bhx9+uKldu7b57bffiv6Gkq0ojgcAZDNVzCiBUHckTTuu9Yauvvpq06NHD1uZpHtxSVF/P+o1qkCtAra+ezSL4KpVq2zBU7Er2/1e71ffb3rP6g6lmbv69etnE6yWLVva85Xp8omSvo8++sjMnTs3kmOvqXFV5tDMYskS3qivz2RyIT7T1Fay+Lqpqm+ipolV4do33fTUH/fFF1+0zbRxOj6a01lJltbKSNz0XF3GEjfwVOkDxrzXZSO+G/HdiO/mM75+L7GAnlorlFSoIKcYZcn096OOxaJFi8y0adPsQ/f+dOLH/fzq/avSrFWrVnachQrzasFInJNMH/8ErYF12GGHRdZ1Sd3lHn30UbvoX5yvz5JyIT4JRiWLr5Uuu3btam+wUXSPUuvFBRdcYKeK1c2T81s24rsR3434bsR3I74b8d1Sja+4Whdj4sSJ9rlvel2azUzTF7tmNOP8uvmIzxiMSkQJhVbvnDNnTiTJhWoLVIuiZnM1rwEAgNylguqAAQMiH4uhGTPV6oP4oFRYiSxfvtzce++9kc4cpdYSTU8LAACgGaUOPPBAm2xEYcmSJXZGqZUrVwZ7EAd5awujRSlf3PsgJpPL8dVi8eSTT9quSlGNvVD/XI290CDAxD7Ob9mI70Z8N+K7Ed+N+G7Ed0s3/jvvvGOOOOKIyMZiaJyQpi4uax0Qzq+bj/h5a3+pKMGgz5lbnONr5qj27dub6dOnR9I9SjNZaCD5FVdcUdQ9ivPrRnw34rsR3434bsR3I75buvFF3adVCan/65vez5lnnmmuu+46O/tZSZxfNx/x6SJVCSiheOGFF+wsSVGNvWjSpInp06cPYy8AAMA/qAB68cUXR7Y2hwrITz/9tPniiy9s7Toyj9JhJaCxFzfddFPatQvlpZmjtKiPpjEEAAAoSWMxtE5JVCu+L1682C6+yOre8UCCkeXUYvHSSy/ZtR6iar1o2rQprRcAAKBMasXQor+qlIyCWjGeeeYZWjFighJiltOA7uuvvz6ymaN0ozjuuONovQAAAE5acXyfffaJtBXj4YcfZkapGCDByGLK0LXuhVYspfUCAADEiRKLyy+/PNKxGOPGjaMVIwYoJWYxtV4MHjyY1gsAABBLasXYa6+9Im3FeOihh2jFyDASjCylzPy1114z8+fPj6z1olmzZrb1Qv0qAQAAklFioSnto2zF0OretGJkFglGltKMUddcc02krRfHHnts0aJ6AAAAqdACeHvssUdkrRiLFi0yDz74oFm1alWwB1EjwchCyshff/11s2DBgshaL5o3b25OO+00xl4AAIC0KLEYNGiQ2XjjjYM9fqkVY/z48ebzzz+nFSNDKC1mIbVaDB06NLK5njfccEPTpUsXs9lmmwV7AAAAUrfzzjvbtTGibMV44IEHaMXIkLzCwsKi1E5Z3po1a4Kt5FSzXaVKlWArOeK7pRJfvzNhwgTTt2/fSBbW03to06aN/ZuNGjUK9paO8+tGfDfiuxHfjfhuxHcjvltY8T/44APTqVMns2zZsmCPX+rW/dRTT9nk5s8//wz2Jsf5dUslfl5+fn5RgqHBu9WrVw+2klMTVDqFXOK7pRJfM0fpgzJ37txIukep9aJfv35mwIABSbtHcX7diO9GfDfiuxHfjfhuxHcLK74K+ccff7yZOnVqWgX+8tLrPumkk8wNN9xg6tevH+xNjvPrlkp8ukhlEWWYr7zyivnll18iHXvRvXt3xl4AAIAKUfeoSy+9NNKxGJMnTzYzZ860ZShEh1JjFlG2eMkll0Q69qJz586MvQAAAKHYYYcdzE477RT5jFJ//PFHsAdRIMHIEonWi4ULF0bWetGiRQtz4okn0noBAABCocTisssui7QVQ+UnZpSKFiXHLKGZo9SsGFXrxQYbbGCOOeYYWi8AAECotttuO9OuXbvIWjFUOTtq1ChaMSJEgpEFlHFPmjQp0rEXrVq1Mj169KD1AgAAhEozEF1++eWmWrVqwR6/1IqhchStGNGh9JgF1HqhD2KUrRdatbtx48bBHgAAgPCoFUPjMaJqxdDixCNHjjSrV68O9sAnEoyYU6b98ssvm59//jmy1outttrKnHzyybReAAAAL9SKccUVV0TaiqGxGDNmzAj2wCdKkDGnVov//Oc/ZuXKlcEevxKtF1tssUWwBwAAIHzbbrut2X777SNtxbj77rtpxYgACUaMqfXipZdeiqz1QjT2QovS0HoBAAB8UivGVVddldYibxWhVowpU6bQihEBSpExptYLNR9G2XrRtWtXWi8AAEAk1Iqh8RhRtmLceeedtGJ4lldQUFA0nF7975VNpko17GvWrAm2kiO+W8n4Tz/9tOnTp09kg7v1AdffbNq0qd3m/LoR3434bsR3I74b8d2I7xa3+NOnTzdHHnmkWbp0abDHr0aNGpmnnnrKLvhXGs6vWyrx89b+UlGCoaYjrRadqnXXXTetZi3iuxWPr1aL/fff38ydOzeS7lFqvbj44ovN+eefX9Q9ivPrRnw34rsR3434bsR3I75b3OKrNaFDhw7mnXfesX/LN70+jTe9/fbbzfrrrx/s/R/Or1sq8ekiFVOar/mnn36KbOyFVu3WwnqMvQAAAFFS96hBgwaZmjVrBnv8UoH67bffNjNnzgz2IGyUJmNo1apV5rrrrrP/RkHZO+teAACATNFYDD1UOx4FLV6sGaXS6UqE1JFgxJBmjpo/f77t4xaFli1bmqOOOorWCwAAkBFqxbjyyitNrVq1gj1+qRVDXbJoxfCDEmXMqNXi+uuvN3/88Uewx69E6wUzRwEAgEzSZDNRt2JoRilaMcJHghEzUbdeaOwFrRcAACDT1IqhxYVr164d7PGLVgx/KFXGSCZaL7TuBWMvAABAHETdirFo0SIzYsQIWjFCRoIRIxMmTDDz5s2LtPWic+fOkX2IAQAAXLQew2WXXRZZK8aff/5p3nvvPfPVV18FexAGEoyYUOvF0KFDTWFhYbDHL7VenHDCCXaxGQAAgLhQK8b2228faSvGbbfdRitGiEgwYmL8+PHm+++/j2zdiy233NJ06tQpsqX5AQAAUqFK0EsvvdTUqVMn2OOXWjHef/99M2vWrGAPKooEIwbUejFkyBC7kmUU9ME98cQTab0AAACxpHEYasmIshXj1ltvpRUjJHmFhYVFHf7V9z+dA5uXl2f7yqWK+KUbO3as6dOnT2QL62299db2bzZr1izYUzrOrxvx3YjvRnw34rsR3434btkS/6OPPjLHH3+8LfxHYbPNNjPjxo2zyQ3Hv2ypxM/Lz88vSjCUJVavXj3YSk7Te61YsSLYSo74/6YZo/bff38zZ86cSLpHqfVCM1Wdc845SS8Ozq8b8d2I70Z8N+K7Ed+N+G7ZEl89O44++mgzefJkG9M3lYv098aMGZNWpS/n99/oIpVhL7zwQqRjLxIzR6WT2QIAAERtgw02sKt7b7LJJsEev1SLr3UxGItRcSQYGaTWi+HDh6fVLFURSip69+7NuhcAACAr7LDDDqZdu3a2lj0K6o517bXX2oHfKD8SjAxS68W3334bWetF8+bNab0AAABZQ60YV1xxRaStGG+//bb55ptvgj0oDxKMDFG/wptuuiny1ostttgi2AMAABBvGlC84447ml122SWyVozFixfb8aq0YpQfCUaGTJw40Xz33XeRtV40bdrUHHroobReAACArKJWDK3uHWUrhtbFmDt3brAH6SLByAC1XmjsRVSrdiupOO200+z0awAAANlErRgai7HrrrtG1oqxdOlSxmJUAAlGBqj1Qlmx5h2OglovOnToYKeoBQAAyDYbbrihXd076lYM9TZB+kgwIpZovYhy7MXpp59O6wUAAMhaasXYfvvtze677x5ZK0Z+fr4ZOnQorRjlQIIRsahbLzSou3379rReAACArLbRRhuZgQMH0oqRBUgwIqQxFzfffHOkrRdnnXWW2XTTTYM9AAAA2SkxFiPKVoxly5aZIUOG0IqRpryCgoKiqnSduHRmGVItfDqF5VyPP3bsWHPGGWdElmA0a9bMPP/883YMhnB+3YjvRnw34rsR3434bsR3y6X4iv3ee++Z4447zk4n65tem1pMpkyZYrbccstg7z9xfv8tb+0vFSUYf/31l1mxYkWwlZyyx+rVqwdbyeVyfJ2InXbayXzxxRf2xPimC2XEiBGmZ8+edno34fy6Ed+N+G7EdyO+G/HdiO+Wa/E1nlU9NMaPH2//r2/qZt6xY0dbUbzeeusFe/+H8/tvdJGKyFNPPWVmzZoVSXIhjRs3tjNHJZILAACAykBjMS688EJTt27dYI9fqiTW6t7ffvttsAfJkGBEQBfmsGHDIuu/p9YLDYJi5igAAFDZqEuPxmLsu+++tjbdN1UOL1++3C72x1iM1JBgRECtFzNnzoy89YKZowAAQGVUtWpVc95550XaivHmm2+yuneKSDA8S7ReRNFHUIq3XijDBwAAqGxUxtlxxx3N/vvvH1krxm+//WauuOIKWjFSQILhkS5GtV58+eWXtF4AAACEaOONNzZnn312pK0Yr7/+upkzZ06wB2UhwfBIF+INN9wQaevFxRdfTOsFAACo9FTWadeunTnwwAMjbcW4+uqracVIggTDE12Emj5N09JGpVGjRrReAACAnKFWjL59+0baiqE1MWbPnh3sQWlIMDzRqt2333575K0XDRs2pPUCAADkhEQrxkEHHRRZK4bWjBg6dCitGA4kGB7897//tStoR916ccghh7DuBQAAyCnVqlUzp59+eqStGJMnT7brm6F0JBge6MK74447aL0AAADwTGWfnXbaybRv3z7SVozrrruOVowy5BUWFhZNb6QDpsJxqnRCVbhNVS7EV+vFM888Y0477bTIEowmTZqYV1991c4g5UowOL9uxHcjvhvx3YjvRnw34rsR//9jaJ2Kk046ySxatCjY649eQ+3ate14jDZt2nB+S8jLz88vSjCU9VWvXj3YSk4FaGVwqcqF+KtWrTL77LOP+eSTT4I9fukEa52NE088MWn3KM6vG/HdiO9GfDfiuxHfjfhuxP9/2nfRRRfZil79jm+aVOeoo44yI0eOtMlGqnLh/NJFKkQ64M8995yZPn16sMe/TTfd1Bx88MHMHAUAAHKaxmKoBaNOnTrBHr9U66+xGF9//XWwBwkkGCFavXq1ufnmmyPJmkWtF/369TP16tWzzVUAAAC5SmWhHXbYIdJ1MX7//Xdz2223MRajBBKMkCip0LoX06ZNC/b4pwX1WPcCAADg/6kVQ93Go2rFUGLx8ssvm5kzZwZ7ICQYIfnjjz/MLbfcElnrxXrrrWcGDBhgNtlkE1ovAAAA1lKZaMcdd4x0XQy1YgwfPjyyMmA2IMEIgS4orXvx6aefBnv823zzzU2nTp1ovQAAAChGrRjdunWLtBVjwoQJ5ssvvwz2gAQjBGq9iHLshVovtO6FFpSh9QIAAOB/MtWKEWVPlrgjwaggXUgTJ06MfOxF586dWbUbAACgFGrFOOGEE9KaPrYi1IqhmURpxfh/JBgVpNaLKGcPUOvFwIEDbbMfrRcAAAD/lmjFiHJ1b7Vi3HXXXXbR5VxHglEBar149913zccffxzs8U9jL7p06ULrBQAAgIMWj9NYjChbMcaOHWvmzp0b7MldJBgVUFhYaPvbpbO8ekWo9aJ///6mVq1atF4AAAA4qKykdTG0IHGUrRhjxowJ9uSuvIKCgr+D5/ZEaPG2VOlAplO4rkzx1fyllRv33HNPezFFYYsttjDvvPOOqV+/vn0tuXz8U0F8N+K7Ed+N+G7EdyO+G/Hd0omv333rrbdMjx49zK+//hrs9UfvpWHDhuajjz6y5bXS5MLxz1v7S0UJhrr8rFixIthKTtmgmp9SVZnia9XuK6+80owaNcpu+6bWi2uuucaccsopRd2jcvn4p4L4bsR3I74b8d2I70Z8N+K7pRt/6dKl5txzzzVPPvmk/Vu+qZx2xx13mGOPPTbY80+5cPzpIlUOyslWrVplJk2aFOzxT2Mvjj76aNa9AAAASEONGjXsjFLqYh4FjcV44IEHIpsAKI5IMMpBmZ6a23788cdgj19qvejTp4/9gKgZCwAAAKlR2Wn77bePbCyGyonTp083c+bMCfbkHhKMclC/s8cff9y2ZERBrRddu3al9QIAAKActC7GiSeeGGkrxiuvvBJs5R4SjDQpqVi5cqX55JNPgj1+qfXijDPOoPUCAACgnNZZZx3binHIIYdE0oqhBGPcuHE5202KBCNNavbS2heLFy8O9vjVqFEjc9xxx9F6AQAAUAEamKx1MWrWrBns8Uezjc6ePTtn18QgwUhTIiONonuUMuzTTjvNfiBovQAAACg/laW2224724qhFg3fEpXSuYgEI01aXO+LL74ItvzS2Ivjjz+e1gsAAIAQRNmKoQQjV8dhkGCkQc1dS5YsMT/88EOwxx9l2RrYTesFAABAOFSm2nbbbc1ee+3lvXylcqNaMAoKCoI9uYMEIw2JGQHSWR2xvOrUqWOnpqX1AgAAIDyqvO3evbvZaKONgj1+qDv9H3/8Yb788stgT+4gwUiDEoypU6cGW37tsssudko1Wi8AAADCozGuGovRpEmTYI8/asX4/PPPg63ckVdYWFg0WlmZVjq18yr8VqlSJdhKLtvjL1++3BxwwAHex2DowtdA8v32289OU1uWXDv+xHcjvhvx3YjvRnw34rsR3y0T8VetWmVGjBhhhg4dapMAX1Sm02ygo0ePDvbkxvHPy8/PL0owdBDUbJQqDV5ZsWJFsJVctsdftmyZ2XHHHe2/PjVu3Nh89tlnpnbt2sGe0uXa8Se+G/HdiO9GfDfiuxHfjfhumYr/1ltvmU6dOtkKZF9UGN9yyy3N119/XTRzVS4cf7pIpUjZ7bx587xehAlKYhh7AQAA4I8K/ptttlmw5YdaB+bPn2+WLl0a7MkNJBgpUrY2Y8YMe6H4dvTRR5NgAAAAeFSjRg3Tvn37YMsfVVJ/9913wVZuIMFIkS6OKGYB2GCDDewCMK6xFwAAAKiYqlWr2rG1vstcqpyOYomDOCHBSJFaMNR/zrdGjRrZC1599gAAAOCHxkRoUeN0xh+UhxIMWjBQKiUYUYy/0JRptF4AAAD4V69ePe+reivB0DjeXEKCkSJ1kYpiJcaWLVva0fwAAADwS60XasXwSQnGggULgq3cQIKRIl0cUSQYWr4+MY0ZAAAA/NHY19atWwdb/vzyyy/Bs9xASTZFasH4/fffgy1/mjZtSgsGAABABNQtXeuP+aRK6kWLFgVbuYEEI0W6OAoLC4Mtf9RMxwBvAAAA/5RgNGzYMNjyZ+XKlcGz3ECCkSIlGBro7ZtW7ybBAAAA8E+9RmrVqhVs+aEy5B9//BFs5Ya8goKCopXjVLCtUqVKsJWcDtiaNWuCreSyOf6vv/5qV3z0nWRotcf69esHW265dPyF+G7EdyO+G/HdiO9GfDfiu2UyvmJNnDjRdOnSJdjjx8Ybb2zy8/Pt81w4/nlrf6kowVDhecWKFcFWcsr60pk7OJvjq+9cgwYNgi1/Pv30U7uyZCr0+qtVqxZsJafjk85AdeK7Ed+N+G7EdyO+G/HdiO9G/H+aOnWqOfXUU4MtPzSYPDHQW6+/spefSTBSjB9VggEAAIDKZf311zcLFy60z3Oh/MwYDAAAAAChIcEAAAAAEBoSDAAAAAChIcEAAAAAEBoSDAAAAAChIcEAAAAAEBoSDAAAAAChIcEAAAAAEBoSDAAAAAChySssLCxayVuLeq9ZsybYSi4vL89UqVIl2Eoum+NrJe9GjRoFWwAAAEBqtJL30qVL7fNcKD/n5efnFyUYubB0eXHpxF+8eLFp1apVsAUAAACkRgnG6tWr7fNcKD/TRQoAAABAaEgwAAAAAISGBAMAAABAaEgwAAAAAISGBAMAAABAaEgwAAAAAISGBAMAAABAaEgwAAAAAISGBAMAAABAaEgwAAAAAIQmr6Cg4O/gucnLyzNVqlQJtpL7+++/zZo1a4Kt5LI5/uLFi02zZs2CLQAAACA166+/vllb5rbPc6H8nLf2l4oSjL/++susWLEi2Epu3XXXNdWrVw+2ksvm+IsWLTINGjQItgAAAIDUKMFYuHChfZ4L5We6SAEAAAAIDS0YKcaPqgVj2rRpKb8mvf5q1aoFW8np+CSa51JBfDfiuxHfjfhuxHcjvhvx3Yj/T1OnTjWnnnpqsOVHrrVgkGCkGD+qBOPbb781tWvXDrbccun4C/HdiO9GfDfiuxHfjfhuxHfLdPxXXnnFdO3aNdjygy5SAAAAAFBOJBgAAAAAQkOCAQAAACA0JBgAAAAAQkOCAQAAACA0JBgAAAAAQkOCAQAAACA0eYWFhUXrYGhJjDVr1gRbyeXl5ZkqVaoEW8llc3ytg9GoUaNgy5958+alvA5GLh1/Ib4b8d2I70Z8N+K7Ed+N+G6Zjj9p0iTTpUuXYMsPrYOxdOlS+zwXjn9efn5+UYKRCwt/FJdO/MWLF5tWrVoFW/4sWbLE1KlTJ9hyy6XjL8R3I74b8d2I70Z8N+K7Ed8t0/FffPFF07Fjx2DLDyUYq1evts9z4fjTRQoAAABAaEgwAAAAAISGBAMAAABAaEgwAAAAAISGBAMAAABAaEgwAAAAAISGBAMAAABAaEgwAAAAAISGBAMAAABAaEgwAAAAAIQmr6Cg4O/gucnLyzNVqlQJtpL7+++/zZo1a4Kt5LI5/uLFi02zZs2CLX9++eUXU6dOnWDLLZeOvxDfjfhuxHcjvhvx3YjvRny3TMd/6aWXTOfOnYMtP9Zff32ztsxtn+fC8c9b+0tFCcZff/1lVqxYEWwlt+6665rq1asHW8llc/xFixaZBg0aBFv+fPvtt6Z27drBllsuHX8hvhvx3YjvRnw34rsR3434bpmO/8orr5iuXbsGW34owVi4cKF9ngvHny5SAAAAAEJDggEAAAAgNCQYAAAAGaK+7MuWLTM//fST+fjjj82ECRPM6NGjzfXXX2+uuOIK85///Mc+9Py6664zd911l3nqqafMu+++a3788UezdOlSU1hYGEQD4oExGCnGZwxGcsR3I74b8d2I70Z8N+K7RRn/v//9rx3sq/7406ZNMzNmzDBff/21+eGHH8zy5cvN6tWrbcLw559/2t9NFNM0EHedddYx6623nu3Pv+GGG5oaNWrYCWi22mor+9h5551Nw4YN7WvT75aF8/tPjMEIPz4tGAAAAJ6tXLnSzJkzx9x///3m3HPPNccee6zp37+/GTlypJkyZYr9mSozlWSsWrXKtmyo4KckQw891z79TL+jwqr+z+TJk82dd95pBg4caLp06WL69u1rY86aNato1iIgaiQYAAAAHqj1QV2YNA2qujmpllxdnZ5//nnbvUkJgBKHilICogRG3awmTZpkBg8ebBOYSy65xP6tJUuWFLWEAFEgwQAAAAhZfn6+ee6550zv3r3NKaecYsaMGWO+//5788cff3gt7Cu2ulkp2Xj88cfNOeecY8444wzzzDPP2GSHRANRIMEAAAAIiVoS3nvvPdsNSsmFBm2rYB9GS0W61LLx22+/mddee81ceOGFpl+/fuadd96xrxHwiQQDAACggtQyoHERt912m+2e9OSTT9pWDBXyM02vTYN4X3zxRdOrVy9z0003mXnz5sXitaFyIsEAAACoAHVJ+uijj8wJJ5xghgwZYn7++Wc7C1TcqBXl119/NSNGjLBJ0NSpU22XLSBseYWFhUWd8ZThaoaCVGnKtCpVqgRbyWVzfM3s0KhRo2DLH9UopDpNbS4dfyG+G/HdiO9GfDfiu+VyfA3U1kDqSy+91JYV4phYlEbT2NatW9cOOj/xxBPtlLdlqeznVwPjNQOXT5qmVl3lpDJd/2XJy8/PL0owcmFe3uLSib948WLTqlWrYMsfzfRQp06dYMstl46/EN+N+G7EdyO+G/HdcjW+ukA99NBD5tZbb7VjHVRQyyYqKG600Ubm9NNPN2eddZapV69e8JN/quznV13HOnbsGGz5oQRDLV1SWa5/F7pIAQAApEldja655hpzww032HUpsi25EL1mDfi+++67bUuGunYBYSDBAAAASIO6Qmldi0ceecQufJftVLM+btw4M2DAAJIMhIIEAxmjmhPd1FTzoy5oeqhGSM3MhYWFwW9VTon+jnqves/6stL7V3O7vqyysSYsHWpeVa2Z+qMmzr2e//777/ZnlZnOrc6xzrXOvd67ukaquTlb+m5XhD7bic+8rns9li1bZu8Flf26R+Wge9XFF19s17hIdHmpDPSd9Morr9gVwfX5BCqCMRgpxteHjTEYbqnG101Mx/Orr76yM1h8+umndkVTFS4Uo3nz5maXXXYxO+64o32uQWgajJbN148ovvq6Kqn45ptvzLRp0+x85LNmzbLHRH1hN9tsM9OuXTuz99572+tNv7/BBhsEEdzifnx0fpVAaPGnL7/80rz//vtm5syZ9nhIrVq17DnXe2/btq1p3Lix2Xjjje1xKU0cz68rvmZq0RSWuu7ffvtte93rWOi4qG+uzvfuu+9u37uue8VSzIS4n18XTYWphEo1ox9//LE993PnzrUx9Nlu2rSp2XXXXc1uu+1mttpqK9sPXOc9m85vScR3y9b4GtA9dOhQc/vtt1eKlovSaPBu9+7d7WrgiWNS2c8vYzDCj0+CkWJ8EozkksVXPNXYvvrqq7bPqgrZKnCWpVq1amaHHXawixWp8KFEI1uvHxWw9GWkZEJzpL/77rtlzo+ugtWGG25oNt98c3P22WebDh06mAYNGtjX55Lp81tS8fh6799++615+OGHzfjx4+11XtaMFboJq4Cp6R579eplC9tKtEqK0/mVsuIrjhIJzTJzyy232Odl1darsK1Ea4899jBnnnmm2W677eznQNdEnM9vWfQe1TqhRcfuuOMO8/nnn9sCWlmUULZu3dp209hvv/3staBjkopsPD7FEd8tDvHV+jZmzBhzwQUXOK/jykAVW5dccokd+K3PYWU/vyQY4cenixQiocLkF198Yefd7rW20PjZZ585kwvRDVw1vT169DD9+/c33333XVYuCqRuLwsWLLC1QXr/KmiqgF3We1GhTAVyJWBqhtfUeZ988klWNsUnCpiPP/64Oe6448zo0aPNL7/8UmZyIfoSVyFcs7Icdthh5rHHHrMxspFaLXQNH3LIIbZQolp77SstuRBdE+p+8cILL5iTTz7ZDBs2zB6vbOw6pfei93veeeeZU0891SYZyQpluifoWj/llFPstJlff/2181oBoqLP7Icffmjvycm+uyoD3Ye1GN/rr79e5v0KcCHBgHe6UanG/sgjj7SFLW2nQwVrDT5Tjba61mTTzU5Z/vfff2969+5tHnjggbQLyjpWs2fPtoWtl19+OeuSDLXSXHXVVfahJEvHI1X6Xa0Lc+GFF5orr7yyaP7wbKFz9cwzz5ijjz66XAVlHbtRo0aZPn36mPnz56d17DJNyYUqFHTdTpw4Me3rVr+vgk23bt1sVzKSDGSauvcp8c3W2aLSpfeocXL9+vUzP/zwQ7AXSB0JBrxSzav62as/p8ZZVIT6rivJSIzXiDsVslT7rBu0+p2Xt5CUqNVWHI3ZyJaCpppPr732WvP0009XqDuBxmgoObvuuuuypluCzpEWblIXNyWV5b1edc1ovIJaPzQYOluuexVIlFTPmTMn2Fs+iqMESy0huTAAHvGkVke1QGdbol9Rut+oe7jee2UdbwJ/SDDgjQoaGnOh5EJdXsKgZEV907OhiVqF4eHDh9tm9Yp+KelGr4K23rvGMsSdCsZjx461yYVqwSpKx/L+++83zz77bFYUNJUMq4Ctc1bRpEDXjloANXYnnT61maD3qnOlZFhd/MKgVqwzzjijQokaUBFvvvmm7aqZbut7ZaD7j7psqmsvkA4SDHijWh8tQqTCVpjUVUiDheNck6RCsL6U1LUrrO4dStjUbUaLIcW9q5S6Q6n/rroThEXvPTEmIc503atbV5gFYhVsVMCJewuWXpsGwb711lvBnnBocLgGiediAQ+Zpc+xJhoJo6IkW+k7bNCgQXbsIJCqvIKCgqJvQM1UounJUqUvz3QKT9kcX82EzZo1C7b8UeEp1Vmk4nz89X/VZ1XTTqprR9hatmxpu464Zj3I5PHRjViD2V977bVgT3g0q5BqkzSVb3Fx+XwpudJASA3oDrtZXbNJadCwxnRo1os4Xv+aerlz585eWtkOP/xw25KTyj0i6utf22qx0TTDmpAhbA0bNrRjuDSjml5rSVGd31QR3y0b4ivGgw8+aM4//3xbcZDLdL/VfVf3dh2rZLLt+nnppZfsfdsnzSKV6OabbcenpFTi5639paIEQ7VPmZ7Wqrg4xVchWV9svqn7S+3atYMttzgff9Wwjxw50tZ6+KJWDBW4yprGMpPHR4sVabyIj4HJugmcdNJJ5r777vvHjT4uny91i+vUqZOdktcHTV2swdOayjZu178K2BozoKl4fXTlUmKhlYM1jW0yUV//er/qFqcukb5o7QF1l9IXdUlxuf4TiO+WDfFVUbTXXntlzfgnn/RdU7NmTfPBBx+Y+vXrB3vLlm3Xj76zu3btGmz5ofuW1kKSXPh80UUKXqi2R/3vfdLsNHHsj6+sXuMu0p0xKlV6z2rBiOs4FA3s9dFqlaCBlnEdh6LaqSlTpni7LnVNaYrnOF73ek1K/HzSdMe5XpOM6Og7JhNjfxK1yVoXRuviqGJBDz1XC7YKqsUrl6KgY5CYcANIBQkGvFALhs9CpmgazDjWKqngr6k1NWbCB71n9UX30Q0lDBp74rO/so6vusrEkQY2p9MsnS5dU1onIo4zuqgGLOzxViUpuWQcBqKgz5jW4vH5eS5JiYOSiM0228wcddRR5s4777QVFhrTpIe63N5zzz22lXCLLbawSYcWxIuKvnvURTOXx6MgdSQY8EKFDdV2+KSZqeKYYKiGVWtf+KTjG9fBzipk+vxSVmytDRJHOie+EssEXVtxrMXX+w5rtriyqMuhrn3AN43xi+LzLGqtUNfoQw891M6Up0UpNYZN627stNNOZptttrGPHXfc0a4to+6xWhNKa8WoK+4mm2ySVv/58tL3rbrAatVrIBnGYKQYnzEYyRWPr4LGdttt5/XmvN5669k1MTTwtzSZOj567wcccECF1wBwqVq1qp1VqPigtLh8vvSaVNvmK/lT1wB9ET/55JOxu/41IFRrX/ic5UsTHKiLXLL7UdTXvyoUVKOqOL7ob2ra2k033TTY8z9RnN9EfHUH0znWQ891nyt5vWtsmLqzpErx0+n2WBni16hRw97HVQu/4YYb2kJyWV1/ojy/OpennXaamTBhgtfuiHqvet/6rtQMeVtvvXXR+KJUX78qXPRdo8kvlJio5cXXvVf0mvfff3/bHdLVTasixz8VYcdnDEb48UkwUoxPgpFc8fgqZLdt29Y+90kzVcUtwVA3jv3228/rOAG9Zw32PeaYY4I98fl8dezY0a7b4NPBBx9sv+Didv2r1lEzzvhMMJo3b27npdesSi5RX/9KMDQI1Dd95jOVYKgFReNsZsyYYe6++27bkqYaXRXq9HOfBbvKRAVTJRhKLJSUNmnSxNbWq3JCSYcK3SVFcX4T8XVO1XLgsxVex0AJnNY20sQFOg7Fpfv6dW3q/qPFTfW6fV6LKihrLJjrHhT1/SeZZPFJMMKPTxcpAAAc1EKhxOKNN94wRxxxhDnuuOPsSu0aB6UvZdVyk1ykTsdKBRr15VeFjNZ3UUF75513tuMetOaNfp4pmqTDZyWBkgsVzoYMGWIrJEomF+Wh5F5J2l133eU90VeridajAlxIMAAAKIOSC9UO9+/f3xbgZs6cGenA31yhhELd37TWgrpAqhXcZ/ckFw2s9pngqIXm8ssvtzXm6u4aFrUIHXTQQebGG28MNW5pNOCcpBouJBgAAJRCyYUWWe3Vq5d56KGHYjl7V2WjWcI+/vhjW1BWC5HPcXylUWLx6quvekswNOZELWBKLsrq3lsRSjIOOeQQc+qpp9q/5YMSC3WDzWQrE+KPBAMAgFKo+5NWLlZ3kEzVpuciJRUaw6YFO31Pd16SWlGUVPqqndf4oXPOOcdOR+uLul+dddZZplGjRsGe8GkRQp8TmSD7kWAAAFCCukFpprannnqK5CIDEklGz549I52WWWvZ+Go10SxZF1xwgR3U7pumrr3uuuu8Tl+rgd50k0JZ8goLC4uuDl0o6fQt1UCldC7ebI6vWhSftQEJqj1JdRapOB9/Ddxr3bq1fe6TzktZfU0zdXzUd/jAAw/0uhCemtbVZUOLMSXE5fOl5nkN2vRJf2PcuHGxu/7HjBljayd9zyKlAcalzaRUXNTXv2auUaHGtx9++KHU9x72+Z01a5Y5+uijzdy5c4M9yAQNWFai1759+0jub3fccYe54oor0vpbqVJiodXBmzVrFuwpWxifX30/6rj5mtFQA9Q1UF0zgpUU9f0nmWTxdU/t0qVLsOWHZpHSeC7JtuNTUirx8/Lz84sSjFyYNqu4dOKrybRVq1bBlj9qdkx1Rok4H38lSlpp1DfNu15WgpGp46NpNDVVq8/F9jRIcNSoUbYLQUJcPl+aonfq1KnBlh+HH364naM+btf/c889Z/r06eM1wWjRooVdLV2r/bpEff3reRSfeRX8S5syPMzzqxaLESNG2Ck/ab3ILBVetT6EZvBKJ4Et7/Xft29fu5Bd2OddBTK1XgwePNhsvPHGwd6yhfH5VcuPZuW67LLLbAEybJomXS18pSUYUd9/kkkWX4sH6nvbJyUYie+GbDs+JaUSny5SAAAUo2lSVaNJcpF56q6kFbXVMhwF1fb76CKl2t4OHTp4n92pOFVEqZVbBVsfVJEIlIUEAwCAYtT66LOLI9Kj2bveeuutYMsvJTM+avvV9XnzzTe3LRlR0sKFvrou+hwMj+xHggEAQDGJBfQQD+obri5SUVA3ZR/ULSrV8ZVh0rS1SjJ8SIwnAEpDggEAQDG//vqrXY8B8aD+3rNnzw62/NLq4j5q5TVY3VdXJRf1rfeV2EQ5uxeyDwkGAADFKLnwNVUp0qcCf1QtSunMpJMOzfxX2mBo3/Q30xm8mw7GKMGFBAMAgGI0OFY1v4gHjVtQC0AUfLUyaMbDTCSt+pvLly8PtsKVzjSoyD0kGAAAFFO/fn3bdx3xsN5665ltttkm2PJLYyV8DMTWOjGZ6FKkVgbNiuaDWmWAspBgAABQjBZCq1atWrCFTFNN+cEHHxxs+aUZl3wkGAUFBd4K+i5Kany1YGjNrqhnxUL2IMEAAKAYLRjYunXrYAuZppryXXfdNdjyS6vE+yg0K7nQuhFRTuuqv6W/62tmLLX0AWUhwQAAoBjNuqPV4jMx6w/+SWNhWrZsadeQiIL+lo8EQ12Vxo8fb1syoqL1Qx555BFvA9ebNGkSPAP+LW/txV6UTutDlc6gHWXH6Vy42RxfC8qo2dw3LfKjZsdUxPn4z58/3zRv3tw+92nZsmVlroyaqeOjFWcPPfRQrwt1qUbvvvvuM0ceeWSwJz6fr4MOOsj7oliHHXaYee6552J3/Y8dO9b07dvXrF69Otgbvi233NK89tprtqbVJerrX7P8JHtNYfjmm29Mw4YNg63/Cfv8arG9k046yUyfPj3Yg0xQsvfss8+aXXbZJZL72z333GP69+/vZZrizTbbzLz00ktm6623DvaULYzP788//2z22WcfbytuX3rppWbQoEH2b5cU9f0nmWTxdV46d+4cbPmhCotEgpltx6ekVOLnrf2logRDc02nMxWcahbSmf4sm+MvWrTINGjQINjy59tvv015zuo4H38Vstu2bWuf+6QbaFkDzTJ1fJRc7bfffvZc+qL3rJqpY445JtgTn89Xx44dzbvvvhts+aH+2M8880zsrv/Ro0eb888/32uCocT9hRdeKLWQXVzU178GsUYx048+86UlMmGfX82+88QTT5gzzjgj0lpn/I8KZCeccIK5//777XYU9zct6Ke/6eMzrCljr7jiCnPmmWcmnUSgop9fJUi6R5599tm2MOiDKrmOPvroUhOMqO8/ySSL/8orr5iuXbsGW37oel64cKF9nm3Hp6RU4tNFCgCAElQYPOqoo2yLlGYxQrR0/Lfbbjtz22232cJMVFq1auVtvQolrSNHjjRff/11sMcf9YYYMmSIt+RCtt9++1KTC0BIMAAAKIW6X1522WWmV69eJBkRUgFfhVd1g4xq/YsEtY5pvIevgrN6QwwbNsz+64u6Dl9zzTU2yfBFPTqi6DaO7EWCAQBAGWrVqmWGDx9uu7bUqFEj2Atf1HVIXT8nT55sxyxEXUOuv9ehQwdvCaVaFNQd56677vLS9U4Dux966CE7bsVX64WOkcZ20HoBFxIMAADKoEKU1sQYOHCgrVFv3749s0t5oG5Q6hKl8RYaX1a3bt2MFWAPPPBAb92kRINj1VXqjjvuCDXJSMwadf3116c1wLc89DkgwYALCQYAAA4qSGmGFXXbUQHu1VdftQN1tTaD1gKg+1T6VIBX9ycd0x49etgpXN977z1z/PHH21aMTBZeNWOVVvT2SYPIb731VtsFb8GCBcHe8vv111/Ntddea1vafK8YrvOjVh7AhQQD3visAZJ0plSLkr4YfRc4ovgb5aXaXZ+FA8WOaw1yFOdEfyOThS8X3+8/ysG+pdE9TYWrbbbZxlx99dVmwoQJZtq0aXZKW80eV/yhQqNmZUn1oX7zJWO4HtkeXzMN6qGk4t5777VTe2vMS6bPsWh2nCOOOML79awk4/HHH7eTCTz//PO2BSJdSiYmTZpkDjnkEDvFrs8Z7ET3Hk1Frq6DgAsJBrxIfBH7pP7QcSxo6UvJ98BEvW/fNWzlpXVcfBYSFFvdJ+JIXWl8X5P6Yo9DIawkvW+9f580PbPviotU6DWogkP3OBWK9Vks7aHjkc6jtBiuR2kxXI/SYrgepcVwPUqLkeyhc6oKgzhd07qWu3XrFkkllhbg09ouffr0sVO+qhueBoC7xk/oZ0uXLrUJrtZC0v/7/PPPvXeLEh2b7t27e7/PIfuRYMCLKArZjRs3juVNbsMNN7SLofmkL+MoFjUrD61/4vOLWYWR1q1bB1vxokGpvgvALVq0sNdY3Oh96zPpkxJL37XKgLRr186uORNFQqvpa9Xy8PHHH9tpkXfbbTebOFx11VW2hUOJhFo4nnzySTv1rFaZ14rjWq9Di26q5UMxfNP37RZbbGFbMIBkSDDghWr2GjVqFGz5scMOO8SiNrMk1eTtvPPO3l6bbvL6G1GslF4eWmRQNZO+6L3vvffewVa86Eu/rJXlw6DEUv3Dy1pcMpNU8NcgXZ90zTPAGlHQdXbRRRdFer1psTMlGupu9vbbb9vB2qeeeqpNJDQ2pWfPnmbo0KF2Fqr8/HybWOj/REXfaRp7xGcQqSDBgBeqYT355JODLT/ULBzHriJ6TRr86asbj1oH9GUTx1psUSHQZ+uKatD0iCOdk06dOnlrwVH3s2233TaW170SjBNPPDHY8kOFrbhe96h8NJBZFWWZqMhS4qDVuDXGQomEHnquffqZzwX0SqOKLU1o4Pszjsojb+3FWnSV6oJNpw+fLrh0vkizOb76RPqukZd58+aZ2rVrB1tucT7+eq5jprmyf/75Z7svTJp5ZMqUKc6a3EweH9VAnXHGGXYu8rCp69nrr79uuyIVF+X5dVFTvWreNEPKypUrg73hUMvIpZdeas477zxbyI7j9a9Bvxqw+vvvvwc/CU/Xrl3tysYahJpMJq5/Tbmpz/yXX34Z7AlPkyZN7IDgsqYvjcv1n0B8t2yJrzERGh9RngHYlYnutzfddJM9FqnItutHA+W7dOkSbPmhlh+NnZFc+Hzl5efnFyUYuoBS+eJKUBat2SNSlc3xFy9ebFq1ahVs+bNkyRJbS5mKuB9/NfXefvvt5uKLL7YXb1hUm/TMM8/YPqqumqVMHh8Vst966y1z2mmn2ekDw6IblGqQbrzxxn/1RY/T50vJ5cEHH2wHHoZ17nVDU/egF154wWyyySaxvf41aFM17U888URaN+xkVHs4btw4s8cee6RUo5qJ46N9KpCdfvrpofYJ1/tV0nrKKaeU2T0jTte/EN8tW+Kr1UBjDj744AMbMxfp3qsKLR2DVLtnZtv18+KLL5qOHTsGW37o3pWY5Svbjk9JqcSnixS80Yepd+/etkAUJs2ZrhriTDRbp0qvTd2kVNtTVoEoXYqprkeqwY/7QFfVMl9zzTWhdhNr0KCBjZlqAp4pOjfXXXedadiwYWjXqMY0nXvuuXbgaZyve31JaQCqpt0Mk1pF1HqTTo0cEAZ1yRsxYoQd+5Wr9B2mNTbiOPYL8UWCAW9U66HuPJoFQzPfhEGza9x8883ep8ANg76YlGCpJl8Fr4rQsVRh/aGHHrK193Gn93vAAQfYmvx0akXKouuoX79+tqAZ5wJ2ghJBzfii7o46dxWhY6maNSXW2TD+QK/xhhtusN0Yw6CB83fffbe9jip6LIHy0OQF55xzTk6O/0mMrdprr72CPUBqSDDglQpHmrrz5ZdfNm3atAn2lo9mDtJ0fVoHIBsKGnqNKmAqIdKiTeVtyUi0XIwdO9Yew2woYIu+jM8//3w7XqIiizIpsfrPf/5ja/CzIbEUnSPNJKbrtSItGbpmNJnBsGHDbJKVTde9uoipFa8iNKBd3SHVPSxbrntUPipkDxgwwE6PXdHKomyiz1zTpk3t6uBxbzVH/HDHhne6MekmpUHZGkSVbi2Qpv1UIfWxxx4z9erVy6paTN2g1eKggbm6SaubTzpUoN59991tgqY+sNl2k9e5O/vss83o0aNtK1Y6r1+/u/XWW9vESjF8Tv/qg7rzaMyIxuLoHKabYKpQrSkphw8fbruFZVMBW69V17qSDI3HSLdrhX5fi3kpuVAFRS4V6hBPSvAfffRR+1nMpu+g8tJ71KQad911V8oTzwDFkWAgEiogqMD0wAMPmDfeeMN2ddFK3GVJ1IKqa4hmTLrkkkuypuWiJBW29F5V0NLc5r169XLWaidu7GqWVzcbdTHbfPPNs7YGSYVFnW8NolNLhJJNV0uEfqaFCjWQ/c0337T/N1v7/irJaNasmR2YrsHPqpFXolTWdZwomGsw8+TJk223KHUNyqbkIiHxGR40aJB59dVX7bipZC1ZKsSpa52SsjvvvNMm5yQXiAtN9PLggw+G0u0z7lQhopbTHXfcMdgDpIdZpFKMzyxSyaUaX3E1naWmctUqpCpEzpo1y07rqYK4CmHt27e3/6qgrYcKK5Xh+tR70XSH+n9ff/21LXhq9VYtmqRCtPqb77///vb9a1szMKU6sDXux0fvRXO469z/8ssvdrGoDz/80D4XJVH77ruvOeyww2wCpkGVSjbKKozH8fy64mtGKb333377zbbmKXGePXu2naVGBXEN4FYhXAmJ3rta+oonFnE/vy6aUUrvU+fyk08+sS1yM2bMsMdC71WtcxqrpJYebScG1GbT+S2J+G7ZGl+zAKmiTIvw+ZiKOg6UXKhLWPFuqZX9/DKLVPjxSTBSjE+CkVy68TWdpwrWKnjpuQqgKlCppl6F6pI19pXt+tT/V4Fb7z8xlat+RzchvX8VyrL5/Lri673pfeuRmM5U71nXvv5NpcY+7ue3LDrXet9KNJcvX273qeCt962H4pQmm85vaRLx9VnXda9/de713vVZT1z3Cdl6fhOI75bN8ZVYqOuiavjDXusn0/Q5VGu7eg2oQiyhsp9fEozw49NFChmTKFSpy4haLtQ9Qhe4au6ztTtQOvSB1ntNvHc9VHOrm1BZtfaVhRII1Yzp/er966Hn2peN3YHSoXOrc1z8veu6V4uFronKTp/txGdeXaZ03asgUzy5AOJM16vGBWqdo2wbG+ai+2+3bt3MwIED/5FcAOVBggEAAJAGVQqoG5EeiS592UwVHGeeeaa5+uqr06rJBspCggEAAJAmJRZaTPWOO+6w02lnY+urWlTVmqiF9Pr3729bFIEw5BUUFBSNwUh0WUlVoi9xqrI5vsZgaPClbxrwmuoYjFw6/kJ8N+K7Ed+N+G7Ed8vl+JrAQBOVnHzyyWbevHl2fFE2UJdMzVqnacQ1pbZrtr7Kfn5feukl07lz52DLD3WN1UQfUpmu/7Lkrf2logQjFwadFJdO/EWLFqW9hkF5fPvttynPOZ1Lx1+I70Z8N+K7Ed+N+G65Hl9Jxfz58+1U3OPHjy8qSMaVkokOHTrYVfdVeZqscFnZz69mNezatWuw5YcSjIULF9rnle36Lw1dpAAAACpAkxc0adLEdpfS+kWacjydGuGo6HVq8cqRI0ea++67L7avE9mPBAMAAKCC1M1EM6NpTZdJkyaZyy+/3Bbm4zAromqctXClBnJPmDDBTsmqcSN6zYAPJBgAAAAhUYuAuh1pMT6tyH/++efbhUQz0VKg5KZ+/fqmR48e5tlnnzUXX3yx2XLLLW13HcAnEgwAAICQaS2JbbbZxgwaNMgOIr7iiivM1ltvbff7bDlQbI2xUCKhNS3GjRtnBg8ebNq0acP6FogMCQYAAIAHKuxrOlslGloh++mnnzZjxowxffv2Na1atbLTwqr7UkUlBt0qqejZs6f9G2qxOPfcc21ioddAdyhEiQQDAADAM62UrTEZ+++/v51tSi0Ljz/+uLnlllvMKaecYnbeeWfTuHFjO1ZCCYF+X4mDEgM99Fxdm/Qz/c4WW2xhp5ft1auXuf32222s5557zgwZMsQceOCBNpYW0AMygWlqU4yvdTA0TW2xw+XFnDlz7I0jFbl0/IX4bsR3I74b8d2I70Z8N1d8TXG7evVqs2rVKvPbb7+ZpUuXmt9//93+TGtsJNbV0HgKJR3q/qSWDw3S1r/a1vgO/W6qOP7/o3KdBuV369Yt2OOHzp3WOpNcOP60YKRBB9Q3zZ3tO4kBAADxoMRBYyNUudi8eXPbkqEWCC38dvzxx5vu3bvbh54fddRR5pBDDjG77767nWJWA7hV0GOq2fL773//G8m6JUowcgkJRorUPBnFVHPLly8nwQAAAIiAEgy1HPmWa93VSDBSpAQjiovjhx9+sBc7AAAA/Eqswu6TypAaO5NL8goLC4uqy1VzvmbNmmArOR2wdJrlsjm++kS2a9fO/Pzzz8EePy655BIzYMCAlJrScun4C/HdiO9GfDfiuxHfjfhuxHfLZPxly5aZM844w7zwwgvBnvCts846ZtdddzVTpkyx27lw/PPy8/OLEoxcGHRSXDrx1XWpQ4cOZvbs2cEeP4488kg7E0TVqlWDPWXLpeMvxHcjvhvx3YjvRnw34rsR3y2T8X/66Sdz0EEHma+//jrYEz4lGBo/88wzz9jtXDj+dJFKkQ6+ZmvwbdasWWllkQAAACgf9UzRTKE+qca/SZMmwVZuIMFIkRKMhg0bBlv+aAyGLnTGYQAAAPij8RfqmeJ7kLcSDM36lUtIMFKk5i2thumb5sJ+9NFHacUAAADwSN181G0psdaIL0owmjZtGmzlBhKMFKkFQwN0oqDVPdNZMAcAAADpUa+Rd999N9jyR5XUW221VbCVG0gwUqQEY9ttt7UrZvqm5roZM2Z4z6gBAABykSpyX3vtNTtLqE9qvahdu7bZYostgj25gQQjRbpAlFw0btw42OOPLvohQ4aYVatWBXsAAAAQFq19cc8993jvkq7yo3rARLFYc5yQYKRBc/62bds22PLrvffeM5999hmtGAAAACFSBe7zzz9vu0j5ph4w7du3D7ZyBwlGGpR9duzYMdjyq6CgwFx44YV2ZgMtgAIAAICK0SydWhLglltusRPr+KYEY8899wy2cgcJRhqUYGixvXQWI6mI6dOnm/vvv58B3wAAACHQmAslF1r/wjd1j6pfv34ks5DGDQlGGnSh1KpVK7JuUuoXOGzYMDNt2jSmrQUAAKiAlStXmscff9w899xzdjVq39R6oRW8N9xww2BP7sgrKCgo6n+jArTGGaRKXXfSKfhWhvj6PzfddJMZNGhQsNe/rbfe2n4YNAOBLtaEXDz+xC8b8d2I70Z8N+K7Ed+N+G5RxNf/mTp1qundu7dZsGBB8BO/lFho6YGSYzBy4fjnrf2logRD2ZwWHUmVCrvpdBeqDPE1JuKnn36y/enS+VsVoROvGQgefPBBU69evaIkIxePP/HLRnw34rsR3434bsR3I76b7/jqav7222+bM88808ydO9cWkH1T2U0zj2rSnqpVqwZ7/18uHH+6SKVJF0zdunXNLrvsEuzxTx+Ejz/+2Jx//vlm4cKF9kIAAACAW2FhoV1brH///ubbb7+NJLkQjdvt1q3bv5KLXEGCUQ5qRurRo0ekcxorqZgyZYrp1auX+e6779Jq+gIAAMg1GnPxzjvv2DLbF198YWeQioIqo9U9qnPnzsGe3EOCUQ5KLA488ECz5ZZbBnuioQ/GRx99ZI477jjz/vvv2w9OVJk4AABANlB5KT8/3zz00EPmxBNPNLNnz44suZB11lnHHHDAAWarrbYK9uQeEoxyUmaqpi9dRFFSQvH999+bnj17mlGjRtmVKGnNAAAA+P/xFl9//bVdS+ziiy82v/zyS+SVsRtssIE57bTTIi8jxgkJRjmpFUOFfA3gyQTN4zx48GBz2GGHmddff92OzSDRAAAAuUirc2tl7ocfftgceuih9t90Bi6HRQOgd9ppJ7P77rsHe3ITCUY5qX+dBu5oujNdTJnw559/mi+//NLOsawP00svvWR+/PFH8/vvv0faFAgAABA1jU/V7J7ffPONuffee2339XPOOceWhTI1Ic5GG21kW07Smfa1MiLBqIBEK0aLFi2CPZmhrF2rfnft2tXsu+++5qqrrrKzTqkr1ZIlS0xBQYFdDl8fNsZsAACAbKJKU1WqqiyjMs2vv/5qk4o333zTnHHGGWbvvfcumiVKs0ZlisqF++yzj9ltt92CPbmLdTAqGF8X/IQJE8xZZ51lL/y4UP+/2rVrm4YNG9qmOk2rq+5c66+/vtl4442D33JT38FUf1d0A1DrSaqI70Z8N+K7Ed+N+G7EdyO+W9jxVfbSoO05c+aYadOm2d4bSjKWL19uy2FxoJ4tKneNHz/etG3bNthbulwoP5NghBBficVJJ51kp5EFAABAblHFrtYru+SSS2yy4ZIL5We6SIVA/eyGDx9u6tSpE+wBAABALlCBe4sttrArhSdLLnJFXmFhYVELhhoz0pmJSAcxnUEslTm+muhGjBhhhgwZktH+fwAAAIiGypK1atUyTzzxhNlrr72CvW65UH7Oy8/PL0owcqHJpriw42vu5eOPP948//zz9mQBAACg8tK6aAMHDrQT7GjsSSpyofxMF6kQqf/dyJEjTaNGjYI9AAAAqIw0a5QGdGsmq1STi1zB0QiRmowaNGhgHn300bQyQQAAAGQPJRQq82n9Dcp8/0aCETJdcOqDp7EYajYDAABA5aGynib2GT16tGnatGmwF8WRYHigC08rSWptjHQG2QAAACC+1FtFLRY333yz2X333YO9KIkEwxMNmBk6dKg58sgjSTIAAACynJKLatWqmYsvvth07Ngx2IvSkGB4pFWz77jjDpIMAACALKbkQquTa8ao0047jUHdSXB0PNM4DCUZnTp1sgkHAAAAskei5eKiiy6yM0ZRaZwcCUYElGTcdddd5qSTTrJdpwAAAJAd1HJxzTXXmLPPPpvkIkUkGBFR64X67NWrVy/YAwAAgDhTxXCbNm3M0UcfTSVxGkgwIqBVvefPn2+OO+44s3DhwmAvAAAA4kyrVk+fPt307dvXrl6tMh2SyysoKCg6Uupjlk7Tjw7ymjVrgq3kcjF+YWGh+f77780xxxxjvvnmGy5MAACALKPy37777mvGjBljatSoYcuECZSf/y1v7S8VlXiVpSk7S5WaitJZvTDX4muGgfz8fNOhQwcze/bsYC8AAACyjQrhBx54oHnyySdNzZo1g72Un0tDFymPlixZYqeoJbkAAADIbqq1f/31103v3r3NypUrg70oDQmGJ7rwevToYWbMmBHsAQAAQDZT1/eJEyfa9TDS6YaUa0gwPNAFd+mll5q333472AMAAIDKYPXq1ebBBx80o0aNMv/973+DvSiOBCNk6sd233332UFAAAAAqHx+//13c9lll5mpU6cygU8pSDBCpCz2008/NYMGDQr2AAAAoDLSwOhTTjnF/Pzzz8EeJJBghOi3334zZ511lm06AwAAQOWllgslF2eeeaYdm4H/IcEIicZdqOVCa10AAACg8vvzzz/tzFKPP/54sAdCghECdY3SgO5HHnkk2AMAAIBcsGrVKjN48GDzww8/BHtAghECTUl7ySWX2AHeAAAAyC3qJn/55ZdTFgywkncF46tr1IgRI8zQoUNjNYuA3le7du3MzjvvbLbddlvTpk0bs8kmm9jWlo033ti+92Q4v27EdyO+G/HdiO9GfDfiu2VTfI1rVQuBKnPnz59vZs2aZWbOnGmmTZtm//3jjz+C38y8qlWrmocfftiu9u2SC+c3r7CwsKhUrAJyOouG5OXl2WXTU1XZ4mt7wYIFZo899rCrdmealq3XRX3iiSea/fff317o66yzjn2feuj1qq9gqnL9/CZDfDfiuxHfjfhuxHcjvls2xtfvFP9XhVyVvZ5//nnz1FNPmQ8++MAmIpmkMtc222xjx2RstNFGwd5/y4Xzm5efn1+UYORCRlVcReMrqz7//PPtQiuJCz4TGjZsaLp162bOOOMMU6dOHfs6dZGXxPl1I74b8d2I70Z8N+K7Ed8tV+Or7KWeGdrWJDt33HGHeeGFF2x3pUzZcMMNbbnw5JNPDvb8Wy6cX8ZglJMu6l9++cU88cQTGUsudBF3797dZspa7KV+/fo2oywtuQAAAKhMVJOuwvH6669vWrdubW677Tbz7LPPmoMOOiitGvwwqfJ5yJAhpqCgINiTmyiJlpPmO77xxhszliWrCU7NgsOHDzcNGjQw6623nv2gAQAA5BpVriqp2GGHHcyYMWPM9ddfbzbddNPgp9FRpfO8efPMhAkTgj25iQSjnJSZPv3005G3XugD1KVLF9tqse+++5oNNtiAxAIAAGAtlZM0BrVHjx7mscceMzvttFPk5SRVQt98881pjXutbEgwykEXzkMPPWQWLVoU7ImGMvOzzz7b3HfffaZevXq2WRAAAAD/pJ4dmkXzgQceMAcffHCkZSaNC/nqq6/MO++8E+zJPSQY5aAEQ1lxlK0XSi601sa1115ratSoQasFAACAg5KKzTff3Nx9993mmGOOiTTJUFlRU9bmKhKMNCkr1UwFn332WbDHPzX3nX766WbAgAF2DQuSCwAAgORUhqpbt6659dZbTfv27SMrQ6l7lLrSL168ONiTW0gw0qSMVNOPRdmv7pBDDrEzElSrVo3kAgAAIA1KMjSlv5KMtm3bBnv907ocr776arCVW0gw0qQE44033gi2/Ntqq63M/fffbxfRI7kAAABIn5KMFi1a2MHXmn0zClovQq0YuYgEIw3qHvXTTz+ZOXPmBHv80iqQI0eONJtsson9YAAAAKB8NPB7r732Mv369YtknQwlGFOmTDHLli0L9uQOSq1p0DLqWsAlqu5RnTp1MjvvvLP9QAAAAKBitEjxSSedZLbbbrtgj19//PGH+fjjj4Ot3JFXUFBQNBWSuuCkk9FpFiUVulOV7fF///13c8IJJ9g1KHzTgCRdkFokpqzWi1w7/sR3I74b8d2I70Z8N+K7Ed8t6viqKJ44caLp1auXLdv5pEriyy67zPznP/8J9uTG8c9b+0tFCYaaclasWBFsJafpvqpXrx5sJZft8ZcsWWK23357203Kt27dutlVutVNqiy5dvyJ70Z8N+K7Ed+N+G7EdyO+Wybiay2z7t27e29dUCXxbrvtZl588cVgT24cf7pIpUh52G+//WYWLlwY7PFHU9FqzQut0g0AAIBw1alTx5x11lney1oav/vFF1+Y1atXB3tyAwlGitScphUZoxh/oX6BuvAZ2A0AABA+dV1Sr5T69esHe/zRDKRaQy2XUIJNkZqPohqko8FHtF4AAAD4o+lqDz300GDLH7VifPvtt8FWbiDBSJESjK+++irY8keL6R188MHMHAUAAOCRxrlqdW/flbrqZv/jjz8GW7mBBCNFSjB+/fXXYMuf5s2b2wteI/oBAADgh7qiN2rUyC5m7JMSjLlz5wZbuYEEI0Vq3tIgb9+0cjetFwAAAP7Vq1fP+8reSjB+/vnnYCs3kGCkSAlGQUFBsOXPtttuy+BuAACACKh7VOvWrYMtP5RgaFrcXEJJNkVKMHwvxiLbbLONnV8YAAAAfinBUO8R36LoZh8nJBgpUvapacZ8a9iwIeMvAAAAIqBKXXWT8kllyFWrVgVbuYEEIw1RrIGhgUYkGAAAAP6pW3o6q16X1x9//BE8yw15hYWFfwfPbYa1Zs2aYCs5FYSrVKkSbCWXzfEXL15sNt9882DLH01jpkX2UpFLx1+I70Z8N+K7Ed+N+G7Ed3PFV++IFStWmGXLltm1EjTbkMoCS5cuNcuXL7ddtCVREFZte+PGjU2LFi1My5YtbcVkjRo10hq/yfH/p5dfftkce+yxwZYf6oq1ZMkS+zwXjn9efn5+UYKhZqJ0sjhN3aoPRaqyOb4SjFatWgVb/ujiSzXByKXjL8R3I74b8d2I70Z8N+K7FY+v/6vE4fvvvzcvvfSSeeedd8xPP/1kEwqN9VRBTw/9XiK5SFASoVh6rL/++mbDDTe0ZQbNgrT33nubI444wk53X7t2bfs7Zcnl41+aF1980XTs2DHY8kPna/Xq1fZ5Lhx/ukgBAAB4pqnuP/nkE9O/f39z2GGHmcMPP9xce+21ZtKkSWbGjBlm/vz5Jj8/385YqYKoumUrwSj+0D79bOXKlbbF45dffjEzZ840b775prnppptMp06dzCGHHGLOPvts8/7779vfATKBBAMAAMADJQXqAfHggw+aLl262ARg5MiR5qOPPjILFy60iYJ+p6IUQ4OINRXqtGnTzAMPPGA6d+5sjjrqKHPrrbeaBQsWhPJ3gFSRYAAAAIRIfdo1LemoUaNMt27dzOWXX25ee+01W9BXC4R+7otia1yHko233nrLXHHFFbb7j1pL1OLh828DCSQYAAAAIdE4CnV76tWrl7nmmmvMp59+avurZ6IFQX9TXa6mT59urrvuOnPMMceYsWPH2u5agE8kGAAAABWkwrzGUVxyySXmnHPOMe+9954t3MehxUCvQd2xPvjgA9O3b1/70GxVdJuCLyQYAAAAFaA1Dl599VXbHeqpp56yM0Jqpp24UUKhgd/PPvusOfHEE81zzz2XcwvAIRokGAAAAOWk7ka33367Oeuss8xXX31VNBVpnGka3G+++cbOaKWuU5oiFwgTCQYAAEA5aCC1BlErwYhrq0VZ1Jqh9TjuvfdeM3DgQLsWBxAWEgwAAIA0/fzzz+aCCy4wTz75pB3YnY2zM+k1q3vX888/b84991wzZ86c4CdAxZBgAAAApOHHH3+0BXKNu8iGLlHJaFpbTWlLkoGw5BUUFBSl3Hl5eaZKlSrBVnLKfNWPL1XZHF8L5TRr1izY8kdzVGvZ/1Rk+/FX86ym7kusWiqKseGGG5qNN97Y/ltcNl8/Ujy+/q9u6In3rmOhn6+33nr2vesh2Xx+XfG1Gq1mNNFDz0Wxa9SoYd+7jkMycT6/LjrXet+q8dS/+jvrrLOO2Wijjex7VwzFKimbzm9pEvFVW5q47hVDNthgA1OtWjX7mU+897i+/lQR3y2b42stiz59+pg33njD3scrE917d9llFzN69GjTpEmTYG/lP78vvfSSXZjQp/XXX9/e+yQXPl95a3+pKMFQ30EV+FK17rrrmurVqwdbyWVzfPWzbNCgQbDlz7fffmtq164dbLll6/HXDXnevHnm7bffNp9//rmZPXu2Pb66FFXQ2myzzUzr1q3N7rvvbvbbbz+z+eab29dSGa5PDaTLz8+30xd++OGHZtasWbbfq36mD3itWrVM8+bNzQ477GAOOugg06ZNG1O1atUgglvcj0+iv+9nn31mv5hnzJhhvv/+e1vQFr3Pxo0bm7Zt25q9997bvnclHDoupYnj+XXF10wter+vv/66PQbfffedHRyq615f6on3vtdee5k999zT1K1b9x+JVtzPr4ti671PnjzZfPzxx7aGNLHgl85vvXr1TMuWLc2OO+5o9t13X/uZV8KVTee3JOK7ZWt8zcCkaWg1+1JlaLkoje47WphPScYmm2xi91X28/vKK6+Yrl27Blt+KMHQ6u2SC58vEowU45NgJJcsvmqq1Wf1scceM08//bR97poeT7W5rVq1Mqeccoo5/vjjbSEkW68fFa7VCqa+unr/mmlEf6vYx6+ICly6Een96n2fdtpppkWLFklr9eP8+dL/e/fdd+0X1ptvvmmTrETLRUmqRVGitc8++5gePXqYnXfeuahFp7g4nV8pK75qeTRby8MPP2zGjx9vV/ctq9ZTCbaSqu22286ceuqp5ogjjrD3A+2P8/kti65v1fY+/vjj5qGHHrLHwfWZVwuGEi190Xfv3t1+/vV3UpGNx6c44rvFIb4SiltuucUO6K7sU7vqO+jMM880119/vf1cVvbzS4IRfnzGYCASujGr5laFhptvvtku8JPsBq2a7WnTptnZLU466SRb46+CerZRAVMJhW7Wl19+uV3oKFFzXRrt1/HSgk36IlNNkuZVV3eabKP3ohvqtddea5OFcePG2USrrORCdLz0OyqMn3766fYYaLus4xVnOmdKpk844QQ7U4uSaleXCl3fqiGdOnWqOe+88+xiXSqUp9PUHRf6wnrnnXfsugCXXXaZba1M9plX9ym1btxwww12jv7XXnut0nVBQXbSZ3PKlCnm7rvvttdpZafPne5ZqhDLxu9dZB4JBrxTYVnNySosffHFF2kXlnSj00A6JRmq/c6mm53e6/Tp021ipVk6Ev0vU6X/r640ml9dX2zZlmSo9lqvXUmCWgHTOXcqoOr/3HHHHebSSy+1z7OJCtP33HOPufjii22XQFdSVRoloUpOVED/8ssv0/7/maRzN2nSJPuZVbKUbpKQ+Nz07NnTJqUkGcg03Yf1WdY9PBsrO8pD9zDde9WlE0gXCQa8UsFAYy00T3hFC4jqPqYpAZWkZEOSodeo2me1XKj2trwFRH2ZaezC4MGDzdixY7OmoKluUBdddJEdPFeRxEj/98UXXzRDhw61xyEb6Bw98cQTZvjw4RUqkCiOCtp9+/a1Yxiy5brXOAtd9z/88EOwt3zU4nPhhRfae0g2tuKgclBr+tVXX512JUm2031LXTrVi0AVHkA6SDDgjW7E6h6jQqa6uIRBBZYBAwY4uxjFhQZ0Dxo0yNb+VPRLSe9V/SP13lXgjDu1Wt1///1m4sSJofRVVowJEyaYRx99NCtqsz/99FObECo5quh1qmtH8bIhwdJ71XWvqS41jWcYEq1gupfkUuEO8aBr+uWXX7at6LmY5Oozp54DY8aMif13LuKFBAPeqFCoQlFFazFL+uijj2zhVd0w4kpfRC+88IKtvQ+rxUE3d/XP79+/f9HMS3Glc/7AAw+kNWgsGSWV9913X2gFV1/UYqGxNnrvYX0h63pSgqUv+jgXcnSt33bbbbYFI0yaaU4JWy70fUe8qHIs1689fa412JuVvpEOEgx4oVoPNSdrZoawaz0UL1F4jWuNipqVNUAuzAK26Eav2mwNFI8rFYBHjBhRNFtGmPQFp+Ma50K2ZsvSmImwE+BEgqUkM470WVS3OH02fXzmNY5LhT1aMRAVXXeaAS3XW890HPTZGzVqVOifbVReJBjwQt1YHnnkEVvg8EEzLCl5ieNNXzfgTz75xI4V8UHdj0aOHBnbG73OuRIgvc6wKaZmJvJ1XVWUzola13wlQBrLM3PmzFieeyVUSgJ81XKqgKN7SpyTS1QuGgN05513MsnAWvp8P/jgg3awO5AKEgx4oeZkdQ/ySf1i49hNSgUgTakbdutFgloxNH1nXGuyVQgOa8xNadQn/+uvvw624kXjD95///3QusWVpGtKY3DiWMjWe9aYG580dTHdpBCVZ555JiPj/bQWktae0Bo4DRs2NFtssYV9bLrppqZOnTp2EUqtjRM1dc1VBQqQChIMeKEaH5+FTIlrTa5uwmEM7C6L3rOOr2YViiO1MIQxsLssiq1CfBypds9nbaeuKSUYcSxkK9nXyvQ+qXWEFgxEQRMqqEtQlK0XSioaNWpk9ttvPztRggZWqzJJa0jpoedqxdNK4gcffLBp1qyZqVq1avC//dP9R13GlixZEuwBypa39sNTVEJTwSWdm7eybK26m6psjq/xBPrg+6b58lNdyTvOx19Ny1qN2GdBSCsea8E+1eaUJlPH55dffjGdOnXyOne4VrbWlLX6kkmIy+dLC6RpgLuv1iWtaH7cccfZVcHjdv1rzQatwO0zwWrXrp2tWdVK7y5RX/9qXWnSpEnaa72kQ4UptV41aNAg2PM/cbn+E4jvFvf4WrfI92c5YYMNNjCbb765XVS1V69e9rnu8Vr5uTR6rfpu1ffsww8/bO8HmlgjiooHtZzceuut9ti4ZNv1o3V7unTpEmz5ofOpVm7Jhc9XXn5+flGCkQtLlxeXTnzVxrdq1SrY8kc1A2oCTUWcj78SpaZNm3odI6G/p+brsmpwMnV81IXniCOOsOt2+KKkSoOd9YWUEOX5dTnwwAPNG2+8YW9YPujGpuP77LPPxu76V6Gkd+/eXr/ot9pqK1ubqe4SLlFf/3ru+zOvwo1aLktLMKK6/hNfxLr36HtBXRU1NkjxitNxSGf9F723dGqjsz2+6DjqmG6yySa2wkg1+Pp8lyaq8yt670ceeaT3brh6r3rfhxxyiJ2pqnnz5kWFtlRfv7omKtHQ6vdaL0jXo697r+g177nnnnYBTZ3zslTk+Kci7Pg6dsW/T31QgpEYm5htx6ekVOKTYKQYnwQjueLxlWCoz6hv6o4UtwRDN3vdqHx2YdIXsZrv1VKSEJfPl5r39eXj0+GHH26nbY3b9a9Bzn369PEywD2hRYsWdrrazTbbLNhTuqivfz2P4jOvbliZSjBU+NPnWwmeWtD0GVeiofOtQqnPgl1lokKqHjqe1apVswlG586dbaFerWCqvS+ZaERxfhPxNYlImzZt7Ln1Re+vfv36dhFarXhfs2bN4Cf/L93Xr0oNXZdad0qt6LoefVErsj6HW265ZbDn36K+/ySTLD4JRvjxGYMBAICDvkw19bS6oxxwwAF2ZXWNA1JBTrX8+jnJRep0rFQAVmFLlWrq9nbTTTfZJENrJ6mCytdECanQODKflQRKLpQk33XXXbarUcnkojyUlB1zzDF2jIQGhpdM0MKk6933hA7IfiQYAACUQQVdDS4/55xzzHnnnWcXesxk4beyUsKhZEOzFKmgrLVkohxgXZzPMWSihEIJlVpiyxpDWB4ay7HbbrvZ9XJq1aoV7PVj8uTJJNVwIsEAAKAUKmSqu4zG1WgQaBSDaHOdxmVoNrYTTjjBzJgxI/JkTn//1Vdf9ZZgqJvM6aefbru3qqtr2JRk7LPPPmbAgAH2uQ9KLNTKk86gYOQeEgwAAEqhBR01Jei0adO81mjjn9SaoZkbe/bsaRO8KGvKNTmHz4HSmlr2zDPPtIO7fVF3KXW90ngtXzSNr9Y8ohUDZSHBAACgBPXB15oDGlBPchG9RJLRq1cvO5lHVDQexNf5VovFlVdeaaeh9a1u3bp2jEeYXbBKUuINlIUEAwCAYlQrO3v2bDtTG92iMkddcL755hs7O1JUNeWaHcnXDExaS2vvvfdOa32C8tJMT1tvvbWdlcuXL774ghYMlIkEAwCAYjS4WNMga3pyZJZm6VKtf1SJnhJLH4VmzeqkRUg1JW9UNO3o2Wef7W1GKY2VAcpCggEAQDHqX/7KK68wW1QMqDVB50NT10ZBYzB8tGCoe5TWCPLZZakkDfLWIn4+BpNLVOcE2YkEAwCAYubMmWOnpkU8qPVCMztFQeM+fLRgaGpa3+tTlKS/pQHfGo/hg9aGoYsUypJXUFBQdHXoYkynb6AurHSmKcvm+Goq1+wPvmnhplRX8o7z8dfMH82bN7fPfdJsH2Wt5J2p46OCyaGHHuq1+Vi1YJrrXCvfJsTl83XQQQeZt956K9jy47DDDrOrZsft+h87dqxdhM3nIl1aPfe1114zm266abCndFFf/1rVNdlrCoP65KugVlKY5/fRRx81/fr1M6tWrQr2IJN0XvWZf/rpp4M9yZX3+tdq9AsXLrT/P0ya0UlJUqqfkbA+v1pb5MADDzRfffVVsCc86oKlhEyrQJcU1usvS9jxX3rpJbvQo0+aonhtmds+z7bjU1Iq8fPW/lLRp0gzJ1T2pcuLSye+PkRaedM3Nc/Wrl072HKL8/FXIbtt27b2uU8///xzmU3OmTo+Sq7UFK5z6Yves2a40YJUCXH5fHXs2NG8++67wZYfBx98sHnmmWdid/2PHj3anH/++V4TDCXuWgistEJ2cVFf/7/99lsoKxIno898aYW0MM/vzTffbAYOHGhjIvNU+GnTpk1aFRflvf6bNm1qu2SFbZdddrGrbKfamhDW51efS60p8t577wV7wqMCsz6Peq0lhfX6yxJ2fHWJ7Nq1a7Dlh46XklfJtuNTUirx6SIFAEAxqpnzNZMQyieq1iRf4240HkKJUtT0N8tq5a8oxijBhQQDAIBi1EKoaT4RDyokp9qyX1GqZfZBtcOZSFr1N7VgpA/pdKlB7iHBAACgGHXB8jXzDtKnguyOO+4YbPmlQdE+WhrUVSkTY3rUGuejy5f4ahlB5UCCAQBAMVtttZWpUaNGsIVMU6vC4YcfHmz5pXUqfCQYasHw1ZLgovFgSm58UKtSJrp9ITuQYAAAUIxWXG7Xrh2Fp5hQTfkOO+wQbPnlaypZzXj4448/RtpNSn9LU8n6Smzq1asXPAP+jQQDAIBiatWqZY466qhIF0VD6dQ9arfddjObbbZZsMcvTSfrI8HQgOhnn322aJrSKKhL1kMPPeRtMLam9AXKQoIBAEAx66yzjl0Beeedd6YVI4N07NUN59prr7XTYkahZcuW9vz78Pbbb5vvv//eriHgm/7G0qVLzcsvvxzsCZ+vZAyVAwkGAAAlqMZca2GoNQOZoYH2p556qtl6662DPf5pnRlfhWYt2KtWDK1M7lthYaGZMGGCXbzXlyjPC7IPCQYAACWokKlV6S+55BK6SmWAukbttdde5rLLLvPWolCaVq1aeWstUavCww8/bD777DOvYzH0d+bNm2duv/12b60lOiea2YsWDJSFBAMAgFKoBv3MM880AwYMsEkGhSn/dIw1a9Q+++xjHnvssbRWIw5D/fr1TbNmzbwlNUuWLDFXX321XQHbR+FfMfU3lBgvWrQo2Bs+TYSw+eabB1vAv+UVFhYWXeG6MDVncqp0I0hnoZVsjq8Pqj5QvqnWIdUFheJ8/OfPn29at25tn/uk81LWXNyZOj4//fSTOfDAA813330X7AmfCjsavKeBqAlx+Xyp7/o777wTbPmhvzFu3LjYXf9jxowx55xzjp0a0hd14Zg0aZJdq8El6utfU2Fqik/ffvjhh1Lfu8/zqy4tTz75pLn88stt4e2vv/4KfoIwqVCvdSjULeqKK674x1TBUXx+E/EHDx5sbrnllrT+Xjr0Po8//ngzbNiwMqd6Lc/rV7coDSIfMmSIGTlypLdWEr22Hj16mDvuuKPU1y4VOf6pCDu+7qldunQJtvxQ4qxxMZJtx6ekVOLn5efnFyUYahZMp7ZAN1nN7ZyqbI6vvpNqOvVNX1516tQJttzifPyVKEUxw8Tvv/9eZoKRqeOjmqmOHTvawXy+qGZ11KhRplOnTsGe+Hy+9ttvPzN16tRgyw/Nia/+xXG7/p977jnTp08frwmGBla++eabSWfVifr61/MoPvOzZs0yDRo0CLb+x/f5VaFQFRo33nijrVnXDD36Uk48kD4VUhIPrZy+++67m/79+5u9997b7isuis9vIv7rr79u7+E+F8bT+z3llFNskqHv/JLvtzzXp67D6667ztx8883ekiPR31LCfeyxxwZ7/i3q+08yyeK/+OKL9pz7pAQj8d2QbcenpFTi00UKAEJSspCAykPnVsmdaoa/+OILc9ttt5mjjz7abLnllraSQwVGHqk/NthgA9sdad999zUXX3yxLeA988wztmtUpj9Hmha3Zs2aXl+Hpo594IEHbJLxzTffVKi1Qf93wYIFpm/fvuamm27ymlyIWpkOPfTQYAsoHQkGvNCNWRmxT6oNiCO993SaJstDf0Nf0nGkgoPPL2bFVgtOHOmc+Hzv4vv4VoTv6z4O17yOfZMmTczZZ59tnn76aTNnzhzbkqpCXfGHulWp5TvVh7pOlIzhemR7fB0ztUZpViWNcdHChr6/M1KlhLFbt27erzclBi+88ILtUjtixAizfPnytFrD9Ls6jmpRU4H/iSeesDXLPun679y5s6lWrVqwBygdCQa8UBOq70Kgpo+MY0FLX0q+p7bU+47rDV7dV3wWFHR8VfMZR+oz7vuarFu3biwK2iXpM59OE3t5MNAaUTnxxBMjq8TSmMULLrjA7LLLLraLk8bvKflIdL8r+dDPNP3svffeaw477DBz3nnnee2SW5w+57169Qq2gLKRYMALFYBSHaxeXhrsqptd3Cix0mvzSQX4ZIN8M0VTF6qW3RfF3nbbbYOteNEYBN/XpCZPiOO0qXrfvifCiGtyhcpHLSo77LBDZN8xShzUGqaJBDTeU39bM5hpjMbdd99tH+r+pEkk9t9/f7PddtvZrmWff/65/b9RUHKvtS/094FkSDDghQrZ6pvs06677hrLBEP9U/Xl5Ou16SavFpKmTZsGe+JFawf4bF1RK4EGkseRCgY+WzGUWO6xxx72GosbXe/bb799sOWHVln2mbwCCbqeL7300ox0x9T4jJkzZ5qxY8eaG264wfznP/+xD7VuPP744zapUDezqOmYaBB+HL93ET9cJfBCNazqo+yLCnDdu3ePTZ/d4nTz3WmnnbxN2alm+yj6B5eXWm8aN24cbIVPiWsUsxWVh87NSSed5G0sgrqGqWYzjt2E9J5POOGEYMsPdc0gwUBUOnToYFsMM1WgLt4tqvgjE3TP0b1dXceAVJBgwAsVNtSM6quWXSu8qrY0rjUpW221lTn44IODrXCpRk1zqMeVWi9OPvlkL60Y6uOvArzvvv4V0bNnT2+FYK17opmM4kifRXWPU+udD3rfmsaULlKIir7Hrrnmmlh2SYyaKvOuuuqq2E6ugvghwYA3muZPK5aGnQSogKGbvu8ZaypCXVhU0Cxtvv6KUMFVi1Bppdm4Uk2XFmHaZpttQq1pVyy1DMU5uRL1Ue7du3foX8Ra9+K0006LZfeoBL1n9SEPu2VR8S677DJmrkHkVFGkyrJcTmz1Ha4uyb5bKFG5kGDAGxU2VOMa9uI1559/vu2HHtfWC1FhWIPwNDNIWLXZer/qg673H2bB3Qcll1qQrGHDhsGeilO3KPVBLr66bxzp3GgVYtW4h3WN6hq65JJLTNu2bWN97pUIqHVRyXWYjjzySNtdJc6VCqicdE1r4bq433d80v3n+uuvD73iAJUbCQa8UlcWTaWnfuNh0ArOgwcPzoqChhIs9VfVo6I3ZhUqVYP94IMPZsUXnV5vYlXeMKbs1XiWK6+80k7jGPfkSjSDmgZoaqavir5e1Zyq1Uqr5mZD9wQVRgYNGhTaQHy1Wmn2nLJW7Ad8U2WBBlnnYlcp3X80m5UqzIB05BUUFBSNGNIXYToFNw02Smcmg2yOr4WEouiWormt69SpE2y5Zcvx15zdixYtsn3np06dGuxNnwpYo0aNSrmbRByOj37nt99+M9dee60ZPXq0Wb16dfCT1KkWXGM6tIiSrsGyasXj+PlauXKlXQRKXeV0DZSHCulquTjuuOP+8ffjcH6LKxlf1/3XX39tX3d5V+pVYV2TJWghMiXr6SQYmTw++tmKFSvsysITJkwI9qZPC5Ddf//9dnpavT6XqM9vMsR3y7b4WnhQK7e/+eabdpanXKDvGo2p0irr6ppZmc/vSy+9ZBcQ9En377Vlbvs8Fz5feWt/qSjB0AqQ+lJIlWpl0xlsmc3xVTgKuz99ab799tuU14/IpuOvy0wfLNVE3nfffXb10VSpcKEa0V69eqX1gYnL8dF715fTU089Zd+HFlFKlWrMunbtaoYPH26vC1eXm7h+vvRl/Mknn5iLLrrIfPDBBymfQ93s1AoyZMgQ06ZNm3/1gY7L+U0oLb6SiiVLltjxA88//3xaCaamvNVYI3Ux1MB+xYrj+S1L4rq/8847bYKdn58f/CQ5xVWtqWqNVaGgL79k4nr9p4r4bnGIP2/ePNuK/tNPP9nruzLTZ65evXrmjTfesOPKKvv5feWVV+x3rU9KMBYuXGif58Lniy5SiIRuViooaACobliaZtW1GrN+v0mTJubCCy+0c36rJjQT85GHQe9FiYIGJ7/88st2bnUVHl0tEepWpH7n77zzjrnnnntsq5YruYgzJQY777yzrSFSbbT66Lu6GqgrzJ577mnft1ptNO4gWwdY6pype9cdd9xhawFVOHGtk6Gbtt6vCuRvv/22HcOkY1XW78dZ4rrXmKEZM2bYBcLUzc9FlTiagUwtnQMHDkw5uQCisPnmm9uW6DC6fcad7sN6r2o9B8qDFowU49OCkVyq8VUTq1ps1Wyr64gK0fpX3Wn091Rbsu+++9obmzJ+PVTIqAzXp7pL6b0XFhba2jAVIr/66iu7X91hNJBZfc411kA3eLXepJpYZMPx0TnXe//111/NW2+9ZT799FNbo6Pzq4RTM0+p1UIJlVowXIlFHM+vK75+rnO/atUq89FHH5lp06aZBQsW2OOhQfFanfyAAw6wq2ErmdZ7L164zobzWxZ9zeh9L1261HYbe/fdd+2qxWrJ1HWutU122203m1wlPvN6/9l0fksivlu2xtc9TK2R5513XlF3l8pG30W33nqrnbUucQ+u7OeXFozw45NgpBifBCO58sRX4UL/r3j/dO3Xo2TBOpuvHykZX++55HtXgTLx/uP++pNxxddtR/H0SNyCdByUZOr/pVJrnc3HR78riSln9X51vetvlpVQxun1S3nj6zyrkFbsq8e+fxVkir/3bD6/Qny3bI6vSgGtqK0ufJUtyVByoYlU+vXrZwvECZX9/JJghB8/O/tcoNLQRaoPnWpsEw/VXKdaa5/N9B71XnVDTzx0LHRMKrtEgVLvOXHe9bxkrX1lVfK613vPpete7z1xzeuh7Vx476gcdL12797dTl6RTiEu7nQvUtdEdWvUewQqgjs6AABAGpQYa4a32267LeVeB3GmREmz9WlCCr03oKJIMAAAANKkgrjWORo/frwdP5eNrXBqMVb374cfftjO3KZWDCAMJBgAAADloCRDE1Nowg4tKKuujtlCXTVbt25tXnvtNTvDHS0XCBMJBgAAQDkpqdAUtlOmTLGzS2XDNLaaYOXUU0+1U0JrxsZsSoyQHUgwAAAAKkDdozQWQzMwaQpuTTcexxYBJRItW7Y0EydONLfccotdpycXJhZB9EgwAAAAQqCWAa3lpGlPtYq91niJQ+uAZuhTK4sSoEmTJtnuXIlpsgEf8goLC4smI9e85FoIKlUaHJTOByeb42sdDC2A5ZsWX0t1RopcOv5CfDfiuxHfjfhuxHcj/r+tXr3aLqKqNTPuuusuM3/+fLuGRpSUWGy66aamR48epnfv3qZGjRp2IDfn95+UdHXp0iXY8kNT/2qxUcmF45+Xn59flGComayyL/xRXDrxFy9ebFq1ahVs+bNkyRK7inEqcun4C/HdiO9GfDfiuxHfjfhlU6KhRUS1ev+wYcPMrFmz7P9Voc4HFf7UOtGsWTO7rkWHDh3se9too42C3+D8lvTiiy+ajh07Blt+KMHQtSC5cPzpIgUAAOCJxmJorMMRRxxhXn75ZfPZZ5+Zm266ybRr187UrVvXtjJUlAqI6v3Qtm1bM2TIEDNjxgzzxhtv2NWp69ev/4/kAogCCQYAAIBnqsFWEtCkSRNz1lln2XEan376qXnzzTfNoEGDzMEHH2wHYKtLU82aNW1iosRBLRJ66Ln2qaZZSUPz5s3NPvvsYy688ELz/PPP2xYSJRXabtq0qe0NwYrcyBS6SKUY/9dff7VdpHw1aSZorEe9evWCLbdcOv5CfDfiuxHfjfhuxHcjvpsrvmJpbIYe6kKjx6pVq8zy5cvNf//736Jyh5IMzValFg/1f1eyoYeSCI2rSGd6XI7//+j4KkHr3LlzsMcPtSKpq5zkwvGnBSMNYTRjJqMbiu8kBgAAxIMKdyp8qtVCLRONGze2s0+pNUNrVGgxPD30XPs0tkKTzqgyMjFoWzFQPkri0imMl5eSwVxCgpEi1RxEkWDk5+eTYAAAAERAtfHLli0LtvxQGVKJYC4hwUiRLo4oss9vvvnGZtMAAADwS9Ozfvfdd8GWP2qhyiUkGClSv8dq1aoFW/5odgll0wAAAPBLY15mzpwZbPmhSuoGDRoEW7mBBCNFujiiWPVSU8v9+eefwRYAAAB8KSgoMLNnzw62/CHBQKk0gCrVFbYrQgvwkGAAAAD499NPP9mZQn1SJbUG5+cSEowUKcHYbLPNgi1/5s+fby92xmEAAAD4o/EXX331lW3F8EkJRosWLYKt3JC39qAWTVmkA6C5lVOl2Y50clKVzfHVR++2224zgwcPDvb4069fP/t3ks04kEvHX4jvRnw34rsR3434bsR3I75bpuIvWbLEnHzyyWbKlCnBHj+0Vslzzz1n2rdvb7dz4fjnrf2logQjFxb+KC6d+Iqt1TYPOuigYI8/mudaK3wmm3Egl46/EN+N+G7EdyO+G/HdiO9GfLdMxf/kk09M165dzdKlS4M9fmgWUq3anugJkwvHny5SKdIsUltvvXUkA72///57895776WVfQIAACA1Wi198uTJ5rfffgv2+KHWAS2KyCBvlEoXiDJQrbDpmxKLW265xfzxxx/BHgAAAITlxx9/NI8//rj3iXVUQb3rrrvaWv9cQoKRBvVPa9u2bbDll6arffvtt2nFAAAACNHvv/9uxo0bZxYuXBjs8UcJxr777hts5Q4SjDRokM5hhx0WbPml1gsN9FbTXbFhMgAAACgnzdL55ZdfmgcffNAUFhYGe/1RgrHLLrsEW7mDBCMNat7ae++9Ta1atYI9fn3zzTfm5ptvtv0EAQAAUDGLFy82N954o51Byjd1r99iiy1ybopaIcFIgy4UDfJu06ZNsMcv9Qt89NFHzRtvvBFJlg0AAFBZqWvUAw88YN555x07c5Jvqpg+4ogjbA+YXEOCkSZdJLpYorJ8+XJz2WWXmblz57LCNwAAQDmo6/mkSZPM6NGjI+sZogSjQ4cOwVZuIcFI03rrrWeOPvpoU7du3WCPf5rpoE+fPnaF7ygybgAAgMpCiyVr4pyrrrrK+5oXCRp70bRpU7PDDjsEe3ILCUaa1E2qRo0aZvfddw/2+KdB3lrK/vTTTzffffcdLRkAAAApUMuFuppfeumltqI2qolzVCF90kknmQ033DDYk1tIMMpB3aR69+6d1rLqFaVZDz7++GPTs2dPO4WtsnEAAACUTqtTP/vss+ass86yXc2jSi5UGb3RRhuZjh07BntyT15hYWHR0daBT2fdBR3AdArZlSm+Bgppylot/R4lvWYtNa9xGcccc4ypU6eO3ZcKzq8b8d2I70Z8N+K7Ed+N+G7E/ydVymqNi7vuusvcd999dsYo/Y2oqPWie/fu5o477rCvtaRcOL95+fn5RUdcg1GqV68ebCWn8QDKDlNVmeLrRDz00EOmb9++GRkXUbNmTdOtWzdzyimnmGbNmtlVxpPh/LoR3434bsR3I74b8d2I70b8/1EFsCp/R4wYYWeLWrlyZfCT6Oi9TJkyxa7gXZpcOL90kSonZaddu3Y1W2+9dbAnWppd6t5777VJhhaL0dgMuk0BAIBcoxp4JRbTp083N910kznttNPMq6++mpHkQuXDQw45xLRr1y7Yk5tIMMpJzUNVq1Y1/fr1sxdTJiiD/P777+2sCEp27rnnHjs+Q6t/62cAAACVlXqTqPvTe++9Z6699lpz4oknmjvvvNMsWrTIdpOKmsqGWi9t4MCBGSsbxgUJRgWoSUkF+5122inYkxlqudCq30OHDrWvp3///ubJJ580H374ofn555/NsmXL7CwKmn0qEx84AACA8lLZRcmEWimUUKjXxtSpU21Xdc2wefLJJ5tRo0aZBQsWpDWWIGxKKo499liz4447BntyF2MwKhhfMdTPrkuXLvbCjwsNvtF0uhoE3rJlS/to2LCh2WSTTVKeMk0faCUmqdKcz+lMx0Z8N+K7Ed+N+G7EdyO+G/Hdwo6v8pXKa1oXbNasWXZGKCUaBQUFsemxofegctbrr79uWrVqFewtXS6Un0kwQoivFgT193v00UcjnaUAAAAAmadpaa+//npz7rnn2q5SLrlQfqaLVAi0LoYuqiZNmgR7AAAAkAvUNWrnnXe2a5UlSy5yBQlGCHQxqVnsyiuvtAO/AQAAUPmpa1TdunXNLbfcYrum4/+RYIREzUtaVEXTxupiAwAAQOWmsSOXXnppzk9LWxIl4RBpYPWwYcPMtttuG+wBAABAZaQu8gcccIA54YQT6BpVAglGiHRxadYmLXynLlMAAACofDTuQjN03njjjXSPL0VeQUFB0bRHKiCrFj5VmjEpnfmGcyW+pmfTOhTnnXeeXXEbAAAAlYO6xW+++eZm7Nixpm3btpSfS5G39peKEoxcmDarOJ/xlWTcdddddmXJVatWBXsBAACQrTTOtl69euapp54y++yzj91H+fnf6CLliS7As88+2/Tt29fOjQwAAIDspbJd7dq1zW233Wb22muvYC9KQ4LhkfrnadA3SQYAAED2SiQXd955p+nSpQszhibB0fFMfdqUZJxxxhlm4403DvYCAAAgGyiZ0CQ+I0aMsMmFKpDhRoIRASUZmmXgkksuSWsQDQAAADJHA6Br1qxpHn/8cdO1a1eSixSRYERE2e+JJ55oV3sEAABA/CnBaNWqldl+++3tc6SGBCMCmlHqiy++sIuxLFy4MNgLAACAOFMZbtq0aeaQQw4xixYtsttIjgTDs8SF2aFDBzNv3jw7dzAAAACyQ2Fhoa0obt++va0oJslIjgTDo0TLxRFHHGEvSJILAACA7KOF5b7++uuilgzKdG4kGJ7owvvxxx9Np06dzC+//BLsBQAAQDb6888/zaxZs8wxxxxjli5dGuxFaUgwPFByoQtPg7qVZAAAACD7qSXjk08+MX369DEFBQXBXpSUV1hYWNTGo4KxDlyqNJo+nWlXcyX+77//bk477TTz/PPPB3sAAABQWWgB5f79+xctQUD5+Z/y8vPzixKMdddd11SvXj3YSu6vv/4yK1asCLaSy4X4Ggg0aNAgc9111wV7AAAAUNloAeV77rnHdOzY0dSqVSvYm1wulJ/pIhUiHfCXX37ZDB8+PNgDAACAymjlypXmwgsvNN99912wBwkkGCFR85IGc5999tm2FQMAAACVl8p+S5YsMWeccUZaLQa5gAQjJH/88Yfp16+fmT9/frAHAAAAlZl6r3z++efmzjvvtM/x/0gwQqAL6rnnnjPjxo0L9gAAACAXqJJ52LBhZubMmcEeMMi7gvHVPKYpaXfaaSfzww8/BHszTyP811lnHfuaE8/1b+KRKr2/dKQTW4jvRnw34rsR3434bsR3I75bmPETsbSAsZ6r/Kbnie04UHlrzz33NK+88orZYIMNgr2ly4XyMwlGBeNrvMXll19ubrrppmBP5ujDqdeoR+3atc3ee+9t9tprL9O8eXPTqFEjU7duXbPJJpuYDTfc0P5OMpxfN+K7Ed+N+G7EdyO+G/Hdsim+pk9dvXq1bSVYuHChrcxVS8GkSZPsehQaaK0F8OKQbFStWtWMGTPGLsTnSphy4fzSRaoCdCHrQtcUZZmki1jzEdevX9/07dvXTJw40UyfPt3ce++9pmfPnmbfffe1SUadOnXslGq6kAAAAOJO5Ztq1arZCtI2bdqYww8/3FxwwQXmqaeesmWdRx55xHTp0sVOE7veeuul3dISplWrVpmBAwea5cuXB3tyFwlGBSijvuqqq9LKEsOkD5E+TC1atLBT437wwQdmyJAhZuedd07aPAcAAJDNatSoYdq3b28ret98801z0UUXmXr16mWsIlUVzz/99JNNeuLSdStTSDDKSU1x3377rR3cnQkaU6GMXitITp482Zx88smmZs2awU8BAAByR+PGjc3FF19sXnzxRdOtWzfbHTwTrRnqOq8B38uWLQv25CYSjHJKXEBqDouakovdd9/dZuuaGjed1SMBAAAqqy233NLccsst5r777rPPo04y1HKxePFiM3bs2GBPbsorKCgoasNJ9OVPlQ6iBt+kqrLE1//TQKNtt9028n52avY799xzzX/+8x87ICcXj3+qiO9GfDfiuxHfjfhuxHcjvluq8dXTZMCAAXZmJ/U8iYrej7qvT5s2zay//vrB3v/JheOft/aXihKMXBjVXlx546v1QmMebrjhhuAn0dC4Co356NWrV9FMULl4/FNFfDfiuxHfjfhuxHcjvhvx3dKJr9YEdZ16+OGH7WxTUVGZ7dFHHzUHHXRQsOd/cuH400WqHJRgTJgwIdiKhjJgTYXbu3dvm1wAAADATYO+VSncq1cvOzFOVJTMaLB3riLBSJOyvC+//NJ8/fXXwR7/NObisssuM8cdd1ypTW0AAAAonWabuvTSS5OuTxEmlRc1Cc+CBQuCPbmFBCNN6nP20EMP2f5nUdFsCKeddhpTzwIAAJSDFiDW+NU99tgj2OOfWjFeffXVYCu3kGCkSd2j3nvvvWDLv+23396ubaEF8gAAAFA+jRo1MldffbXZfPPNgz1+KcHI1HIGmUaCkYbE2hc//vhjsMcvJRW3334761sAAABUkLpHqeL2wgsvjKTLucqNqpResmRJsCd3kGCkQd2jJk6cGNlUZ+oa1bJlSzsGAwAAABWj6ViPOOKIyLpKqRXj008/DbZyByXXNCjBePfdd4Mtv+rXr2/nbmbGKAAAgPBssskmdk2xatWqBXv8UaV0VGXHOCHBSIMSjLlz5wZbfmnGKHWNimq2AwAAgFygniE77LCD2W233YI9/ijBeOutt4Kt3EGCkSLNGqU+dL/++muwxx8lFueccw5T0gIAAHigWaW0tpjvGTqVYMyaNcusXLky2JMbSDBSpD50b7/9diTjL3beeWe7QiKtFwAAAOFTK0abNm3szFK+qQfM7Nmzg63ckFdYWFi0oINq6XUQUqUCsAbLpCqb469atcouNT9y5Mhgjz9aWr5jx45JV5zMpeMvxHcjvhvx3YjvRnw34rsR3y1T8dWqMGzYMLvSt096rffdd59d6E9y4fjn5efnFyUY6667rq05T5VWKVyxYkWwlVw2x//999/NySefbF5//fVgjx+1atUy33zzjalbt26wp2y5dPyF+G7EdyO+G/HdiO9GfDfiu2UqvgrWr7zyiuncubP5448/gr3hU4Xx0KFDbUW15MLxp4tUitQ1aunSpcGWP61atWLsBQAAgGeqiW/cuLGpU6dOsMcPJTJz5swJtnIDCUaKlGD89ttvwZY/6g+YrGsUAAAAKk5T1vpe2VsJxs8//xxs5QYSjBQpwSgoKAi2/NG0aWqqAgAAgF+aRUqVuz4pwfjll1+CrdxAgpEiJRhRTDHWtm1bEgwAAIAIKMFo3bp1sOVPFMscxAkJRoqUfWqqWt+0grf6BAIAAMAvVeqqm5RPKkNqNtJcQoKRhigSDM0iRYIBAADgn9bD0ALHvvmcpSqOSDDSoGm5fKtatSoJBgAAOUIFz/nz55tPP/3UPPLII+aSSy4xxx9/vDn00EPNbrvtZnbdddeiR4cOHeyU+VdeeaV57LHHzPTp0+3/zbXa8TApwVDZy7d01pmoDEgwUqTmLQAAgIpQZaUG/L7xxhvm9NNPtwOM27VrZw466CDTt29fc9ttt5kJEyaYjz/+2E5tqrWxEo9PPvnETJo0yYwaNcoMGDDAHHXUUeaAAw4wu+yyi+nRo4dd00GzFUVRIYr05Fo5kgQDAADAs/z8fPPmm2+aTp06mR133NEu7vbQQw+Z7777zixevNgsW7bMLuqrFg3VditJUKG0+EMTzuhnq1evthPPLF++3A4enjdvnnnyySfNscceW5SsTJ482SxZsiTnCraIBxIMAAAAD5QQLFiwwFx33XVmp512sknFlClTbAuG1tYqLCwMJQFQDMVSzIULF5p33nnHHHfccTbZ6N+/v/nxxx/tawGikldQUFB0Zavvf5UqVYKt5HRBp9OnLJvjq3ahWbNmwZY/uumkuqJkLh1/Ib4b8d2I70Z8N+K7Ef+f9HMV9NXd6dlnn7UtCWp1iLqQr/elaVhVrtD4DY3dSCwqx/n9n5deeskmfz6tv/76ReupZdvxKSmV+Hlrf6kowVBz3IoVK4Kt5DS1V/Xq1YOt5LI5/qJFi0yDBg2CLX++/fZbU7t27WDLLZeOvxDfjfhuxHcjvhvx3Yj/P+q29Mwzz9hWi59++sl2eSpW1MoIFSBVwFU55swzzzTdu3c3jRs3Dn6aXGU/vxq70rVr12DLDx1/JZ1Sma//BLpIAQAAVJBaJzQQWzXhF1xwga0w1OxOmU4uRK9BLSiacWrIkCH2Nc6YMcMWLAEfSDAAAAAqQIOzH374YdO+fXvz7rvv2rEQcRzzoNekweGff/65Oeyww8ydd95Z1G0HCBMJBgAAQDktXbrUnH/++aZfv352Nqd0+r5nihYO1uDz//znP+a0006z3cCBMJFgAAAAlIMSCk0Nq0XvNPYim2ZqUrcp9bt/7rnnzNFHH23X3ADCQoIBAACQprlz55pjjjnGTgkbl7EW5aGxGR9++KHp0qWLXU0cCAMJBgAAQBqUXKjl4rPPPrPrT2Q7dZmaOXOmnV1KK4gDFUWCgYxRbY8Gl2kaP92sNfuG/lW/UA1Cq8wSM3qo3+sPP/xgZxvRaq4///yzbbLOpmb28tAXsuaF13vXeddDz7XSbTb0X64InVsNANVsLonrXude0xfqmsjWWtBUqaZX71XvOXHda/0ffeYr+3tH5aBF63r27Gm+/PLLSnW/0oxS6ibVo0cPm2wAFcE6GCnGZx2M5FKJr8tNhcvZs2ebJ5980t6gVdjQ/9PP1llnHVOzZk3TsGFDs/fee5sTTjjBtGjRwr6WynB9qlCt9zthwgTz+uuv24KV+u3qZ5qnfOONNzabbLKJad26tTn55JPNLrvsYqpVqxZEcIv78VHBWu//tddeM+PGjbMFS20nav80R7iu/SZNmtgpFPfaay+7rWuiNHE8v674Sqb1pf3oo4/a6//XX38tmh9ff0vvVQtgaTEsdbvQZ6D4wkdxP78uqh2dNWuWeeihh8xHH31U9JnXNaHrXnHq169vdtxxRzsXvT7zVatWzarzWxLx3bI1vhbd1aDo999/v1K0XJRGx07fPU8//XTRonyV/fyyDkb48UkwUoxPgpFcsviq6VGh8oYbbrDT+GnmDdXYlmXDDTc0m222mZ1Kb8CAAfZGl850enE6Poqt1olbb73VPP/887bVxtVnVwXLWrVqmd13391cccUVZocddki6ymamz29JxeMvW7bMrmZ77733mq+++srGUbzSrLfeejap2mqrrUzv3r3NIYccYmrUqBH89H/idH6lrPgqhEybNs0MHz7c/quEsqxaz0SSucUWW5jjjjvO9O3b1xa8lWTF+fyWRde3PvPDhg2zX+D6DLg+81pxWAm2KhcGDhxotttuO3s9pCIbj09xxHeLQ3zdsy+++GIzduxY53VcGehzp4qOBx54wCb7lf38kmCEH58uUoiEamo1y8bxxx9vxo8fb7tBJbtB6/8o4Ro1apQ58sgj7VL++hBkG71P1drqvd999922CTpZdxAVQFVTpvd81FFHmZtvvjmtD39c6D2qO8HZZ59tLrzwQvPBBx/YZMN1HlXbrd/RMVMh89JLL7UFU9fxiiudMyWV6nKglhu1Wri6VOg9Jlo6brrpJvuFN3369KysKdV5VFKpz+79999vE41kn3n9XMm3VkFWgqV7hu4DQKapte2pp56yra+VteWiOH1+1dI+YsSISt9lF37krf2gFH1r68stnf6Eqm1LVqtaXDbHVwtGo0aNgi1/NOVdqi0Y2XL8VZi+44477I1KfezLS11Ghg4dagtdZXWbKS4Ox0dfRG+99ZYtYGuMQXkSJP0d1eirkKoVWMvqMhXHz5fGGfTp08fOUFLeguJGG21k9thjD3sNqWY/IQ7nt7iS8ZUoXH755eaJJ54o9/gC1RI1a9bMJtnqsqDXlKpMHh8VTrTo2JVXXllUY1ceas246KKLzFlnnWVbNF2iPr/JEN8t2+Jr1WtN5aqKn1wpcOsYqiVdLTb77rtvpT6/kyZNsrNo+aQWDPXckGw7PiWlEj9vbYGv6FsvF5psiksnvm4qrVq1Crb8UZ/0OnXqBFtu2XD8VSP5+OOP29rriiQXCUoyHnnkEXPAAQckTTIyfXz0c80wom4uGsxbkS8lfZjVTK3jeO6555b6wY7b50utVBpH8vbbbyetuU5GhctDDz3UFrTr1atn92X6/JZUPL4SSyXD6hZV0QkLdJ23bNnStgLstttu9u+kIlPHR/vVWqOkWvfNilKFi1pzjjjiCPsFXZYoz28qiO+WTfHVoqpxYeraq+Q5l+j+o66KWitD4+NSlW3Xz4svvmg6duwYbPmh+1fiuzAXPl90kYI3ugDVPUYrhYaRXIgGRWvFVHU1UcYdZ3qNanFQN6+K1njpvaqgqlYgdTOKO/VV1lib9957r8LJhaj1Y8qUKba7UTZ0mXn11VfN7bffbo9DRenaUYJ69dVX22sqznSdKqlQy00YyYXo3nHVVVfZbnJ01UDUdE2rUktdNnMtuRB95r744gtzzz33xP47F/FCggFvVCC+4IILbMEgTOqffuONN9oEJq5UqNZgbiUDYb1O3dxVY3DZZZfZgcJxptnB1F+5orX3xanLkb7oNUg8ztQErkkJ9HrD+kJWwUYtQapli3P/bzWxq9VGU++GSeMyBg0axHgMRE5dW6+77rpQKkqylb7DlGBoJjggVSQY8EI3JI0n0fiDsGs9FE/9u9WdLK41Kqpp1msMowa7OB1X1WarZSCu9EWsBDCsGuzi1IKlVpw4f9lrNhK1WoWdACtZ0yQBcW3F0GdRr00Du3185t944w1aMRApXWuJz1wuX3f6/KmbmCoP+PwhVSQY8EIFQN2YtaCYDxo4qoJMHG92uhl/8skntpDpg2qwR48eHdsbvb6M9f591LQrpuafV3IZRzonI0eO9NbK8PXXX9txPWEX4MOgVhZ9Jn2dG7XaaQ2RdAYiAhWhlrj77rsvo9ec+sar774eeq7xeJmge5vWrtJgdyAVJBjwQl0Z1A/dJ836EHYtcRhUuNR6B7///nuwJ1wqyH366adFs1HEzccff+w1AVByqUJ2HOm16dz7ui7V7UrH11cCUxF6z1o80icNHqebFKIyZswY2y01qoQ+MZmHZsvT+k9nnnmmnYlNE0Zcc801diySJk84/PDD7e/od6OkVtS77ror2ALcSDDghQpAmtrXJ43FiGMtvm7CGoPg80tJNWrqghZH6hbnsxCobmdx7SKmViuftZ263pXAhN31Lgx6bWGPvShJXeRowUAUVFmgmduiuN6UWGg62Pbt25vrr7/ejrXSqvcad6RZAzXVt1YPP+ecc2zCceedd9pVtpV0aHY9zbSWytTtFaXPuMbWafpxIBkSDHih2kzVtvqkaVDj2FVEyVXYA9tL0o0+ri0YWkjQ55eyjq/GocSRkmrfSa8GncZxDIret49xN8Wpm5Tv4wvI5MmT7Qxmvr9jtM7PXnvtZbsUa2FJrfnSpk0bO129ukUV7xKl55qiXMmIpq7WNOD6f0o49ttvv0haNNTtWV2lgGRYByPF+PriZB0Mt+LxVbuuObN93pxVY6PXV9ZNNVPHR8lFp06dvI3BEH0p3Xvvvf+Ytzsuny+tUfLmm296O/f6ktX71rzsmTi/ZVF8zRzWu3dvry04ug+pK9Jmm20W7Cld1Ne/njdt2tRrAqDPvFouGzRoEOz5n6iuf13XOr+6VyuZ1lTcSnxKJtU6DukkgnpvG2ywQbCVXLbH1/EUXcdbbrmlqV+/vl1EtHiBuriozq/o/x500EF25jY990WJwoknnmguvvhis/nmmxcdE0nn9et3lQzpO0FjRnx2UdX52X777W1XzeKvt6SKHP9UhB2fdTDCj0+CkWJ8EozkisdXglF81WVfNM4hjgmGblTff/99sCd8WnhOi84pkUmIy+dLNWlTp04NtvxQH+QJEybE7vpX0qPuDD5bGFq0aGETuDgmGFF85jVVZiYSDBWg9TfU/XHcuHHmhRdesF221FKrVjUlHr5ruysTHc/11lvPVpaoi8+ee+5pjjzySLPrrrvagnfJRCOKz28ivrr6tWvXLq3/ny6tUn/ppZfaComaNWsGe/+nPK9fx2zs2LF2KvOKrKCfjM6bxgFuu+22wZ5/i/r+k0yy+CQY4cenixQAAA6aWEGVJhpse9RRR9npOrX4mGZMU2uGavtJLtKjY6bETK0/qox54oknzBlnnGH69+9vpk+fbn+WKe+8847Xv68ESgO2Tz/99FKTi/JSC1C3bt3MLbfcYurWrRvsDZ8Kl0qwAZe8goKCoruisl/170uVbqjp9LXO5vhqwWjWrFmw5Y9qxFJtwYjz8dcgsObNm9vnPmlu7rJaMDJ1fLQomAbefffdd8Ge8KnWT03hqvFLiMvnS10LNNDbJ82wotaCuF3/qj3s27ev1xYMdSfRbEqbbrppsKd0UV//qs1K9prCoNrlhg0bBlv/4+v86nfULUvdWLSas89zi/+vHdd1NGzYMHPwwQfbe51E8flNxD/hhBPM+PHjbUE6bHo/Grg9cOBAU6NGjWDvv1Xk9atlXwvjDR48ONTFTovbf//97UyO+rulifr+k0yy+C+99JLp3LlzsOWHWjASY1Oz7fiUlEr8vLW/VJRg5EKTTXHpxNfgzdKa5cOmfvtqLk5FnI+/Ctlt27a1z31Sd6TEF1BJmTo+Sq7UTcj3GAytan3MMccEe+Lz+VIz87vvvhts+aGCxzPPPBO761/rk5x//vleC6FK3FV7WFohu7ior38N/gyzNrYs+syXlsj4OL9qudC8/7169bJdo/Q34J8KO+pCpMHLKvSpYBbF51fx1SKlMQaqVCxWPAqF3tfuu+9uK4eSJeMV/fxqEhC1kKgyIuz3IRtvvLGZPXt2mRV8Ud9/kkkWXwukdu3aNdjyQ9dxoutath2fklKJTxcpAABKUKFMFSUXXHCB7Q6lL2BEQ8de3c+UrCvB81FALotanpUs+/ibarFQS5gGtPumZH/IkCG2O5YPaiXxPR07shsJBgAAJahriaYA/eCDD+x4AURLBVe1IvTq1cvOkBQVdcHzVWjee++9beuIan99099o3Lix6dChg2058YFVveFCggEAQDEqYGqgsRY7Y8xF5qiLmgaAa3G3qGrK1e3HR0KprkRKltLptlJR+ptqBSqrG3FFaUY3WjBQFhIMAACKUT98TUWrGnRkllqStLp1Ov3DK0KLePooNGvMlBbHi6L1IkFTAderV8+useGDFv0EykKCAQBAMVqPSCs5M+4i89SaoKlsoyrM6u/4aMHYY489Up7AJUxqxdCkIz5owgWgLCQYAAAU8/XXX9spwxEP6qamhdCi4GP2KFGCkc5K52HRzEWaOtwHzVRFFymUhQQDAIBiVIutWXIQD1r0TovfRUGtJWFTtyitX5POOgNh0d9u1aqVl65Zmm0LKAsJBgAAxWjWIgZ3x4e6qmmwdxQ0/ibsWnktHqjWC1+zObnob+rv6xG2TK62jvgjwQAAoBjGXsRPVIVZH+dehXwNuM4U/X0fyQ3TN8OFBAMAgGK0SrGPGl+UT2I2pCj4GCeh6XbXrFkTbEVPSZOPxCkTXb6QPdbRRZ946ALUBZPqQ336iv//ZI9sjx+F0l5nWY84H/+ovpz1d4q/5uKPTB0ffZlEMfBNr7f4343y/LoeUXQDUIEjjte//k8UXNd94pGJ4xOFkn8z8Qjz/GpKUV9rByB9ut533HHHUs9jWY/yXv9apyLse5hiL1iwwN63Sr7Osh5hfX4VR4Ox9b0UNiXipf1NPcJ6/WU9wo6veFEo/vdKe51lPTJ9fEo+Uomfl5+fX1QS0n9IZxEYvaB05qbO5viaWUIDpXzT9Ih16tQJttzifPznzZtntthiC/vcJw3E1DR8pcnU8dHUfR07dvTaZ3jDDTc0o0aNMp06dQr2xOfzpSkRp06dGmz5cfjhh5sJEybE7vp/7rnnTJ8+fbz232/RooV58803zWabbRbsKV3U17+eR/GZ1+JeDRo0CLb+J8zzO2fOHHPMMceY+fPnB3uQSTqvjz766D/ud8mU9/rfbbfdzMcffxx6959+/fqZoUOH2kJ5KsL6/GpMyR133GEGDBgQ7AnPVlttZWbOnFlq96+o7z/JJIuvWcr0ve2TZvRKfDdk2/EpKZX4dJECAKAYJTC77rprJK1xcNM5UCVS69atgz1+NW7c2Mt5nzJlSkZmJlu1apV58skng61wbbrppsEz4N9IMAAAKKZatWq2NjPV2mb4o1rfAw44wNSvXz/Y45daCH0MyP7pp5/Md999F+m6EfpbmnbXV2t606ZNg2fAv5FgAABQjAqY++67r9l9991t1wFkhloStPr1JZdc4qXQX5qtt97aSwvGsmXLzMsvv2y7LEVFM2/pb6rrtQ/qNk4rH8pCggEAQAl169Y1F154of2XQlT0dMzVgqRzEMXYngRfLRhqTbjvvvsia8XQ39DY0RtuuMHb39t2222DZ8C/kWAAAFCCCrjt2rUzgwYNMjVq1CDJiJCOtaaL1WQO3bt3j/TYa6yHZsnxQd2k7r77blNQUBDs8UdjL0aPHm1XpfdBLXs777wznwuUiQQDAIBSqJB71FFHmauuusrUrFmT7lIRUIFVUwQfeuihZtiwYWXOEuiLWqy22WYbL60YmpnqkUceMa+//rqdxtMXTUn75ZdfmhEjRnhbDK9ly5alzuYGJJBgAABQBhV2TzzxRPPggw/aQa2aIppa2/DpmKrlQAvqXXHFFebOO+80tWrVCn4arSOPPNLbWk4ai6FuXzNmzPCyNoWmD9Wg7h49etj1L3zQuWrfvn2wBZSOBAMAAAe1ZGgmo7feestceeWVtuZWM01phiNaNcpPrQRKKpTEaTC3WovGjx9vzjjjjMhbLorbf//9vS4WO3fuXNOrVy/byhBmS4YSFnWJUkKs9WJ8UYKhFiYSbbiQYCBrcXND3HBNVl46t5r3XzMaqfb56aefNmeddZbZZZdd7KKHm2yyyb8e6m6TzqO0GK5HaTFcj9JiuB6lxXA9SotR1kPTzmoWoi5dutiuPFonYuTIkXYMRKY/RzvttJNtSfH5Oj7//HPTtWtXuyipZpaqyEBs/V8t4PbZZ5+Zzp07m48++ij4iR9aDPiggw4KtoDSsZJ3ivFZyTu54vG1Am6zZs28NAEnqKuCjlfcVvL+5Zdf7E1+9uzZwZ7wqcbvgQceMIccckiwJz6fL9VsTZ482dvMJar11CrLTzzxROyu/5deesmccsopXqeibNu2rXnllVdMw4YNgz2li/r618DVLbfc0k6N6Ytqu7/44otS10SIy/WfQHy3uMcfPHiwueaaa7xez6Lv+169etmVttWKo2tciU0qr1/3WH3H6vfuv/9+M2rUKFtW8Umv7cwzz7Rd2Fyy7fphJe/w4+et/VIoKgXowkln9gRd3Ok072VzfH1oVWD2TYXTVBOMOB//BQsW2IJQOhd4ulSbqGZgFbZLk6nj8+uvv9om6nfffTfYEz5N3zhu3Diz1157BXvi8/k6/fTTzaOPPppW7HToJt2nTx9z8803Z+T8lkXx33jjDXPsscfaGVx8OfDAA+1AUdUCu0R9/WuVYn3mfRZwNNB6+vTptna5pLhc/wnEd4t7fHVf0looPr/DElRpopab0047zRx//PG2+50KfBqgXXKwud6XCnd6b7rPvPDCC7blR4m39vumY/Taa6+Z3XbbLdhTumy7flQ5pIpBn/TdlZhBLNuOT0mpxM9b+0tFCUYuZFTFpRN/0aJFkcyY8O2339pajFTE+firkK2C0Lx58+y2D3vuuactZKt/dGkydXx0A+nXr5+d89wXFbQ+/fRT07x582BPfD5fet+adUcFTh/0mq+99lrbUpCJ81sWxdc5UV99X+9dlMDp+Cbrox719b9y5Ur73j/88MNgT/jUivzee++VWgkTl+s/gfhucY+votEJJ5xgXn31VfuzKKiQp9Y5Tf+q1ml9h26++eZFSYYSjoULF5oPPvjATJw40bz//vu2t0CxYpxXen3qEqjF+/TcJduuH7UKq8uaT0owdP4kFz5fjMGAF+q+5LtL2a677vqv2p04UMFPN+F0agPSofes7jFNmjQJ9sTLPvvsY2vgfNGaBFphOY7Uyqm+6Mm+fMtLX1C6tspqtcskDYrVa/NJLSRlVSgAYdJn+Oyzz7bfZVFRoqACqFolzjvvPLuQnVrqNXuZHhrro5XGVbny1FNP2Qq8qJIL0Wdc44583d9QuZBgwAvdlNVPU1muD7rRqbbB50wf5aUEQAXg0vqJhyHRRcjXsa0o1bhp5V0fX0I6tlppV1+0caTr8eSTT/aWXKprkAodcfyC13vv1auXt+tScc8555xIC3zIbeqCqsUWM3WvVfKg8Vz5+fn2oS5RUSYUxeme06ZNG+/jFFB5kGDACxU2dtxxR2/jVvbbbz87oDSuNSkqBKsvftgtLHq/ah3w3ZRbERofor7E6TTPpkoxe/bsmdEpLJPReVcLQ9jXpq4lnXclb3Gk16cCiFqwfFBs3VPimlij8tG1dtlll8WyxTBqqjS5+OKLY1mph3giwYA3Kgyqr7xq3MOkGsyrr77aWy1xGFTIPvXUU03jxo1DLWjqvesLT3Hj7PDDDzc77LBDqAmWvuw1sPDggw8O9sSTujKce+65oV73uoYUV33C41zY0Xu+4YYbQm9lULcoDer32fUOKI3uOUcccUSsv2980328Q4cO/5i1EEiGBAPe6Iasgdhh1uSrkDlw4MBYzJWezDbbbGOGDBkSWm27ao7U9UqLUMWdCoLXXXedLRSHcZ4UQwPaBw0aZJO3uFP3wO233z602na9Zx1PtdrFmT7nSiw15WZYn3nF6d27t9ljjz2oPUXkdO/5z3/+Yydfift3ji+qLFTFQa6+f5QPCQa8UsFIc4mrcFDRAocKa8cdd5zthx1Wwc0nFYa0XoMKWxUdmKr3q0HzDz/8cKy7BxWnAbk33nijHYtSkS8m/V/N4KZkTQMcs4HO0ejRo22CVdHrXteOCjhqFcqG614VC2plC6NiQf+/ffv2NrnKluselY/GlanVPBe7SqlVUqvXR7EOGCoXEgx4V6tWLbsuQqdOncpd4FDBSjN63H777VnVVK0ESwlGoiWjPAXtREuQptHTF1220Hs9+uij7bS15R30retFhXQt6qQm+myibmzjx4+3g0TLU/Ou46XrR0maZpTJpsKNukiNGTPGtraVNynS/1OXMK2YrZnDgExS5dZhhx2WU12l9BnUVLm6/wDpIsFAJLRuwz333GMLS+k0NauAqYKaChnDhw/Pypu7EosLLrjAPPfcc3YGIL2nVN6/fkddjVR7PWnSpNjOnOSi96BZR7Syt1pzVBuf6nvX7ypBeeaZZ+yXXCr/L26UECrJ0Bd0qgmmfkfXiKZ81eJPmhYyG2tOdf7uuOMO89hjj/1jLv9k9P61iKAqE7RavY/JAoB0qbB9/fXXh9IqmQ30OdTnVi2xdE1EeZBgIDIqcGgaSy0SdMkll9h1HHQTK+2hG/h2221nbrvtNvPVV1+Zo446yu7PVrpBq5D84osv2tp4reGhfSXftx567+oSpELp559/bpuns71pXs3rTz75pH3/6jqjQmNp710P1VYrGXn22WdtUhrFCvo+KbG44oorzNtvv23HZmiqWZ3j0t67rgmtHqyVurVarmZkKm8LQBzofWrmK32G1Yd7q622KvV9Jx4aZ6OEWveIk046KfQJIoCKUOL74IMP2rVuKjvdoxOVA0B5sJJ3ivFZyTu5dOOrQLFgwQIzbdo08+OPP9r5vlUYUyFDK5mWXEiuMl2fWpF18eLF9r3rnGv1bxWmtICepuPUAHFtZ/P5dcX/7bff7HufOXOmWbJkid2nL23VDqqVJ5XZguJ8fl3+/PNP8+WXX5pZs2bZue0LCwvt32nZsqVNPJWA6LNRUjad39Ik4v/www9m+vTp9l+t/q3uVOpCpwoFffYTtcPZen4TiO+WzfHffPNN06NHD3sfq4z0mVQlR5cuXYI9lf/8spJ3+PHz1n65FSUYyjXWrFkTbCWnL8F0uqxkc3wlGI0aNQq2/NHKnKkmGJXp+Ov/Jmh/abL5+pGy4hd/75J4/9ny+suSSvzi713PVfhOVbYfHykeX3/PJW6vv6LxtZ1Q2nuP++tPhvhu2R7/+eeft2OMKluSoeRCXRu1YKiOYUJlP7/qhlw8ofJBCcbSpUvt82y//lOJn5efn190l8+FjKq4dOKrtjmKWRRUm1unTp1gyy2Xjr8Q3434bsR3I74b8d1yLb4qQx566CFz4YUXVpokQ11xhw4darsyqwBZXGU/v+q+63uVciUYq1evts9z4fPFGAwAAIA0qACuSSjuvfde260x22kiFrVc9OzZ81/JBVAeJBgAAABp0nghrdOiCSk0gUFi/FA2UTKh8Y6ahEOTqWTje0A8cSUBAACUgwrkWgBUXWy0Vo+6wWQLzVq311572deuabFJLhAmriYAAIByUsFck7NoCtvBgwfb6WzjTtOBX3zxxeapp54ym266KckFQscVBQAAUAHqaqS1nnr37m3XsDn88MPtdtxo5p+DDjrIvP/+++b888+3s0Yx5gI+kGAAAACEQN2OtDjd/fffb2eZ2m233WLRbUqvq127dnZ9i4kTJ5oWLVqkNY0pkC4SDAAAgJCou5FaLzQAfNy4cebuu+82e+yxh20tiJqSCI2vGDVqlF0g8JhjjrGvgy5R8I0rDAAAIGRaW6Bq1armyCOPtDNNaTG3E044wTRs2NBrtyTFrlu3runcubNtrVCXLS2cV61aNduSAUSBBAMAAMATFeqVaGjGJnWd+vLLL83jjz9uV47ecsstQ+mqpL+h6WY7depk/8bs2bPt39B4CxILZAIJBgAAgGdq0dBq2ZpxSsnFww8/bD799FObcIwePdqcfvrp5sADDzRt27Y1m222mV1ZWeM31CKhh54rWWjQoIFdd2Pvvfc2J510krn55pvNe++9Zz777DPzxBNPmO7du9u/ob+lvwlkQl5BQcHfwXN7AaeTSf/9999mzZo1wVZy2Rz/119/Nc2aNbP/x6d58+bZm0cqcun4C/HdiO9GfDfiuxHfjfhurvj//e9/zV9//fWvR2Fhof07xSmOxk8Uf6h1Qo90Zq3i+P+PYqkrmZI+n5TwLV++3D7PheOft/aXiq5eXdArVqwItpJTZqwMO1XZHH/x4sV2Zoh0Tlh5fPTRR7bJVCc7mVw6/kJ8N+K7Ed+N+G7EdyO+G/HdMhlfP3v66adN3759gz1+1KxZ03z//ff2eS4cf7pIpUgF/ij6MC5btsxmhgAAAPBLhetEy4IvKkPGcV0Un0gwUqSLQ81bvs2ZM8de7AAAAPBLPVO+/fbbYMufWrVqBc9yAwlGitTPceONNw62/Pniiy9sf0wAAAD4pbEus2bNCrb8UCW1pg7OJSQYKVKCkU5/tvLSbBK0YAAAAPinsQffffddsOVPqhP4VBYkGClSgqFp33zT3NW+B5IDAADAmJ9//tksXbo02PJDLRhNmzYNtnIDCUaKNGJeq2/6tmjRIvPDDz/QTQoAAMAjdY+aOXOmWblyZbDHDxIMlEkJxs477xxs+aPuUaNGjbIXPQAAAPz47bff7Irnvit11QumefPmwVZuIMFIkaao3X333YMtv9566y3zxx9/BFsAAAAI29y5c+3snb6pBaNFixbBVm4gwUiRss/WrVtHMpOU+gO+8sortGIAAAB48Pvvv5vnn38+rQXmykPJxSabbGLq168f7MkNJBgp0gWiRVK22GKLYI8/f/75p7n99tvNqlWrgj0AAAAIi1ovnnrqqUi6R6kHjLra55K8wsLComWjtYJ0OjMYqdBdpUqVYCu5bI+vbLdnz55m/PjxwR5/1l9/fXPnnXeaLl262OelybXjT3w34rsR3434bsR3I74b8d2ijq9WiyFDhtgxr6rU9Umv86abbjK9e/cO9uTG8c/Lz88vSjCUXaWz1oMGJKfTtJTt8ZXlvvzyy6Z79+7BHr8048D7779vm9V0MkvKteNP/P9r725Dq6z/OI5/TyKmOQNvypuVmDMHWpE40YlgNyhF4fSB+UQlF6iUWiCbzkkh5gMVRKn2wChEhSJIS32kmdKDKC0QM/akiEhSa226JbrT3N/P73+5hOn3nLOuc3Z2zvsFw12X8yO6M7g+53fnI99Hvo98H/k+8n3k+3KZrz97/PhxW7RoUda3p5V7773XvvnmG3v88cejO8Xx/88UqQxooffTTz9tQ4YMie5k16+//mpr1qwJIycAAAD4b86fP28bNmywlpaW6E726M3h0aNHhzW8xYaCkQG9UAYPHmyPPfZYdCe7NGJy5MgR+/jjj9lVCgAA4D+4fPmybdu2zc6ePZuT88Y0MlBVVXXXqe6FjIKRIb1IFixYEF1lX1tbm9XX19v333+f0fw4AAAA/J9mg+zbt8/27t2bszdtNfNl3rx50VVxoWBkSItaFi5cmLNpUnLx4kVbvHix/fzzz1lfjAQAAFBIVCgOHz5smzZtCqMYuaBZLyNHjszJIc35iIKRIb1ghg4dapWVldGd7NPq/l9++cXmz58fhvU4HwMAACC1q1ev2sGDB23t2rX2xx9/RHezT6MXr7zyig0aNCi6U1woGD2gaVIrVqwIc+tyRXMFGxsbQ8k4efIkZ2QAAAA4NFrx4YcfhkXdWtytN2xzRbtH6aiBYkXB6AEVi9mzZ9ukSZOiO7mhHwztLKVtcjdv3mxNTU05WaQEAADQV2gbVT0v1dTU2NatW+3PP//MabnQ6MVzzz1nEyZMiO4UHwpGD2ialIa8li1bFj7PJf2AaIhPJ30vWbLETp8+zQ5TAAAAN125csUOHDjQdTCyrnNZLkQzXVatWpXTmS75hoLRQ2qnGkkoKyuL7uSWdpc6duyYLV26NOwyde7cOYoGAAAoOioQKhI6QO/111+32tpaO3PmjF2/fj36itxRqZg1a5ZVVFREd4oTBaOHNHJx//332/Lly3M+inGLhgAvXLgQtlx76aWXwg/UiRMnwsmU7DYFAAAKmTa90U6bGrF49dVXwzPZoUOHwnNQb00h19qL9evX24ABA6I7xSnR1tbWNW6kB2Vtw5ouNcZMzmYotHz9eb2In3nmGfvxxx+ju71HoyoqPVobMmXKlLA1mg4F1Ja6mtKlIbuBAwfaPfek1yuL/fubCvk+8n3k+8j3ke8j39eX8pWlsqA3TjUiofMstKbi1KlT9t1334Wp4j/99FO4rzdee5Oew55//nnbv3+/WzCK4fubuPlFXQVD35jW1tboKjUNA5WUlERXqRVivl7w2v5s5cqVeTVqoBe5Th1X4RgzZkz40Of6N6f7ItILLpPTJ/VSymQLXfJ95PvI95HvI99Hvo98X9z5KhaaBq5i8fvvv4dRCz2PaUfN3i4Vt+jfrOcsjaBMnjw5untnxfD8TMGIIV8vcB2E98UXX0R3AAAAUCw0YqFpWnV1deH50lMMz8+swYiBXlRvvfWWDR8+PLoDAACAYqAH7nHjxoU1IKnKRbGgYMRAaxrKy8vDNClNTQIAAEDh09QoTUnX+WQPPPBAdBcUjJiosaq5PvXUU9EdAAAAFDLNYlmxYkXYmhb/omDERA1WOzW9/fbb9sgjj0R3AQAAUIi0ac706dPD2RuZLGovBhSMGKlkjB8/3rZs2RJ2EgAAAEDh0cyV0tJSa2hosBEjRkR3cQsFI2Zaj/Hss8/aG2+8EQ5bAQAAQOHQs97QoUPtvffes4kTJ0Z3cTsKRhao1Wo+XnV1NYu+AQAACoRmq+gA4+3bt4c3lHWN7igYWaJFP/X19bZw4UJKBgAAQB+nMqHzH9auXcvzXQoUjCy677777N1337UXXniBFyEAAEAfpXKh7Wh1mB7T4FNLtLe3d53krUO9k8lkdJWa/rO1gj5dxZrf1NRkr732mn3++ecZ/XkAAAD0Lj3PaeRC553V1NR0O8Wa5+fuEs3NzV0FQ2sHevto8dsVUv6VK1estrbWDh48aNeuXQv3AAAAkL+0oFs7g6pc6M3igQMHRr/zL56fu2OKVI5oQdCOHTvC0Jo+V/sDAABAftKDt07n3rp1q61evfqO5QJ3RsHIIc3X0yjGm2++aaNHjw6tGAAAAPlFB+c9+uijtnv3bquqqgqb9yB9POHmmOasvfzyy/bBBx9YeXk5Jz8CAADkCc0w0WLumTNn2kcffRR+ZaOezFEweoFevNOmTbNPPvnEXnzxRaZMAQAA9DIViQcffNDWrFlj77//vj388MM8n/UQBaMXaZrUO++8E9ZmlJWVMZoBAACQYyoROlqgoqLCDhw4YHV1deGkbvQcBaOXaV3GggUL7NNPP7X58+fbyJEjw6IiAAAAZJfWVowdOzYcnnfo0CGbPn066y1iQMHIE6WlpdbQ0BBe3DNmzLBhw4ZRNAAAALJAs0ZGjRoV3tw9fvy4bdy4MTx7IR4UjDyiuX9Tp061o0ePhkP5tE5j+PDhGR2WAgAAgO40FUozR1Qs5s2bZ19++aXt2bPHxo0bx5u6MaNg5CG9+CsrK+3YsWPhY86cOWHqlPZfZrERAABA+lQetDOUZotUV1fbV199ZXv37rWJEyey/jVLKBh5bNCgQfbEE0+EBUdff/21rVu3LrRsDeGphFA2AAAAutNZY3pjdsSIETZp0iTbtWuXffvtt7Zz504bP3486yyyLNHW1tYZfR4eWDOZjtPZ2WnJZDK6So18Xzr5N79f9ttvv4Xt0z777LNwff36dWtvbw9/l/5OAACAYqJCoWcojUjoTVhtN7to0aJwSJ527dQIRrp4/vSlk5+4+UVdT6QdHR3W2toaXaWmIaeSkpLoKjXyfZnmq1T8/fffdvbs2TDKcfLkSbt69Wr4pv/zzz/hQ5k3btwIv+pbfdu3GwAAoE/QQ7BKhD70fKUPrV3Vhx6ONbtj7ty54XyxCRMmhJGLW9Ofiu35MB/yKRgFlK/C0dLSYn/99ZddunTJfvjhB2tsbAwjHufPn7fLly+HQqK/Jx36YdZHJlRm0kW+j3wf+T7yfeT7yPeR74s7XwVCU5pUIjQa8dBDD9mTTz5p5eXl4Z7OrNChxXc7cZvnT1828ikY5N8V+T7yfeT7yPeR7yPfR76PfB/5vnTyWeQNAAAAIDYUDAAAAACxoWAAAAAAiA0FAwAAAEBsKBgAAAAAYkPBAAAAABAbCgYAAACA2FAwAAAAAMQm0d7e3nXQns7cSyaT0VVqOqVRpyumi3wf+T7yfeT7yPeR7yPfR76PfB/5vr6Yn2hubu4qGJxc6CPfR76PfB/5PvJ95PvI95HvI99HfndMkQIAAAAQGwoGAAAAgNhQMAAAAADEhoIBAAAAIDYUDAAAAACxoWAAAAAAiA0FAwAAAEBsKBgAAAAAYkPBAAAAABAbCgYAAACA2CTa2to6o88tkUhY//79o6vUOjs7LZlMRlepke8j30e+j3wf+T7yfeT7yPeR7yPf1xfzEze/qKtgdHR0WGtra3SVWr9+/aykpCS6So18H/k+8n3k+8j3ke8j30e+j3wf+b6+mM8UKQAAAACxoWAAAAAAiA0FAwAAAEBsKBgAAAAAYkPBAAAAABAbCgYAAACA2FAwAAAAAMSGggEAAAAgNhQMAAAAALGhYAAAAACITaK9vb0z+tw6OzstmUxGV6klEgnr379/dJUa+T7yfeT7yPeR7yPfR76PfB/5PvJ9fTE/0dzc3FUw+vXrZyUlJdFVah0dHdba2hpdpUa+j3wf+T7yfeT7yPeR7yPfR76PfF/fyzf7Hx5zqa7luAlrAAAAAElFTkSuQmCC;fontFamily=Times New Roman;fontSize=11;" parent="1" vertex="1">
          <mxGeometry x="377.90999999999997" y="491.88" width="49.17" height="46.25" as="geometry" />
        </mxCell>
        <mxCell id="QQM3joWRBrfqUw3WO8kn-95" value="Backend&lt;div style=&quot;font-size: 11px;&quot;&gt;Server&lt;/div&gt;" style="text;html=1;align=center;verticalAlign=middle;whiteSpace=wrap;rounded=0;fontFamily=Times New Roman;fontSize=11;" parent="1" vertex="1">
          <mxGeometry x="370.57" y="461.88" width="60" height="30" as="geometry" />
        </mxCell>
        <mxCell id="QQM3joWRBrfqUw3WO8kn-99" value="Import all modules necessary." style="rounded=0;whiteSpace=wrap;html=1;fontFamily=Times New Roman;fontSize=11;" parent="1" vertex="1">
          <mxGeometry x="339.32" y="610" width="120" height="40" as="geometry" />
        </mxCell>
        <mxCell id="QQM3joWRBrfqUw3WO8kn-107" style="edgeStyle=orthogonalEdgeStyle;rounded=0;orthogonalLoop=1;jettySize=auto;html=1;exitX=0.5;exitY=1;exitDx=0;exitDy=0;entryX=0.5;entryY=0;entryDx=0;entryDy=0;fontFamily=Times New Roman;fontSize=11;" parent="1" target="QQM3joWRBrfqUw3WO8kn-106" edge="1">
          <mxGeometry relative="1" as="geometry">
            <mxPoint x="400" y="725" as="sourcePoint" />
          </mxGeometry>
        </mxCell>
        <mxCell id="QQM3joWRBrfqUw3WO8kn-104" value="Set the endpoint for the react app." style="rounded=0;whiteSpace=wrap;html=1;fontFamily=Times New Roman;fontSize=11;" parent="1" vertex="1">
          <mxGeometry x="333" y="685" width="120" height="40" as="geometry" />
        </mxCell>
        <mxCell id="QQM3joWRBrfqUw3WO8kn-112" style="edgeStyle=orthogonalEdgeStyle;rounded=0;orthogonalLoop=1;jettySize=auto;html=1;fontFamily=Times New Roman;fontSize=11;" parent="1" source="QQM3joWRBrfqUw3WO8kn-106" edge="1">
          <mxGeometry relative="1" as="geometry">
            <mxPoint x="460" y="570" as="targetPoint" />
            <Array as="points">
              <mxPoint x="401" y="813" />
              <mxPoint x="480" y="813" />
              <mxPoint x="480" y="570" />
            </Array>
          </mxGeometry>
        </mxCell>
        <mxCell id="QQM3joWRBrfqUw3WO8kn-117" style="edgeStyle=orthogonalEdgeStyle;rounded=0;orthogonalLoop=1;jettySize=auto;html=1;entryX=0;entryY=0.5;entryDx=0;entryDy=0;exitX=0.5;exitY=1;exitDx=0;exitDy=0;fontFamily=Times New Roman;" parent="1" source="QQM3joWRBrfqUw3WO8kn-106" edge="1">
          <mxGeometry relative="1" as="geometry">
            <mxPoint x="685.57" y="129.24999999999994" as="targetPoint" />
            <mxPoint x="405.57" y="790" as="sourcePoint" />
            <Array as="points">
              <mxPoint x="401" y="1081" />
              <mxPoint x="640" y="1081" />
              <mxPoint x="640" y="129" />
            </Array>
          </mxGeometry>
        </mxCell>
        <mxCell id="QQM3joWRBrfqUw3WO8kn-106" value="Transmit the HTTP data to the front end server." style="rounded=0;whiteSpace=wrap;html=1;fontFamily=Times New Roman;fontSize=11;" parent="1" vertex="1">
          <mxGeometry x="341.82" y="745" width="117.5" height="40" as="geometry" />
        </mxCell>
        <mxCell id="QQM3joWRBrfqUw3WO8kn-108" value="" style="shape=image;verticalLabelPosition=bottom;labelBackgroundColor=default;verticalAlign=top;aspect=fixed;imageAspect=0;image=data:image/png,iVBORw0KGgoAAAANSUhEUgAAAZYAAAGVCAYAAADdbNc4AAAAAXNSR0IArs4c6QAAAARnQU1BAACxjwv8YQUAAAAJcEhZcwAADsMAAA7DAcdvqGQAAO0CSURBVHhe7N0H3DRZVSbwHt0cRCRLFkQEdBVwUEFFUEHXnJAFkWHIIBJUksDsyooJcwIEhZVVxIAwAoKIijAEFVAUEAMIDCDIKDub3Dj/kufzzKWqurq7qvnefvv5/e5bVbfuPee555x7blV1d73nXHLJJf9vNYCP/MiPXP3rf/2vP3i0Hv/n//yf1X/5L//lg0frcZQ/jqP8cRzlj+MofxxH+ePYRf5HdH+POOKII444YiYcF5YjjjjiiCNmxXFhOeKII444YlYcF5YjjjjiiCNmxXFhOeKII444YlYcF5YjjjjiiCNmxXFhOeKII444YlYcF5YjjjjiiCNmxXFhOeKII444YlYcF5YjjjjiiCNmxTmXXnrp4CtdzjnnnNU//sf/+INH6/H//t//W/2v//W/Pni0Hkf54zjKH8dR/jiO8sdxlD+OXeSfc9nB4MJyfDfOOI7yx3GUP46j/HEc5Y/jbJZ/fBR2xBFHHHHErDguLEccccQRR8yK48JyxBFHHHHErDguLEccccQRR8yK48JyxBFHHHHErDguLEccccQRR8yK48JyxBFHHHHErDguLEccccQRR8yK48JyxBFHHHHErDguLEccccQRR8yKc/7u7/5u8JUuh/Tumik4yh/HUf44jvLHcZQ/jkOSf84ll1wyuLAc340zjqP8cRzlj+MofxxH+eM4m+UfH4UdccQRRxwxK44LyxFHHHHEEbPiuLAcccQRRxwxK44LyxFHHHHEEbPiuLAcccQRRxwxK44LyxFHHHHEEbPiuLAcccQRRxwxK44LyxFHHHHEEbPiuLAcccQRRxwxK44LyxFHHHHEEbPinEsvvXTwlS7Hd+OM4yh/HEf54zjKH8dR/jjOZvnnXHYwuLAc340zjqP8cRzlj+MofxxH+eM4m+UfH4UdccQRRxwxK44LyxFHHHHEEbPiuLAcccQRRxwxK44LyxFHHHHEEbPiuLAcccQRRxwxK44LyxFHHHHEEbPiuLAcccQRRxwxK44LyxFHHHHEEbPiuLAcccQRRxwxK44LyxFHHHHEEbPinL/7u78bfKXLIb27ZgqO8sdxlD+Oo/xxHOWP45Dkn3PJJZcMLizHd+OM4yh/HEf54zjKH8dR/jjOZvnHR2EnGK4oKhynnFZUG5x2W8CH2x771jeG1g4pR8yP48KyBfqCM2VfiK4+3W5JzwYudX9pjOnZJw+IvqGyD4zp2icPiK7orcf7Al3mRR8qpyPmwXFh2QCC7//+3//7waO/h2BNIq9lKVT52W8nTOpq2yVAduyRbbg4jv6lOUR+dPbZY0kOQZ+elgsszSXyq57wCMdalkCVXfcrj2yzvwTIFhf0Vl3VL6nPuSN2x3FhmYi+wKvBmX1BXJPqEqiyM2Fs28lSt3Ojym31133nFDZZCtERHhAO6oL4ZW6Q2efzyqXVuwQPGLNztUnlugSXVgfEHtDqXIIDkFvtHxsE6nOu7h+xG44LywQItpqU+oKvBqzzPsiaO0jDIwXaiQLapS1kOxfIq/L7UDlplzIXop+dbR332SLHab+O96bokxsuFR/xEX8/1ZbiAVVuOLQ2qcfape1cICs+UWCIg7aVb9rPgSov8qGPB6R9yhG74WAXFoGSYNoFCbgqrwZkRRuoNentCnLWJVFQlyQG2qfMgeivPOjr41Lr02eOBVf/WoJ19tC28t8VkZMSPn08grSJ/jl4QOUQDPGo9ek3B4+MK2MMlzG/2NZ+c/GIrCpvjEe4ps8cPE4zDm5hSVAFdX9TCK6aCDMR+gI00CaJDLIYbAu6yag8fA0wXIbQ8sxk2dUe+rf2GEO1mX6tTbdB5EQG2eu4sFnOh8Mu9ggHJcBhjEfLM/2rjE3RxyN6htDHY644JcM+2YnTMaQd6JfxbIsqwxam2CMcIP3niNOU04aDW1gEibIr6iRRMhGnyNa2Thay/vf//t/d8SbQF4c6SabySBslcuqYNkXbPzymoCb1ymVbHmxZeUzlUhNdeGzDoR3DJjycT1uIHGVT0Ju+5ECVPYbwaON0Fx7VnmRP8Umgvb5kxCabIv0TH1B9PgZcE6eVR+RsitjhtOLgFpYKzk3ZBIIpwWWb4Nx0oiRQyTFRBPwmXNIvwU3WJjzSPskj8pRNeGjvF7i72kMBMjblkT6xYca2CQ/t0s828mLfKag80m9bHmkfWyibgP6UyMNjKtKnxkfKVPT5ctP4GOKxyXxpeUTeVA6gbXwJ5OCxqV8q5030HxIOcmGJYznVfgKkOnwICegE06bBWaFfJhndkUtHRfilaPN3f/d3XUlCh4yntl1XtFfSF4fIrXz6SuVRbbIpB0WfgJzw+J//8392+319UtI2PNQFm3KpPByTh0Ps0bZPqZwrj8jbhkf6OqY/ssd8orQ8yEmM9rUfK+GgP73hYTuVR/XhrjzAMf0peNTzLZyjP7Yw3zLvNkXtSxYu9CvroH0fz9jkNOGcSy+9dNBjDHKS310D/+gf/aMzzqYvpQ8C83/8j//RBZPA0k7/ofbqp/BPYCp0JHiHuOCbQKa/th/DmH0iM7YAMv/pP/2ng3K1bROGunU8Au1a+4RHkkm1s+M+/tqmPWifyb9t/ESmkvFEZlD566tUG7Z+qfKnIOOOPVLX8ggiX9vEB4RHi8p/HcjmawtFMMQjwMN5femybzxDmGIfbaqN/8k/+SejPMI7cepY+z57tBizT+RWmTio06+FNkqF9vhPhf6bxs+28T8Fu8g/57KDy1ujgINP+rtrPvCBD3QDbidui0zUf/Ev/kW3NUGUviAKpvKnP/L/5b/8l90x2XHaf/tv/6276ksQA72C+L/+1//aHU+Bcf2rf/WvPng0jtjksguLD9asxybywZjnko9v64u55FfZdX9Mfh+fXe3TJ7Piw2n/PuxLvn7/7J/9s65UsJc5op198+mKV7xi134K9Bubv+ZHZIM5e4UrXOFD5Dufuct/ikVlnfwW5B7Ku8UOfmEh3xAVx8DpZAWCIlciAt85QTo2yWFT/uAOgT6yBer73//+1UUXXbR685vf3C0wCUx8tcsV5IibzmDKFVJkB+T3ya48Ura5ArNg9oHsdqs9+1SkviLHY/L70PKvsu3nWLHP/uTnXNrVJJL+sK19IseWjMis25xjn/b8EJzf1D6xv76VS5Bj5xKf5kFf2xbaTLVP7OwKWDL/hE/4hNW5557bXZjlXM6HK+4WlqmYMn/Jzp2L+So/2NIXv4WLY8g5dYeQP6eiyj9VC4uiDjifPM4XOM45FsQJnHXYhv8//+f/vOtH76tf/erVT/7kT65e/vKXdwmgBqs2mTSpm4IE9xi0oave5oYTpJ5OtlGCKfIrhnhnTGyt5FjJJGWv6GMLHFt5Q/KHMMS/5UGXcavDA9SrC4+0rRiSP4QqxzZ+iZzKwzmFfRIbrf4W6863oDc86iIQfWzhnDbhgeNUZFxTQR8eH/MxH7O6zW1us7rnPe+5ut71rtfpVYBMNtPuoz7qo7q6KcB7yvw1bm3pycKGl6I+8Rq7pEyVH5B3XFh6cLYbRgAYbhIl5zuOCVzxfPRHf3RXPwXb8BeYAvAVr3jF6mlPe9rqwgsvXP3t3/5tp9N5HPFTRlyzM6LPhMSn2sHx2cLDvgSyDx5ZXDJ++uw7t097jPEQc+GxJFq/9Nkji8rS9qDTonHVq151dec733l1pzvdaXWta11r9d//+38/w9GWzZbKP8aouDDEKbzYAeh3rATb5IezOX+uQ5W//rL8gBCnZyso2sAQMEuCfA572ctetnrRi17UOc6kMTmcE7w4JXCXKlUXGH8SmnOxzb54sEnLA9Tvi0fGDPQnYcE+7THEI/6y7es7Z4lfWh7OAb84vw97RN973vOe7kLsDW94Q7ewVtuk3VIgnz4FasyGp+0Rf49TZ4k4X2AoQQJ5SUSfO5Q/+ZM/6SYKmLyC1GTJ1bnjpQs9npFHZy3qbfv6zV3o6eNQ6/v6zV2qvlrUfTjs0XKpdX395i7RWTmoV7cPe2SBtU8X/MVf/MXqbW97W/d5pCQvoS+9qAR18Uj+UI6Lyofi1FkjwZokb+tY4Nb6uZEgBN9U87XmGqSQAN1XkA7pU2/S7osHPX368HA1ui8esYdthbp9XBUH7bgTH/u0BYTHh8semTP0ZRExR31T0mMwsMip2wfoyaJXkUXwiH/A/qL0LADnZwGBTA7Bm6uwTOKlEF2ZMLY1WE2gPBZbsiQ5eAyXZJWxO49Dkn3bd86SpJExQ3jUc/HVUoUuepSMufJozy1VyOeT2B4SrzmHR1/fOUvLgy1aHs719d21QN3SRxeEg3pzJndU8dVSIJ8uJdyqXXL3dsTf49QsLAlCgSAwBKqSxJrAcSW0RIAkGOnJRMi+BU2hVztJNMnD/twl4/ZBpP2MP5PDsXa+zOC3A9q0MuYo5NKhOKY3k9TWcbhqwyatjDkKHcZJR+zBDgq7hEe42u+Ts2sJj5q0cWCLao/8pqNPxhyFnVse7BAulUd8N0cht4JeehSgO4kdx9T5RqV6+0sgOjJvo5998K720eaIU7KwxOEJPIGaQFYEiTrBIUA9ptJnTmRSZAIoOCVY6zHgh1O4z1XIow/sZ7yKfQucxdV+27ZP3raFvCA86E2SsO3jUe00RyG7JobKgy2qbVrOffK2LS2PjL+1B07aa6d9K2fXwr4QHomHlkdrjz5ZmxbyMi7IvHSMV3Q6Nm+T1J3Di4zwnwvkVZvTWxdc2yyIzmtf7XJacfBfN/ZBuYDMMBMICYZAW+1chSVgcnU6hKn8E5za+zqzDx8f97jHrX7xF3/xzESq/FJ8Nfma17xmx2MKyGGjIUSHdhl/JkIbBlWOc5mwY/ZooR/ZLdSHg60CdFS/VJ7gvL7pPyR/CPq041IyJrocVz3k136pT5twh1b+OkR+5FR7kK9UOI+r8/qAhJc+LSJ/E0R+uJCRsQY5H/mVax+PwLkh+zh3ySWXrP7sz/6sW8jx0FY92Vl84Nu+7dtW97jHPbq5lEVfGwnf711s8VsH3Mfmr/NkZ1GJ/NgocE6b2Ilu3O1v+maCQ/m68TmXJbzLZ5QChmHYqWDs3KJOwdLyOduVDAMBh+tfg6IiwZEA1nZscZnCnzxtTADtGf4d73jH6jGPeczql37pl7o2+DiXfQ6ywN3oRjdanX/++asrX/nKZ86PQd8hrkFsEXn49dkjkwRyPvabCv1jyyBj7ZNv3C3/2s5WWyWJrZU/Bv2q/MiuPCIbqvy0q221s6116+xfoZ/Y0K+1R0qF44xbqe3atqDNJvaByM/+kGx8xVLiSZvYbQjatPbJOPj+9a9/ffeD4b/6q7/qjiE6lPB67GMf2/1QUpJX76JNwSmP56YsLuQNzV9ynZM/AG9y8zuWFpGFA+CvHTl97fug3dmUP3eRf85lVwl/760eMM5JXUG1BVf9QJcyFmwm4d/8zd90t/rpL6AEUyZZxTr+HGNBEZwCLkF38cUXr/79v//3vQsLPfZNEL80fupTn9r9GExf7cb4D9mHvPQHW2Wq/dM/8tM/8oZQ5Wd8ZKRfxpLjIf4VsSF5fOOX1ut4BJFPhv7p126DPvvoV4s+iY0p/Cv0qe/O6ouxilZ+OAT61v5T/Rt7kO8Ku5UzhMhP/2BoHOvs40fDD3/4w1dvfetbz/CR2GzJi47HP/7xq/ve976rK13pSp1u58xZhXz6LSzrFpch+9BnzlqsQLs8yRi7A8FPDglP8emuaoxDxTr7tJjq32Cf8qeN+ITBABPsCgMp6xwscBJEtiBQBGw7edZB2ywq+IDVfGjStaBPX19Ntth5p5h9wY7TlEKviYm/R4Jk2Pq6Zl/7tuhvq3842Jpc5Lbtx4r2gs7jjsjxWwTnomddwVs/MmzJY4+p/RXtWznG59w6OTmPt37GQQZ7tG3XFTxij7/+67/u/CJenJvCgz21r+OY6tcUcsLDWJR8FX4dByVtanzggscm8UGOeKc3cyyybdfBfHLxl4VEH3MHB3I3QXiEC3nygbm7bt46bzGpczxjO204uIWFE5UEqICYsqgECY4sLuQI8CwuU5BFJROU7rHb6DHok6DOhLGP21gxhvQxwdInPNr2fQVvW33c+dknhx0kJOOs7fsKHqB9eJDrLdJsnInY17cteOtnP2MjFx9y2vZt0ScJL/Ygz/im8HBeO31wydjI45ec7+tbC93aJ55i38TcVB4SaewBsUfbvq/oz394xB7izLjwWcdBSRu8q19i4ykylMyxxEeOjWcq9MODTeyzrflH5tR5q52LBjYE3Kqfp4Bu/Yw9INeYThMOamHhwOrEBG518hQIDpMsiY88ASpQBfwYtM2iggvdJipZ2/AwUSQdMgAPwU+280PFeW2TeNXhQA6btO3HivZJYuxBHjuQbfL39UlxXvLSlm3Iyng25cF+eGRhjD1qchwqdLs40N6+cSQRbcND3ySd2DqLRV+fFOdzwYFHxmPb136sxC+JUzLZgXzo65OSdnhDFhXyjK+vz1DBgz/11zdjZA/o65OCs9hIfMSWtpuC7sxbssnAYYo8582rxEfk2JK1CbTHRSEr49pmTCcVB7OwcFqcyKGC3XbToKhI8rEFQVcnYwscnFfs02/CJYnitinwV8gQ5GSYhHl80we6cUzCDY8k0W3QjqXV0QdJIwlGe/3YM8lrG+jHDnjYjz3oGePBXtrhwZ9kKLvwqPagwzjpsN8H/NIGb/q3TV4BHuypGBcd5MfmfdCGvcIjcU7GLjzYgpzYI74fivu0CQ+6cR6y3xTQbRyJj2rzIXvQJz5iM/bQn1+2ReYtDrbGl3IacBALS5yV4OTMlF1AVia/YCM/gWpbISDVmyj26a6JZ9eAqkkIkjz6eNSEXyea/V3AHlVWq6uO0WStCS6T1Rh29UufbenqW1ySvBTtYg9lV3u0PDJmNjHmimoP0D7+ZNddgEfGxM500zPEoybzORaVAA+y2CM8asIO6MUjHB3TzxYt320Qv5DHzmJizC94xC+J07n8Qn+VY6x1e6g48QtL6yjO5Mhdg6Iik0+Q0CNQTU5B6VgRmOoEbiZ6+swB4xHsefwCSZjhQXdN9HTrgwdOcwAPE6/aw6RVwsPWMW6OtWMP3OfyCzk4kFt5SGTVHjVptAlnDpBZeWTsdOIQHmwRHtrFj3PZIzFnfPbp9GiHTvuAW+7c8Epc6zO3XyqPercItnhVHtrjPxfoZuP42tj5IIsLvalTIH7BY057kItPZNJ96DjRC0vroDhvrqAIyBP8SQb0CtB81pHgtI+DwNTW/pwIj/pBuglq4uaqDA8TxvksREvYwxglkIyRbiU8kli11U5ZgofxJYlVv+DBLkrlgTfbzInwiGz2xyMxkWf34HziaG57sEG9kDDuxGbsUZO5dmw3N2Lr+Jw+Nkh8ZFGBzKslUP3CHpmrfIFHbAPOm1fazu0XID9IPB4yTuzCwjkVHMdZSzmM3ExGWxCgvmoqOLOomKiCuQbSnMBDcsoH6WCS+oqnxIGHNkn8S9ojC5ex8gceuUrO5HE+iX8J0FFtHh78ggeo3wcPOuriQn++AswvSaLstpRfjK8uLvTiwR7swj6JY1yXQvwiToFe8ZkFxnH8kjheAuGh2M/ikkUW+Muiwm5Losae8R8yTuzC0jcxl5qsAfmZtAnCJA3BqX7J5BXgUZOUIJXI8KA7SWNpHuQnSdkPj5o09mEP8rOQ8gPEHvv2Cx5ZXKo9EjdLJtHAOOljfzzYAQ+oi8rS8yV+sbjYDw/2wGvpRSUID/paHrHTPngAmy9t97MBJ3ZhabFPZwnOVl+SaRLb0qCfLjpbqN8Xj4w59qjbWr808MgiC1XvkJ2WwFAMqMdpn/aIvtgEHEui++JBTxsH9vvql8SYX/Ztj33p+nDinMtukQfvyRjAZJ0KAZxnyVMwh3x1Sp/DluDvascttMcL9l0J6QdjVz/aaO8O5+1vf3v3rjAvoQQ8I0Og23eFfatb3Wr19Kc/ffWxH/ux3bmK8MhjODJs8c8V6bqrsDns48qPLZSMAcg2Bq8smZpA+uSPofLHgy3ymCVIm9zNbCt/CujNI5Y8uydDPd3swS98nHO72n8I8Ys+1R50h0ebaDeRD+v4kxcebJL4V99nD/+u+8EPfvDqT//0T8/wViB2BK9Duve9733mlS7p7/wQ//CofgEcMl8iZwhj8vswZJ86poq55A9hn/JP9NuNQ91WERjVWXPzp0NgJpnn2L4CknluuSuX8PNuq7/8y7/s3on0rGc9qzunnfOgjX0B/xmf8RmrH/3RH11d4xrX6M4FdJmoijHiTYbisUP64+HcEHa1j/6ZrHSGR+zhvEDDZd0iB+vs3yL8bdkiiTS2t4+Hffotct7dNBWtfcgD8oZgDLhoE73kKM5JYBIZjq38dZhqH3ItcIrPVlq/2O9LptvafwgWkcQp29FHfmIDD/EaHr/5m7+5uv/979/9227tU0Db7Hu78Xnnnde9hJKsjGGIP11iVHyA9gpe+NtnD0k0svqwq30yHmOBbIO57d9in/LHl+izHDXYgCHq8Zwgty4qAtCEMDGSwLWRSH1Aqc0SXMilwyQxXjwkLx8+1m+LmTR4LGUTcmMP8uk0OSXvPFMHPHCVZJYAe9TFrfKwoOERv0i0m/LQt7Wf49a/jsnPFRs/sAOf4OGYzSrXJUBH7prooJc98LCNPfBQluJRFxUID34JDxCjsdkSiF/YHOhlixof2jiPh/25wcYpQbuoHBpO9MICWVziNBNr7uAgW+CZiGQLxtwR2JfYTZZcleOQpD4n6Bb8uNg3djwyUZPMbHHWNovcnDCu2IMePHLlSbcrv7q44KHt3IuLcdUkSh+f5MqTbZI8QLtNFpfElPEZgxctuoKLLrAffycx0Y9HrsT5pyYxtsBjbr8YV7VH4jL2sHXMR3THHhnnXMDDGFu/xB62jtk1Plxi3pLnW3l4gHFbVGKP1i9LLC6xbbbGfBpwEAuLwLDlPEGRMgcScCaK4KerJnOguy4ueCT5CtS02QV4mCB42CevJg0ID0ldPR70Z+LOAXLICw+6a9IA2yQP+9rhoc+mi0tsmZIJar8mc+Pml9YeeNTFJfaIX4ZAj/7ePPwrv/Irq0c96lGrBz3oQauHPOQhqyc84Qmr3/3d3+38QTcexqUPffFLfG5bY0YfsaEfGcaiLmPbBvSTmWReF5XwoNsxLpIsvbEH/XMgiwq5eNAjDugN8KjxgYc+SrjuCjLzluXYgz7bIDxav8Svu4JepfrWdq4xns34+9l2wsFRAkOxz5Epu0B/wS7YBCr5grAmqoBek8d5wSuATDJBumky7QM5Scx042BSmLgVeNSkgoe+kseuPNiAnEy86Bmyh3pFO+1N8owhE20MmYTGmOK4jwdbKC0Px0ke+pOJR130W2hD7nve857VM5/5zNUP//APr372Z392deGFF65++Zd/efWMZzxj9YM/+IOrF7/4xV3ySns8jLcm8yA+wyMcww0v+/pMsUsL9uxbVMju45HFRTu2jF+MYRfgQU6SuXG1yTyIPXIeD/3xbTlvihofeBhvFrcxe9jXV7/E1i6gOwXmGNtJwUEsLNA6TYAo2waHfllU7GciJBEMIZM6kymTdiiJjUFA0m3CCXTjobtOhD6wQyZTeGQsZG0KPOjOOHAiNwl7jAeeivb6xR7kZcINQX9tfdnhzW9+8+rP//zPu//3YQzhwR54KEM81Nc29OrfZw/n6MXvJS95yepnfuZnVr/3e7/XLSA57z8cPv/5z1/9wi/8wuqNb3xjx0EZSuYB3WwRv7zvfe/rPqh+y1vesnr3u999JrFuAjzrosLvU3gkhuIXdk6MbQp6E6Ps6jj2oGeIh/rER3xnq++mdgjwiD0g9hjjEb+wGd1sYBxksM2mMH79yEn/6N52XCcNB7OwQBuUnJqyCQSG4FT0TeAJUPLHQLfJKnloS1aSmEBzvAkEd/riYYKQbX8M4ZHPXBxvu7iwgb6KffLYA491E8V5E1Z7fIzfmMgasweO73rXu1YvfelLV0972tO6O4QnPelJq+c+97mrN73pTZfjkQVjDHjgq338gocrWzyCjMc/vHr2s5+9euc733nG7s4pGcsf/dEfrS666KLu/LrkBRkrfcZgYXryk5+8+vEf//HVz//8z3cLmM9xKp8xaJfHaWTTj5syxgMyJm3t61/vAjcBHvqFB/uyNb+sA904ZG7hjVf2NwEeiXHIPFznF3AeB5z1y5hyAbMJ2ED/9Nt0HIeAg1pYQKAKykwWDk6ZAn0EpqDSJ4E/JZkHAimTK8lUojRx7U9BghEXAVp5TA1U7ehvvy2WhWoKF+1M1iQNMnCYkrwC7UxYEzc2JC+LS4Wx0vO2t72t+7fM97jHPVbf/d3fvfqpn/qp1Y/92I91XzX9ju/4ju4OxqK5CQ8I9/CQOOpnJIAX+e5G4rMsxnQp7OnzFwuP81MWFefZ3r/gfehDH7r6ru/6rm5B8S+qv//7v3/1zd/8zd2dkLsy7ccSGrvlM6boNy5lKthAv/iFHPw2iVN2SXxAjfupiD1xj179E7PrEFvhjX/kiXtypsgA7XKBwB5kkmeMY76o0C7tyUshbyqPQ8DBLSzAiQlKQWcSpowhEyuLSoJdsG0aFNrrXxcXMqdcASUQFbDFAZdteWRxwUMikJTwcDwEEyT20I6sfPsr3KZCXxOWPdKXLXBJ0mYf5ywq7lK+7/u+r/ucQ7uMW9L9nd/5ne4q312F+pybAm3ZsiZT45OU6AHf/HIn4t8FQ+TbGgM7Bur4d509IuOP//iPuwXlta99bcefTuO3/Yu/+IvVE5/4xNULXvCC7t/8ktkXs9q3i4rxTLlDaEGH/mLLuMRE7DEWG4AH/4UHWfniSMa7CRKfQRaXdcC5+k8/PDZZVALt2ZE9Eh/mANlj81a7Or8dk0WGctpwsCPmVAEep3K6idA3USETKouKfjUBbQMcTAwycKEDh+joQ/pkUtAtyLdJ5kFkZtIDDpLTEI+aNPCm26KwKw/6Y1NyyZcU8FH3jne8o3vk5Q7FIqJPErfJqrz3ve/tFpc/+IM/6CY9qJ8KMtm0b5EDn6f4FbitthAe7Gif3fzY0lsRjGlMf855zPXqV7969cpXvrLjTQY7052xXXzxxauf+Imf6L4ooD197BRom0SnfexpG66bgg34lRz68KoXH33Au/LQb9M7lT4kJsiMzROzfcA1i0q1xy482IOcuriITzr67OE8HuGg6Mcmia/ThoMdtaBUqnMTtIKgIvUmk3PaC85dkmiQyRF5go4uaGWHr2IfBPcuSSOoPDJRM2ZJoiKJxXm20W/XxS3AgxzyyKVLocdnKk95ylNW//k//+dunx20oZPdtMFVsej40FvyA+c3AZl4SIb0hINfqnulyOte97ozi1Zsp4B22l/rWtda3fSmN+3Oj+nPOY/OfAEhC5Z6crK4AF7a+NLA8573vDN3ZRk7v0hy+ib5zREf9JKTpIwXPVkAA3rxqIuK9nMsKhD5dNrHK3FQxxibJE5jj8T3XPbI4kIXeyj2A3rjQ/WOM4f1O634CE4ZKgzGuFMLY/bJGSpLy+dogaYkkZEh6BI4mQwJFpycSzD1yU2Zyl8Cw8EdQyYO0J3gwykBmUmhbX7QNaWss0/VC8aXQmf4OKbbPrvh4JfKdPTJHSpD9mEP8sjNozWPfnzW4BGYb4EZS7VP7EamfbCvTZ+OvtLap/W14tGbOwrf/HLsHB3VZpKLvp/wCZ+w+uRP/uRB+X1FvxbGo55coPMNb3hD91Vn30xTT7/xW5TiR+34zfGQrjr+KSVxiBO9Flo6LSSObT0qtKDTa0GpfuyTmTIlPuNb+wp7Jzb1t2/c2Xfeucyv9O2T35Z19knsk2ufPuNWsqCxh2NbesnEyXZT+0+Jn1rOZvnnXHblN3ippeGhvLtG3yQEweucieBYkNgmaeQqZR025c/gJqor7e/8zu9cvfCFL+x0CshMHnozWW5xi1t0yeWa17zmByWMY6p9aiIzIR0bM3vgyB7qcMnCjN9U+cE6+8Tm7k6e85zndJ+peBQEdCv04pJJC46vfvWrr37oh35o9UVf9EVnFmxtxzDGX3Jg8z/8wz/sfrfy67/+6519jCFy6SCDja52tat1XyR44AMf2J2DIfnhZvH0fjgvUTQe9UqgDX0mKbCNhYuez/qsz+r6uINJIuWvMWwan+GfeSAO7ONFH72pV4fnVa5ylbU8gjH7g8ebD3vYw1Z/9md/dsY2xpB54ZjtH/e4x63OP//8bmwSOh5iACfzayqm2odeY86iSo8x649PbIRjuDre1v5TcTbLPzX3aoyUVZXTGUGgKAJDMEiuJpD9uVETiODDA+gSpLjhpR1uAnYpJOiTLBxLGCbl0KIyN4yRDh+Qv+hFL+oWFY+KYgvnYg8JNYsvuNu55S1vufqUT/mUM1epu3JMYnK35GvEgEtiQYzgbAsS/o1udKNuP3VDCDcvTcRb39hdSWxkrPE93b6ZdsEFF6x+67d+q9MvRtlnajLfBvSSn7mAl7hw5yJOcFbvPC5LotoD6FOHB7Cju4rYcwmQG7sHdeEF9sDBdikeJwmnZmEByTTJwmQxUW0dZyLtIygEYPRD1aluyUUloBMPCTV8UtjDIw6TaQl7GCMdEpV/HeBbUu5Uoh/otZ9FRftcAHzSJ31S93qVK17xil3b9NkW6e/Dcp9vtFxsccYjicSidsMb3rDbn4LI+sRP/MTVN37jN17uLtSYch5qDNDnCt4d7qte9aquHb+sW8x2BU4SqTlh3tAXnc6JG3NmH/OF3iwkwAZK4jcXi0uC/Fx4BuFB/3FRuTxO1cLC6bUE9vcRnEH0CMqKBOo+ebQcgiXsQZckYQJKFB7z+QZUHn20ybK2t3XsXwn4nx0WlyyIu/IkA9761rd2dwjRCc7lPNDl/4BYWK5zneucqVuH2NrV9W1uc5vukc/1r3/9M2OmL3qiM+csaL6m7EeiFhcgL+eXAk7VDhWp3wdijz4Oyq7+3wZVp/2UI/4ep2phMRFz1VmD1LErxH3cKYArUkHYTk51+1zg2MLtvG0Fe6jHcy7E3sZmUfm5n/u57geQvjLMDn3jduyq2VZ/Cdmz9c/+7M8+c7Xc9tkGkeGzLwtLK9Mxfik3u9nNVh/3cR+39cJ2hStcYfVv/+2/7f5Z1Y1vfOMzC0TiodojduMLi4qvYfu/JeB8+s4NesUFX9FBV/goc8fHGNiDrVs7018fRy2J2KPmCHU44aHsg8dJwalZWGpgCADBKmklOagXpLaO50YmJghCOnCwrUGZSWS7FGILSSOJQyKTrJPI2SLfdNkV9Cnk+s2BX5f/yI/8SPcjQXV0ZrzVHs6pt/VFhvPOO291hzvcoXskEXm7InJ81mNh8Tsax8Zd/cQnbISruyZfHkj/qah8/cO3r/u6r1vd/e537x6ptf7PwqIeF3oUn7U84xnP6L65Ft2bcJgC8oy9zgd8wgsn58SOdkuCPehUgO7UsQseSuy3BIw/+SHj5Zt60ZOYndsXJxWnYmHhbEGYCSowBUU+R2gXlySUOUGewFPoiQ5bE1RdJodJg99SiE5jxYE+z47z1UrHJozzFoLYbVvoy+a+eeV1Jv/xP/7H7k5FfSZnJihdbFF95UNy/1nw9re//ZnPF9TvCvKTDHxg7zUudDu2TeJ0HC4WhHPPPXd15StfuZOB9ybQnhx6/cDSK2vcheXfT7NHTaKxh6KvOouL19t4PIYf4DcHyCGT740f8DFXxAb7O9bOhYd2OC0B4zU3FaCHHRy7CMID1/zAdikefJC8APyXizBc4hftbOfyxUnGqVhYODxOFxQCIo9S7GdxAcEz15V6Bd2CP99CA7pMFFBnvwavMneQGhceCtl0ZIG1b7JaYGzZBycTd9sJEx30ek2Kr85K4uT1LSqxe2zjzsBXen3d1uKnjrw5QZffjbz97W/veOGQ8dKXYzHz8R//8asb3OAGXZIF3LdBkqIF6uu//uu7d4f51pixkUlf4iG24bP4xB2L/wvj9Tfawjb+aUFfFhW6Eh/mh302SKzQJ56VOXRX0N0ussadsWYOO093fluS83OBTvHPLkBf9LIBu+ASe9TYOc046IUljhYUnC0YBEESWiA4Mnkgk0vfOUC3iSpAcRKE6gRthbpwBRx9c2quIDWeJI3wMO4ssmDLTvkKp3ba44HXJly0jVy/C3Gn8vrXv74bYyam89rhpuRY8eG4hOtOBcd83bW127bAQ1L0NecsLImXCsfqLSa+LmwBwIMtdwEbGOc1rnGN1Vd8xVd033Rj93CIHQJ18R3e/tmYF3J6UwC7xXbbgl5jin35x5jrfLHli3xbjD59JPZddFfQIfbIh8yVzItAG/yS1NkEl7bdNiCPrY0rcY9PFpVqD8fHxeXyONiFhVNNRIWTOV0ACMYERZDgkGS1A8GRx0C7gG7BLujt05Mrvj5oUxOLfX135RE5maD0Z1FpuVR7OA/6mWR4TUXs7IegP/qjP9pdZZNDtgIZb8ZnzIpftT/gAQ9YfcEXfEH3yCiytKvJb1voTw5dvpWm+B0PPuqATsWxcbOFx2Dsoq8yh1/EmcXqa7/2a1f3ute9uh+l4Udv9EN4OIcnf7z85S/vXsjpsRjETpsCj8QHPfF/LrYq6JBIs7jgVJPwLhCLZNf4yHgrYhNtM2+1yYK/Cw+y6WSPzEN68hiwtbHj8M5c0i99TyMOcmHhTEVwKZxtgvQtKoH6TKYEtcDYJanTnQREVniQnwDsg350hr/Jkkm/DchKEiSPfkmhb1EJ2APXtINMtik8Yn//yMo3wPxfFX2rzoyTbQL9LCrf8A3fsPrSL/3SM4+H8rgyfdgEj20mrv7xK3l+be8fbcVHkBhiB1s2cwflSwQSiLab2KMP+sW3eHj32N3udrfVXe961+4RYMaWmA2n6LbvLu7Xfu3XujciG0PaTYW2sQcujhMf7D0Edkqy1Q4nMZaxbAtyM//i6zF5bINDu8htu7gYf/xKNxhfxhlftFCv4GBLjoKD7WnDRz7mMY+5gDH6Sk0AUwv0yeorS8gnM86Ps0F9HD1UnE9gp31kCCql1QV9sgSlK1FFoEaGxCoZSLS+2grhCNknX6L5wi/8wu7xSBaGoE+nApWfMehnwoFk4PFBXUD75KRkUkSGQq6xkBVdtcSG+vpXvn4E6d1bJn/G1/IC53x+4QNtV+8eEamjJ7oq6HGerD7ufYVO/qCXPEnISy89omPj2CzIsVeXfP7nf3632NGpX+QpoJ1zscNY0RYPhRz96KLnete7Xnf179FcXiFSOYFjhR/EGBnXve51u68va6+ePMjY28IG9NOVRKyfeEt8TCl4xJexbTi3OqFPhuLHqeaFH6pqG1lAXvA5n/M5q0/91E/tkr3z9Divj32IbVL69PXZx4LCnuwB2uRiKLL7ZKVEl204V/nrCrQyh8o6//YV6JPVV3aRf85lxrp8xBZw2kl7dw2ZCTZbQcJANTCHUOXnSjJJQ2LLVVxkDfFn4HrVRK5+JqxvFXltyMMf/vCV90YBeXFDAtik+fRP//TVD/zAD3TJhjz15GTSt2Nq7YM7DsYBzhsD2fpOtT+9ZOFAd/jlKnHItmz/kIc8pHu5pGRhgib4atIAMsl+7GMf2121+5aU8+QH2hhPEqnz5JBb/dIHfZ0njwxbtvYIzFd+fcYC2mgbaEOPH2Qai9+f0EVGFhd94t/62G4IbMknErqLDH3ZUoxlzL6h5vHhf/pP/6nr0/KKDmO3bzHyzTnFcXgP+Zcs5zMOfejf5t1fbMAPZKkjS3woeATG1c5fPOJLr/Z59KMf3X1mhJO6jJnM7PsCyHnnndfdzeobHba4Jz70cRGlrvIIwh/Ijl8yBnxrjPfxHwIZbJJ3l9Hfx6FiE/lQ+U/BPuWPj/SEQTApgiSBoNjfFIJRojPpQZDUhWYI9Kdtgj6yNgXeJnsWEuPibAnJNhOtD5kkCuBRF5VNoD07mKSxp4mfCTzEI3z10T962aflj593gHncJDj7ZOqPvwROJuChjPmFLDzZTVvH7KrOvwP2/13Ukd/qxRMsdK6SMw62TNLRJ/ZeFx9phwfon0Ulum39ut/jsPgrtmtBnoJn4i5+GYP2dVFhf3GGx6ZIjOMae5CNyxgP7fDAV3vQ3jjW8e+DceCQD/Sh3o2NITziv8wX4xmy/Rj0UwJjjX9PAw5mYRE4CR5BwalZFLaF/n2Li20f6DdRtRFECU7Bvi2SVGryoSeLSx/a5IVHrty2mSSgH5uSwx54kN/3bTH7ij4Scr1KapNG7eeuxnvDfvVXf7Vrh3dtC2SyQ00e2koeSQot2Im9cj4LvasxH34bQ+wS7uEPvhJ8k5vcZHXta1+706leSTJVp/26+Mh5dtO+xld0kuUq1y/sfTaVxO8cRHegvfFZiNiaj+gYW1zYgb3wIYsM9mTXKnsT6NcuLhlvHw/n1eNZ7aVuiPcUhIfx2KcHhyEeQL/4cF77+MU4trUHsKtSscvYThIOYmERDCnQ59BtIKjq5IdMljoZwOSWBHJ1RL9Jlsm6S4BCeNTFpV5hBXVR0cbkSL9dbVLtYfJCJmW7yDlW/Eo978TCCTK5ql2MSXu/cfE6/F/4hV/o6pxP+0BdFhfjcz7jtk0cQPyVev3wJ8Pr+v1HR3aE6KsFPGbyGpfoCpxnh3rnMhQfqRcf2rVxFd24+Gdn/hd+3gLgHIRPwJ9spv4zP/Mzu2+sAY70kNX6hR2yqJCLdy4WdkXskcWF7oy79aFz4iZxqp+Sse6C8MjFR7VH5UEXfrGT4+rP1t7bgH6FLPKzPXSc+IWFk1I4rTpyDpDTJoFMFlsQrCaIIkDpN7kEqX3YNZjwEOz1zqVNpjmuiwoeSnjsitgDD+ODag882MCx4geFX/ZlX9a9Kt55vMa4OP+a17ymS64++I9f1VcbqqPf2PBxPuNPkqBPQlEP7KaP4hUuPleRvLXvQ/R55YrPWPpQeRiXPuwfe0Dsox4ST/iAPvq6U/GfI92p+P/3Y6g2YV/Fh/fqEx/0GX/Gxw7topIkOheiP36hO/bAF/CQzMMj9os95kD8ws7G18cjfol9Etfa6z8X+Ja8KtO4DxknfmEBTuI0Dpw7KIA8QS/oBB8IykyOTFYTxvmaaOYEHkkG9DjO5AgPk8fEcd6k0nYJe0R+kgHdteDBHq4a73jHO67+3b/7d2deuDg0qZxjMxPdq1/yD7eMrc+WeLBzkhi51R+2WVScr8nL3Ur+9zw5rY0c4+NzH19/lrRT3yI8ksQgfsHBlj20w4NPxIhjnI3NQucRoAXVopKYThKsSD1dt73tbbvf+7hbcRz59rWp9kickJ04Yg/y5oTxkFv9YvyJi9gD2AEPmJsHeTU+2KP6JPNXO+fjv7l5wBIyz2YcxMLCaYK5L/nMiUwCQQi58hKokqF6E0qALhVI5Ar+OglMDo8V8DCJ8ciE2hcPkCx8XlF5gP+b4or6fve7X/c5xRAn9ezIj8bkMZVf6/uAPYmZ3BbGyS/xv7bsQQbglyQarr6Z585IsoncFIgsi4p3lfG9c0PcofLQNjzCPTy0A220ZTP/gvj7v//7u1f3h0O4VThWbyw3v/nNu29RedxIrno64nv76lp7JIka01IwLvLDw5jEhbFWe+CROFkC9LBN/AJsgYf5qy48bFt7zwmyl5R/NuFELyyZgPt0lsmSyUC/RGiLg8kugJcGXUkOmbTVFplIS9slPHxLK/aA2AM/icWxr+H6Tc63fMu3dF9prXyzD47Z1FYC8toSXy/9/d///TNya/sgC3qShzaKY7aoycsjJ1/nVSReBchOiS6P8HxGBH16W8T24RHZ/KQ+i4p68o3VjxstKn7HkXPRH+Q4HPw/GP/i2KJCpj7RqV10JT7CQ5vE79LAI4sLvThkbHglbuo4lwD5OBh3RXhkHi3NI9iXng8nTvTCUrFPZ5kkArEidR/uoKEfl33y6NOFQ5KGfXDn4rHYN3/zN3c//jSxFW1sgxxLQhYXj6we//jHd/8TPUiiDKKnj0vqosNvV7xd2eOQcKuIbgnHwjL2GKwP4qCVq2/lkfPPfvazV0960pO6RQ4sNC3S3la59a1vvXrkIx/ZvZgzSbtPX+JRn9RpV7nsA+28iP5w2QeisyIc9skD+GOf+j4c+NBZdcKQybYvmPiSXR4rJEDa+qXhNj6P4GqQSoh5lr4P0Jdv1QT4tPXqTGA/avPrde/E8s+yatKrfoxfyTFOr4r3bTFbbdv2xmvc2gdpo77y85oZC0tF9IF+kqFHYD649zlR6tcBj/gF0oe/8MhjIPCL/6c//endK2W0x72OKcg4FIuJz1Q+7/M+78y3nvp44UEXuTmvv+PKb2nQE7+0PNq4WQr0sQUeLeKXGjf7AE6HjBO7sHBMnVACdGln0WFSKnk+64oxV+ZJ9rZLwRirHhNCEvTow2MHPJJkl15c6M9nTC0PPJNkYw/c2OyqV73q6qu/+qtXd77znbvHTPFb9Wf2M+E9vnrxi1/cXd37YN/5tEkSpYcs/sADHz5zHk/QLv97BdqYiUwyfCDutTIwJfFkvLF7Ho3iob/62Ow5z3lO90G9f3amD2hTbRDgqHizsgXZXV9+G9S21y48jDX2yGOx8HB+6aROjziMX2IPfOpcWppHFpXKI48DEx94TPHxLqB7aR1nCz7y0Y9+9AUGO1S6RpcF5JQiaUCfnKECfbL6ypB8wSFobJV6Dvpk9ZUx/pkkkoJ9kEBNFIHaTnBBq1TZinZ+COjbTn1vpM2+vh4X+dDb5xOVX8YK+cwnEwXXTJbwTED3FQjHdaXax2T1IWiu9vDGBQf7dMcv+qpnJ/vOeyzmV/a4+RbUBz7wgTPyg2oX/dj+ne985+qSSy7p3inGLnRHl/4SqCv5JDAy6AA28roQj59e97rXXU6+/XoscXtnmV/b586AvNiiLXTE5rGH8SrhCGzm0Z7PVPyrYQmNbG2gcgByyb/pTW/ava7F51TGnSSpXwob8Etd7HHGXyEnoIde/DKu2L/KXFcgNqjFuer/+EWMOJcYZhfjoFsc+O+i73//+zu5FdUuvgn3aZ/2ad039qpf+viLz3yhBLTJIhv7gX1yUjKOWnaxj76xeSs3ZRf5U8o+5Z9z2SQdvMzXuP5qeh0Eyr7fXSMgsjWgOFCZi38mQCYruSakwI585wVxEojgTLLHBT+TyZW3305ccMEF3Tu0IOcBf/smoHeFPfOZz1xd85rX7M7pT0edJHSYKGQ4b9GSWHCubcKjYlv70IODJAbk4MAm4a+tNnRnPPa1zXhtfWD90z/9092diP+Loj4lfLNPNrkep33lV35l91kN28Qe9LdjdU4yx9k579568pOf3C0suGTyQHip9/sbdxR+eJj6yKxQjxObJ4nFHsYcOK+t3874GrX/W59FORwiv+oKF/+X5su//Mu7sSXOK/QxRj5R9KffWwPCQ5vED85k4GkRjm13nb/VHuGhnQ/qQfxr4xweODtvLnkLgi93+AxMmxQgJ/s+b7vvfe/bvW2g2qLy15bszIXwqDGoH9toQ44659Vp02Jb+5Ad7hC+9FXMYf8x7FP+5aPzBCLOsVU4sXXkLmCsLBoJYoFnMlZIarl7gQS1LbRBtCnIaRcVV4BZVMC2LmhsgLN+xrGrTfQnB4csoIIvSbROGPX4JclrL8GHhzpbn7Ocd9553d2Bu5j0z/kc2zcW+65oXdlK0rjQVcetTYBXeEj6+vgNC65kpkD0aO/1+B7Zpa7KrDAefq72EAf0Bvrjxg8WNF9CMBaxErnZtrosKj5T+Zqv+ZruTsX52LlCfNRFRZsaj6BeHX/hiQP7JbHuCtzIiT3ooyfvdsu4bDOHKg/2mQN41EUF6KmLCtiyBX/HpvrgMoc9IDaxBTpTDhknfmGB6qQ4UkDtGhxkZFEhV/AJxJrMKySvvsUlSWcX9C0qJmcfD5MnyQ1v40hS3xaxq/FIXvbpyaLS8nDsPJ7soT971MUl8Ejs3ve+9+oud7nLmatQ/ZW0i3xb42dTV7ZsImHg0S4qAf14eIzmXxV47Ja2KRBdrtLcLeYqewg4VP+SmcWtInLdTeKAc/Tilvbapd7+J37iJ3afqfhxKU4514J+Mm2dT3z02cOx2KhJnT9rEt4G+JKV36k4ph+PmswDx8aOB750J6Z2RfxCHtDTLiqBY/HL13jgzZbmW/pvC/3FPJlAV6v/UHEQCwtwmMBQgFMTrHHsJtDXBBFk+gvKJOuh4FBvMmknmCGLS64kNwG9mSR4GEuSxjoe+Cbpk6MvOfhsA/bIIyXyjHNoUQnCI4lfvywu4RHb+krvfe5zn+4zJXcKGSsZ2gTqkjDZxjHZ7D3GgwzfvvImY0hCT7yANtpe7WpX6z4oxxv65NIt+dgCWUPJK/yNSXuxENCvT8Zqq50fZrqTs6i4k+vjAOSJjfhF/6FkHqhns3ZxMZ5tF5fER+whLrLIjvGo7QD/sZhah/gFH/bI4rXOHnXx0S/2YJttQH/6kh//bjuuk4aDWVggDlSAY00420zuKRAUAkuQ2k+wCzogb6iAdiaurf4mvkknUPHQbioffXDJJBH8Uyae8+GhH7CFxSWTfypqP9wlgXXJPHBee5NbH+Ookz9gY1/v9b9R/M8Tnw3E9krk0Glctl4OmbuK+LwP+tLpF/zve9/7ujGo04es6MDtCle4QvcmY5/dJNm1CP/YMeOz7bNH6nw25A3EwKfqlYzLFjdfTLCo3OlOd+oWObxaubFjXVT0X5fMA+f7Fhfyql+moLWH+ByzR4Xzxq5P2uMz1tdYlezjrojRLG6OyalzJe3aElnaZnFhg20XlypXoT/ltOCgFhaIA5NoBMgmi4t2dcIKsiRFwZ4kNFSiW5BKej6UTLCCc2TleAjaQZKGyaefMjVAtQv/TFTyTJbIXYe0z+JGDg74hOMU6IdHJnomLf+QGy6+/fT1X//13eLiSj3nY1eg3y/PLQCuzmHIJqnnT18x9o0yY0qyYJ/4Fdwt+XwFz8oL7LdJtB1XHyLbePzgMi/kxClxqS+bunPzb5ndqXj9TdUfqEviI8dxeJAxFXSypX7sUGOf/CmIPfQB+mu8TYF29Oub8cYvfTK0Y2/Qjn21ixxjEhfmn3bqnNOur6Svor3+dLOHcW1iD+0Ss1B1nCZMzwwnCBxZA46jTYBM4iE4n6s2yGQlx7dZfGvJv9j1v8V9AHzxxRd3z8yHynve854ukSn66qfeVXN09CH8FbDFQ8BvGqDaZxyZYOzhyq5OgBbqs6iEq/44mHw4bgr9c0UN5NbHc+HiK76u2C0ufkeiT4o7Conf/4V3V0HmmE8D/qeLjxMPwB5kGI9CJvmtXPv6DS0q66A/XRZOY/P5ieRHJzmSoDsVv+05//zzu0UlqD4PD7YTq+GPxyaLSqA/nyrkTF1c8OC3lkf8WzlPhX41Jh33yfI5jrllDmau+aal+WWu+SxLMVe16SvakmFemtuJQWCLzBeIz8fsAc7Xixa8+XcbW5x0nPivG4+BQwUIRyv0mXx9znZespX0IcmTPkHr9w8CWMAKNFycn5JUoj/7Pjz2AkQfPgMudTJlgkqwP/IjP9I9IlK3LkDX2ScLhUlCFlu4Qm8nLy6xh7aOY7skkSno8y9ZeJKdyUx/7jzwj3x2f+5zn9t9DVUCkHzdqfjf817AyLf+1fMUeHuwb1c973nP6+wfexqTfZz48uu+7uu6d3DZxyv82WHdojIlPo1fIvMbFu8Ie8tb3tLZ2mO9293udqsv+IIv6L79Jbm1fiFf4qzJXAwOfabSZ/8h4MUn7EwPWcZmjHRUxIdsgSfQxT99PIJ19vFtOV8h93uWyKm67IMvVvg3BuZIXRDYsR4P8YDw9WiS7X2m5aIiPtWXjfk8evlDXWsPwJFubfUlX2y5EJqKdfZpQcfZmp8PemEhX/AISn05XVAkmSTwBKQAciWUALaQvOxlL+uSmn16BQ452gdjwVuhncCkP/pyBZ3ADTdbE1byfOpTn9oF/hSssw892iQxsYHAl5joTRucJBltHCeJ2kqKUzHk3/Aw/iRIbemgNzbVxiJgsdfWY0VJl0/bxD+E2NaY/fOwb//2b+9e6cLGKeRox973vOc9u9+LsAGbkI+j/nVR6bsyX2f/gGwy61iNnc8d40K3uvgFcPDlgyRP3IcWFRiy/xDItbDQYyxksjNeZEH1nXHwCY5T7lTW2cfC8rCHPaz7bRM5GReddOFnm+RPnxKQn+S+DuQquJPl8y+PKL0q5/a3v313xxg/mavhYV97tg/ojN4aU8rS+e1slf+Rj3jEIy7o9nrAQLkimQKG5Yip2Id8QWirr0BJUafYFyyMwpCC2j9a8kM6rxDx9VS31BYdkylJWZFosr+u6JfkVIPQNlwFYiawrcdAXn0y9ap8nX0ymegCYzexbNXTyQ5J+OThlKQHY/Jb0NPn35ZH7GFLv3p2Yi/tJC9vRFZqIh2SX6EdaOuDcMncK/Nd+Rs3fbauWL/2a7929dmf/dmdTfSjR7/4DdhjKImus38Q2SYtTj57sS9h0YWPQh792rIN7op6dWOLCkyxT0V8oF84KKBOYS/zRTt6+QaPPnu0WGcffjHn/E5JW4XM6LYfjvFb5qCYZRv2czxWtEkxryVDc5x+vzN6/etf38lzB+PCi1766NUnnCD1uKjnDyWcl85vZ6v8g19YyE8g6C8QQCBEnvMmi///4RfgHpf4aqrHXoIGEjS22xb6lBxHLiQYbTOZLSxf9VVfNdvCAtFNl62EUG2iv8lKVhaVXKFNkV8R+/eB7owZ2DkTNwlDUadde5WYMUyJn7SVAPO/4X3rjH39APE2t7lN9wNEW+eNMYkCpiwqsKl9yGj5x/9k2aaQmxIeWQCHMNU+Qfjrp0S3erAfnwDZYnPIHi3W2Udif+ELX9gt+tqmkK3gBGxEp2P1eInh2naTEog9d2weUXtEad+jYos/fcZt/NUm9Domp/IC223sPxVns/xzLr300sH7RsYSvFNBcCbhFOxbviAw8EwMYLwsKj/5kz+5uvDCCzs96vW3rwR1f1sIwBQgk67AGJ3zIbI7p/pB7hjImWofbU0Itqj2yPiMvy4qsIl8mOpfMvmAb+xXW5iogrsviU6VH4Q/PfnQ19j8QNNi47wrWPawzweRbz/2GMJc9smdcRKWYh/oYI8xHsG29sk+O+VuPvMhFyHkWqjZRP0UrLOP19w86EEPWr3tbW/r2ipAd03YFfjwV+yzKSr3yCeLbo9dfZnCWyF82QI8Cq689Fcyn5VA/bb2n4KzWf45lx0MZkpOO5RnfoEgNGESiIx30UUXdYvKr/3ar3V19DBLbQMjptoYdPRNFvw4R+KwsLiDmrqwbGMfV4ceIdgPjNcVMQ4ZOyzlX3bVVhKjN6BP8hLclUcwVX5Ankc30CePv8WGxG6ffAuNfusWFZjLPuxhYcniErCDK+gpiwpsY5/KHw8+wUNcxmba+ZzL8RyfuQUeg/mRrDuXjBsHesyTdtzamCvVRtsg44quHJPL7xYXb0Dwr7XFpxiBtDUuvjGfK3a1/zqczfI/9BLgwCFAGUAQufLzCnWfqXjbsCBxXkC1QRakbtdSkeNMEMeZSLguBWOEPj5L6h0CvZULG7TcdkV0sLWJo8TuiQ3boCa22Gtp0NfygHDfJ9pFvXKbm0vuTqHKjg/qnKzna902Jch+5r8xWlT93xwvjHWHm8Wj9mOPD8d8OZtxqhaWJBNXXwLBh4S//Mu/3H0bRcCo60seqUsACTglx5sWukxY+xWRaZvjGsBzwpjYw9U5e1Q4p56t9gH6w6Pa33Hupvr8sguqrWNvV7959BOwv+PYY24efTBuCa21f3hs8jhjWxgnfbF/4lB9n53mAB3xRQU/1QUu7bIQZe5OKfG34riOK6h19rO4uKNyB0tfzins4S6myjjtODULC6ebCLmNFVT+G6Hfk7jdc3cgYPoCW136m/S22d+0SOYJyKA+mqMrE2VJ4C9p4GRs9OVxT8bq/NJJjP6apOj3+EvCqDxsHc+N+CHJMuOVyPBgl1yQLL24kBt7VL94/JIYVI9H4ngp0FPjgz/wSFKVbJdYXMiuMH6+AL7Cx9j5iV+0V4+Hc+uKdimO67xrdYM6HHxr7KUvfenq93//9ztbaC9Wa24IpyMu89VlRhmcJYx1CM8Ikxg4PoHiyuPhD394dxVigiShJgBrgMRE/tuhzztwqBN9CiKDHonBb2P8+jfBbnKYtJm42vmMxQ8k818M12GqfdhBYsCDfejMlR/dzsVW6iw4ucOa07/GXpM5Pb6tRWfOJYGyh/POZTGYK37orzzokETpcVfrHD58ToZztuER7GIftnYcXdX2tkmm4RWOSbp92NY+9OfOKLFIl/GrywJrjjgWO/quwzr7+PDePzPzOyN6Y29bY6aTPv8u2m+78FIHttqomwJj5Fs/xrRoQOvPgEznfN3dZy3+N446PqCXb8JXnRK+c8TnEM5m+Qe/sPjFdSaALRmG7IWEAsTXCtWZoAIj/QSe9up8BfUzPuMzVre+9a27X8H7brs+zruqmwI6FR96eqXE0572tG4i0SMInSNTUNJpsnrDrv806D9JTsEU+7BDErZx2qcrkweP1CfBkevqXZupX32GMf+STQc+9NLBNvVNvtq0Ca4uLmPy+9Dah8zKA8img67IZyttHINY0Ya8cIUp9q+I/Njcgp6FNDzqwoGrem3ptS/hxx4tIn8qxB0/GysuZNIfHYBr7lZwFf9sNWVxWWefurAkSQd1Dp/3wdf94JUYDdd8OWMM8bsFRR7w5R2/XTEW5ypwTm5w7g53uEP3Zgav5onNyWLr5Au89XO8S3yuw6b+3af8g15YBKKFheM5GUwCOn/qp36q+8aV4CIXagAp+vsO+1d8xVd0X4P0Lqe0han8yaLfVuJ8+9vfvnrkIx/ZfWkABGjcICgzwd2xfNd3fVd3p6RNAnkIY/YhH1+JOskrvIy7lc1mkkcmbmT7CuY6HkGffSoPsskiW5JoF660NeGT+HGtj6i2jR+yM0b2wIPts6hA5a/NusWlyp8CsrxZAA/ywyP+r4kV1OMWHuE8tLhU/uvAHopxJT6qrats7Swu7vrxd27K4rLOPhYWr91xNx+diYEU8PYEXwHGDdQnjslnp9YWfdDPWx0sLj/xEz/R6TcmOgEHMslT2OVmN7vZ6pu+6Zu6b4rREV18qAT6wbbxOQX4n63yD/YzlgQkZ9sXAJxtApqYvg0mYdXgNVlsEyzuTFyhPO5xj+v+0yGQp01krytkco7bbluBmyuvPqiPfBDM4bUL9M+iEntISGzSNwnZSaJIctOfvYwpE29T6Kd/lYNH39U/OFYvgSTZs53++GzLA+jPogJJ0NHTIufxAf2yOO4C/flXgfgleirYg63qef135cGO7Mke7EuPuOhbVMCx2Ijf9J8jTsmN7ugkz9jqfMHTmIFexdeefXVesdgZh35tIS/FMV3nnnvu6lGPelR3F+IY+FvBI/Yh09OGP/7jP+74VNtom74QXbvE6EnGwS4snJpgrIsKSO5vfetbzyQVSAAJngSDF9198Rd/cfceIdCGDPIE1boC5OGSOkkhATuELC7hL0gz6afCGDIOW5OePNwlBVcWtmM88MRX0S9ycNsG9BsDneRJXB5/jdlDPbtpl4RKDntsC/yrX8jFJfHRB3yd104s6cce5MRPm0I/vrUl26K2zh500o9HfEJGLho2hf7sUBf7yDfGMb/MvbiwA7nRSU7sU1HbsBUO7JbErp/40Aa3WtgsW33x1s7jZq/0ufrVr96dj4+BfmOz9TaONncEZOpX+ZOvnDYc5MLCoXEqJwsgTo/DTSK3wJJC63j7mRxe9+HWt50skWM7VLQX3JmsgjSTFZd1EMT64Q7kkDcleegXHuBOKYlHXRKXdvQMFechnJPAXB3aGmNfv7Zox4b6ZQz0Z+JO5RE/8hs5HnOSleSzrsQneCSRkreJPbRL8qCbPPY1vqk84sv4xXggd0stj9gZ6MW5Jn/tI3NKfATphwP5ji0WWcDpGkNsMcfiQr9+mRuOY891CA+8bfVhU+PCyfla0gfoU4zBZ6jewJB4AOMgK+MhU+5ga7Ir9GEHHMh0PvzbtoeOg/qMJY4k19axQEiwgnOeqd7tbnfr/h8DCIiYIfuC9IEPfGD3zTH96RZ8gqYGXctfX/UCLxNDoObqzmcIfllM7rOe9ayuT9WfgNTe68F/8Ad/sPu1dQKZLHJq8Ac4+vBSvcT5pje9afXKV76y+0zH5MDFuZpIpySijAnwAjJwzcTpQ+TjpR17RFb61zHYH3oUFcSmsZOi3xiPgE6lJqzWHhXh3wf2jG4lcWG7DtoBGfwK6vAYg4XEyzJvdatbddvwS6xFhvhgx774rNBHXzxAzOdbeVMQ+XhkLOrwoF+s8H3QN3/TF5eXvOQlq2/7tm/rvlCjjizngczsa3Peeed1TxISC2BLZ7VH5l3lEVT7kOPdYA9+8IO7z1roUtjXuarfAuTzUYtQdLcg2xjI1zexrgyhzz5jqPynYJ/yz7nMcJefTQUMmaCbAkabMrGCOeUnEBgjgcCZSSDOqaPP/8KwsNSvGToP6SNB+5DO/4dIkNNdF5eWf/S78lKAsTPRwTYf3j/72c/u6lr99rOwPPnJT+6+buzxnSDXlkxJIAmxAjeLym//9m938l/xild0E0bfJNTYZFPQmwLGGplDMB6cbEGflG2xLQ/2Sh9t9dmWR/yg1LFty8M2MTAEceSLHHe84x27l2b6coc+iTf6a3zYkt2ijVN9EtsWr6kgJ/FvX4yRRyeZYrguLtEThLt+4N9UWDR8Kww/5xXQN/uPfexju39v0C4s2rAteVnkYGhxIQ9/Mmx9Dvot3/Itq9/4jd/o+uc8VP3m5dOf/vTuHXOtzAr6cdFP/1r6oL7aZx0qvynYp/yD+H8sDNBOTMFmkJEf5zKU/7HiHzr13bHoR5ZnthaWhzzkIV1wJEAEriC1Vap8/ASkyQLGZ4ILbKDbYxj/wOqCCy7oXhMBrX77FiAB/MxnPrN7fbe+mYThIQnY6g8mNPu4S/mhH/qh7gegoL3+U5LXOvQlxshuER/YAvusS7xTYcxsFNmb8NAGD3x2BTuQHR+MjZH+qbYbg7veL/mSL+kSrDsMusWF+KDfMR1iuH59G/gfP3GqD+CfBUV8TgUddf6SjYNCB701qeOW+RseLoKMny+9AcMXZXwrzPkUICv7j3/841f3ve99u58B6Fvji3zt2LVvcUlbwMkFJDto60N/890blrOwxDdVv58BPOUpT+l+0xZf9iHyw4EM+qs/Kqp9pqC1/zrsU/4/WPkEIw4P4sAhDDm2DxJBverKpLStehlVfRYV+k3W3Km0HDeFyY9HklgmpQlUod4bml/72td2x/hXrvruUsgxVhPOMbvEPrWdY2NPvfb66V/bbVvA2COv1ZfS1rf8dy3kxAeO2ZuP+niod94xHvFLbTdWxBQZEqC7bj/uTbypTwLPGBOnQerzuQ6Z+onT8N0F+osFxTjpw48+eoOMXfyqDw9+cm5XRF7u2sDigUcWiiD8Up84rXx3AS41FxnfHGM823HiF5YaKJwokBJMc0FgCFLBSodJYdImsTkWnLkCzKKS9nMhk6XyoDfJhS08ZvPPyiQfx3jaJqDnKCadsWf8UBOmbZtAtdUvMuYoxmXs5Dtu9fJDPaafj9J+rkIuHrFzq9dWTKpPezw2sQeQr4BvJ73hDW/o5JBPduIjetq4pM8j1Yxf+7kWlYAcC0vu6umhH4+MVyzkTgXwsKjYzgU86M/iQlf04gHtohf94TUX+EM5TTjRoxWkAiiTgvPmmiAVCVKTRfA5FoyStpI7BwEpiD2CMFGW4EK+yRL54ZEFJpxwkUAymecG+WTTAUlsKZlIaTP3ZA2MLeOEyiPJHOiPj5ZAK7+1By6wK4/40nj5vPo2cZrFIrZJjCapqk/y127uOCVPfIrTdnFREp+gnbIEYo8scnSyBw5sER7hq13iZW7QUWVXvx0iTvTCwlkpnGa7JARnbvNBkNYrZgmk3lEsAXLDgx5IksHF83cfamqHUw1mdXMW8k3MJAlJKknUefVJZG3fOQv59CRJ0M9GSj2/NI92vOFR7ZFYqf2mFLCNPyVCn70lFskEbfig3jEkTi1okCS6dJy2PCwuChs5j0edT0ug8rDFgx0qD/WZT0vaQ1lq4TrbcKJHKUhSlgqIFiaBII2+JBIBIzhNln1wqZNWwkpS88oVH/r7YDH11U5zFzpzBV7rHauPfZYuLQ+o9UnoSxd6lJaHY/W72oMMPvd6IV97FW/qW4gP58Ql3Qo4TtwsDfMAh8ojXB2rx2Pp+UJ+7BFd4UH/0ovbacSJXz77JtWSiD5XoRUmyj4WlAAP+lqdJoivo37RF31R954zk2ZJbkNyY6d92SR6+uIhttoHhngM+Wsq9BNzHrPmjRBeRZJk2SeX35VAmxz32WkptHMFwqWP91Lo06Wuj99S2KfdP5w40V83zmSNs9rAqfLT1tWr33bc6U53mvR1Y99rr3DF6NksOdpW+bmL6Luldl7fbb9uXOE8W3hOTGb64s0+nrH77Yrv4z/3uc/t/oe4RyFpV5FEMxW58q2wmCVJZCzRFX6tPYbQJ38M4U8+f/fxIBMP2Fb+VNC3jod99TBVvnYes97kJjdZffmXf/nq9re/fXfRAJEVkC8++Dx31+oC8ZlHthVzz186zZN8tmP8eckjTpkv5ICvGz/sYQ9b/dmf/VnXJgXqGNZ93biFfh59sYc2sZct/uaa+Y7beeed180Z7clNvFT9m3zduLVPZEB4BHPbv8U+5R/E71hqsqgTtcrnUI7cZWGRFCwqSQ4Sqv/RIAjJhaHFRXv9dl1YnGMHk5VOx3Rpb+L4tlDqbNmLTmNyXEGXcU4FGSZfEHvE/jiwiWP1kd+XxPrQyl8H8vM7hJo08FBSD+rx8FlU9csYNrUPfX5kxy76skX8og7U53n+JvJx1t7Wy1GNhT/bsahLfAD5dCn1w2rcxCl+wZzzFw/2wCPxQWe+lRZf4ZXFZamFhf3bsSva547e1vnzLltYnve853Xc1Yd71b/twpLxkAXZBnPavw/7lH9QP5AMMgGr/Dh0m4XFuSRRHJwXmJKazzQcOycYIZPWpEnwRMYuC0tkSI629GZi2hrbe9/73m5LpjoTBp8+7GJ/+8aLB1504Rz74eAcG63jEWwTP+7OJA76IDzowgNHvmEPBSccp2AT+7AB7hZ2oD9JK/FBNw41Pra1P31kVajTRnzYOu+LHEncbFTPhUcWl23sP8TfeDNfIP7PXXbO4eGchdIPl/2PpDkXFnrEQDvm9LHFR704ut/97rf61V/91dkXlsgBsuo2mNP+fdin/Gkz7CxHDcJa5gKDJTEIkJoYBJ9jk8MxmMDaJ9nNhUzI8KAviaHlYfwmSu5s5kR4mHyxBw4C0WSxdayEh4Sm/ZxIoiQfD3rZAx9gk/BwPovMnPYwPvLYmXzHGX+1B7/Y4hHeab8JtFfapKSuxqljHGqcJoGzj/PVj47nADlkhgee9Cr04pG4jT3ox31uv4gLhWzI/AgP29gnfoHWtruCbHyqjefWcbbhIxh1qHA8Y08tHNgnZ6jMJT/JQ0nQkG3bJ0fATwHnKwkIsk1MV+HuaCp/cKw9+RKH1dutf3SGPznrAivn9dNf4iIvCwVOVZ868l3Bhx97RIb29Fa7bWr/yLE1WdiXDjpN2CpbvUmrvb54+9Eme0gkrWxlavwYB+gTeeFDRiszPsTbsQKtPdqyzj708rNx8Q35xsz24qTKUs9O7IIPDtrHn1OKPvorVXbiyXnjVEcXHlBlaMdO8YsFAHfjwKfKXVda+7AHf5BHLp9A9DnWLzEjTrPA4B4froO2VW+K+vCizzF57MMW9NEb/rGbbeyRY9shRGbkDBXtsrgl5tlYqbxTwn9q2XT+7lP+wbzdOIFLpv0EhkC3nzoGePWrX939B7p1L6H0vNdLKAWF8/RLGJIo9PEXNLlay0TK5FE2ebuxf4fsf957i6pHaLgDOWR2DvzgOKHaR1s8bMkzEZLs0mcT+1d+xkYGWbkC7gP5/vGSiRUeOJrcfX0q/yGQQX/uVPiXLPYY4gG48CO7klG5VxtWjNmHDOdjYzIkTG+iHuKhj7a462scxhDuQzyCPvuERxYoMDY2BnHTB7bAXV96yZZ823eLjaHaJ37BQ9yTYUy54IA+/jjgor23CvuHW97KTQaZCjif/aG3G5Nv3rIpG4cH/ZkvFeEfG3qM7OWweQml/uqh6s8j6ute97qdziEYl4sO0B9P2yH02WcM1f5TsE/5B/EoDOK4OE8QCHTbBMQmYCT9E/TkSkSSxxhMJu3014eMTOBNeWQMuZp0TG67QPTB+doucpJ8NkF4SBqZaJE/lESDmlzwMFnJyXg2RbUHRP46HvEfHsAOGc82ftEv9qzxMcZDu1ytJ06NY5f40M/iGh7kWyDEieMhxH/aQXjsGh/8C+TXRWUIEr4SvkpiZVPgMXVRqdAu/otf+HEXHvyiABkppwUHs7AAxwnQTBYONlEEmf2pEFwpQJ7JatJOCQ79clWufU2Gm/AAk10/YyBv6tUtaJdbfwgPk28TmCA1+UkYNSmtAx5JMvrXxWUTWOTrokLelOQF7BW/6ANJyhnXFGinfXgk5sjdxB5J/hC/bMpDv7rYi8+aHMfgPLulPZDHz+w8FXhkkc6iwr64GOcU4FHjGh/74TUVfYuK8U2JD7rSLv35R906W1awh/7xCWRMpwkHN9o4MZM2E5Cz7a8LkhrU2tuvi8QUaEd/nSwCzaSdCvrTD3dykkSn8gA8TC4THZI8pi4ukkZNejjUK8yp0D4JB2KPqVfIkp32+AM7xL5TUf2Ci/HgYXEh1/EY0j72APo3tYd2+POL/lXuVB7aZXF2HL8k3qZCezzwj9yp8aF9/CJGgX+NbRMe2on3+MQxPmSonwIcKo/Yl5ypoDeLghIem8w5/aoPM49PGw5yGeVIDk1QCZbcuYxBH0GUfgI7k3VqgFfoZ7KQmUlrwtqOIdyNQz/98TBptwlSPLK46F+TRyZAH9hMu/BN8gq3TaC9frFHeEim6xaXoUUlcjZF/IoLVB5D9lCf5G9b/bItD/1wwEdsxi+2YzzCN/bg18jZFHhnHPpHvthg9zEe2iSeycFDIWcbe4h7dsg8FS9kjc29ykM/ehOn2/LI4tAuLut46KPY10972204nHQc5MICSc4KCLokBKWF9gKxtrdvouyCJI+a1E1YXPpQeWuvfybsLgFqbDUJ4pGk0NojkyRJTnv9jSO8tkGVk4nKDvT0JXXH7eKmX8axC6o9IHqGeIRny4OcbcEe7Xiq3VtUv+AJ4sJFw672qOOJnqE7KMdiJzwzd3Cx3TY+yM08Xbe4REffHVPiaxfgYGzkJm6HxhbOiR1tMo+3tcVJx8EuLJCAj4MFQIKlIu0UcF5pJ9S2INekFfR0ZbLiVZFgrPUmSXjtijaJmQht8rA1SfKYJZNKv7kmCnlZpICe9o7BttZDy39X0O8xJ7/AkD3CQxIzfv2ShHcFeRlX7IFHFo8hHtD22wV4sEPGFX31cRvYJpmLk8ydJPM54oO+KYuLNu2dyhyLSpDFIjxwaMfIHmln37nM4zlscVJx0AsLcK5giKMFicDNsSBwPkki5wXLnKAvz9TpzWRpeTgGQaqE1y6IrMirydk4a1J3XD+IxacuAlXWLiVy+3hAkppj9sFbe9s+edsUYPf2Cw704qON41yZx09J5q28bQsYVz4ToMe4q1/or/bBt35hoJU5tbSwuFQe1Q/aW1RiH8BjzmQekK/UOGQj9scDL1z2wcPYWx6xnXM5z145b/804+AXFuBkzhZ09uuxiZTJKThqsM4NeunMpDVJ8FByNwN4mDgJ1m1QE0fGnEKfbyUp9umly7jpDa/appUxRyFXcvTbg9gFh/hAG3bRBo/qvzmL8fr+PR3xQziEB90S7tL2IF+CDA/6Ew+O1WvDZomjXQqQH6iLzelzjIPF1Zcc6kVHeLLNEjDmzANI0lbHP+rxU5eLjiVg/BaPxAJkMYl/2Ip+JW1OM07FwgIcnyLhcr5AdQyCo16ZLAV6TQK6gf4kCMjVWA3iTZHxpb8fyfmhYor3WeVX8Dnnx2Hvete7uq0XKfphlKLd3/7t33Z9lCpnSkm/vkJufrWOB73e33bxxRev3v3ud3fH4Wmrzyby+0rbPzJwoQeX973vfd2PZ9/5znd29tBGfc5Xe7Sllb2u1L7kku/OxHiNHxf2sPXG6thqyB5tqfJT1OsvziBzosJikcUlMdn32GmpZB7QVxeXOl/xyIKf+bQUzMfKI8c1lxwXlX/Awfzyvg9VfgLAlY6XUHrBpMmacxYVgSJwBY8rwm/91m9dPeYxj+na9GET/nSQ7Zf3XmPvF8a/+Iu/eGZRcV6hGxeT1i/vf/RHf3R1jWtc44NSxlHtI3G87nWv68YqQRpbEFvQ5UoU+iaEulpvf5Or09h1CjJhXQEHsUkmrP2KTeTDFP54KEmo5Ecv+45hLvuox8E2iRQci4taN4Yh+YCrF6je9KY3Xd3mNrdZXfnKV+64i3vnQH+LiYVOrKtX2CGLzpzz1y/v73//+6/+5E/+pNOdAmIgtn3Qgx60uutd79q95aDafJ38Fu38dTdG/wte8IIuTxhf4pIeXPDwy/sf//EfX13/+tfvztGbO8yKfea3Kdin/HMuM+DgwsKQc0/cin3Kt6+/RHrRRRetHvCAB3zIwpLJI5hMMK90efSjH9216cMm/LUFAeiVLhYsbzfmjAStgoNFQAIRwE9+8pO7V7pMBfsIhhe96EXdaycsLK5Qh2Ay6FMnhfHjgMu+wA4mbeVR/bIv9PE4W+wxNw+fFd34xjdefemXfunqzne+c/cWbXEnHoH9s7DQrV7BKZ8X1guWddB3bP7+1m/91uobv/EbV295y1vOzAdFP7oUePCDH7y6293utrr61a9+5hysk98i8RW4I73Pfe6zev7zn9+7sAC/3OpWt+petWRhIUNd38LSyl+HXfmvwz7lH8Rr84dQ5QsQjjdJXvayl63uda97dY85IAHEiIxJj+fYff/oq2IT/uSahB5jvPWtb1094QlPWF144YUfPPsPiDNNlr7/xzKGyPeuox/4gR/oxjkG4xYItvRCJtDcSWwM7Gi8mZiVi/08T18a9OOBD9Bd7cEv++IRv0DlwR8pc8Gdy3d/93d3/0CM3tjfePPtr+jPOTYyR7yvK+fWgZyx+dv3/1iArpoQzUnv+nOXxR/unrRZJ7+FPnX+Wljufve79/6jL/uJj5vf/OarJz7xiavrXe96HUdt8FOqLVr567Ar/3XYp/zLL7EHDM5vE6Vj9YJDQAgMxpw6UbYBXYKWbgivGsA1uW0CvMlyxfXa1762q0uwt4V8V6cZL15sg0fO64tL7Td3Ib/anf7Kgz0qz6VKO172iF9yfl88XP1GT/wCjlt77VLIIM8joJ/92Z/t7qSBTotKfQSmXR2/eouOdksiHOkEesWE+syl+i21JZDxK3TX48qLLXA64pQsLHF6knkC0nFN8oKkTtq5gQd9WURs6U59JkcWl005kOdDZ3dE7lwgMsG4lUyM1OHAPimO044tMonnLkkQ9DiuPLKvHvhF+9p/rhJ7RD6beQSEQ+JDfXiE79wlPKo9wsMWr752m5ZAvJBJ/hvf+MYzd/Dq8/gLjNljM8UjsCRX/bTDbQnQW+dBuIoZi5xzOIoTi4tzcyO2pjPxQWd45Vzq46PTjoNeWOJsAZdJIggErHMpzgtOSLBk8syB6MiVVeWVYwUHx1An71REbmSAuoqMn3wgX4l9Ki/QTh82mRORGR70tTxSB3USzwn6qz3orAuabWwEeGi/Dx500h+/4hX7tO13AfmJPTrrnYq7p3qnwgdZXEA7dy5zLy7xNZ0QbsavLuNXwh+P+GkOZLyJ0xoL4eVc4iHncbV/mrF7VJ6l4Ng4WjDaFxwCoE0KaZeEImjSJhN5W0S2yRoughEEYIW26mp9nnE7tw7G5/9pXO1qV+uSAWRyZpJkEjjGJbZJGyU8nHOsfSZYbbdt6eORMdZ2jnMuY9FvLh6RtwmP2m9Oe9THX2M8ar32+m3Lo84H/1vEF1bEqOI8uXVRgdTnw/twyuLieFeQW3WSn7kThL+7qPBwd5k7vF1Bfmxjn/zYxn4dJx442AK+SuV72nCQC0scHwfbFyAcH+e30EbQpL1gsl+vXjdFZJp0gt6xhKQM8UhSCQ/99K9Xq2Pwgepnf/Znr250oxt1x/qkn+CvkyRXqY7bkrFnIumXCQ9t+6lF/5ZHtXtb1Oe8cczFoyYDx5vaI/3xaNtuUiKn2iOPRdu2OV956ofDJjwSEyk+oL3DHe7QfcuKbBCjSdp0VDjOeVsy8UmcOt4GGUvVSa4x41lBR3hY/MKD/l0Xl8qjxofSN7a2PeCrbV/704CDW1jiTI4VlJzO2QKP48cc7VydtLaCVF0b2OuQ/u5UJIoEX3g4HgJdmaDa2c+kXQd9Pv/zP7/7CukNbnCD7io0z8Zb3UlqQyWTpHI3iV0l24+8dSVt9U0SIC88bPv6pVQejvVPUktp+/SVtM3jnVztR/46e+Acn8xhD/0yDvXkkk9226eWtAtfcjKmqTy0ERO+cXjb29529WVf9mXdN7zIdS6LyhjCXzv9JF7xntjdFOaLMRlfjvsWlQptccjY6c180X8bxP64ZFxDi0qFfkriKTloG1ucdBzc1405UTtO5WDyEySCUND5bced7nSn7lfekIkKCSY/ZLz3ve+9ut/97tfxzORN0MAQf/0FYv1AMTIEvB8sXnDBBd3vWKBPv7a+L/+kJz2p+x0L3mRIBs5l8lUYt19vO+dX2y9/+cu7b4i9/e1v7xbI6GGbTFYy10G/8NKvbvt4VES+drVA5QGRO4T4UKm67U9B5Fc5yljS6LOPPupt0y8yxvi3EJdVzrok1Mo3DjLUOVdLMORf/Twy9ZX2L/7iL15d+9rX7sYgTqYsKkC2CxexKdbDQ9/EacXQ/NVH35e85CWrb//2b+++fEImPvpAtfXjH//41X3ve9/Vla50pa4fOwAO3k6gn/bhMWQD9Zm/ZPu68fnnn9/NGXrJdVFIXtrALW95y9VTnvKUzmat7IxFiX1shzhUDNlnCJX/FOxT/kEtLAnsbAXWFa5whU6PY8E2ZWHRX0AI3gc+8IFdvfMmXF1c+vhrh2cWFbJydUiPb2u94x3vmLyw/MzP/Ez3fX1XgpEVHvpVxD76K/r4caTFJn1b/h6dTQF5xuSVIPbJIEsZQuSbnBIWfjjHHhlr4LzJPQR9jYM8RX/yXa0qY6AHBwsuGWSJD7Zs7Riss4+LBEV/hS2ygA8BD/r5Rju/wdBvjEfQZx/yyHIufmELY1PG+Gf8/JH4YFf1U1Dj37zCjRw8yGr9kvhskdjwuyuLht+xkJcxAdtkf2hhMd/4l7y6uBhj35gqf7ItSn55/2u/9mudHdRlW/WPLSygnYJX3lCQMoYh+wyh8p+Cfco/mIVFgIE2cargtrBAgmPqwmJC+hWwX/nmthpfEyXJueVPhoCWgLUnJ0kDF+c2WVjqDyRNWjwgk0UbfYNqnyTfyKU/vINN7c92Jp8tuXiwBzl9UG9imej6AA76VB7BmH8r2JU89uQnY2OPIR5ANhtaZHFPn2q/FuvsQ46x1cUFp76xBbgnnrSTHNljjEcwZB/1NZmSa+E2xiH+7Jc+iVPtLVJT0dpHvOkfHokPBVr+7McWuGhvXv6H//Aful/ea+u8As5nf2hh0SfvQCM3PBL7thXhTy7u3sRhvltY9CebTKj61y0sgT7iUz8cHY/FRmufdVgXny32KX94lCcIHKcIBGCQOHIXkCEYkwgZLgk7ugL6BXImlmPBnEVlVy7kZIKSn2RNTwv1JkYSR8YxFtRToL8xSRj0soNF1LaPR85nkvKL/nPwMB48yCXfomG8LcIz5/lQPzx29Yn+eCh4kG+8fX5xzBexFx76zcEjdrWlg/4hv8Re8Yv2eIgvdtkFkWOb8bKJ0sdDfWyROWvfuW3BlsaR8dDLHvTYtog9FLq1t8W95bwpjCeFrJTTgI8QBEOFszljaslkmVrmkC94yMmx5GuSKc71yRE0UyAgyHPVkUcWIBgFiCAmT9BaUKzWdWHBCxzXZILXumSS8/rSQWedfNGXBJJx0eu8/uGu2I+NUraxPzls4Yo4E1e9reOMz7E+ErqtY9yNo8qsJfaZUvDI48VqD3eEVSb7xE7a6YN/EuBYmWIf4zEusK8kvqo9oMYFHjjg1Ce3r4zZh6yMK3amL/ZXxIljV/XsFe76x4+t3LHS2oc+8tSDOnr4hP2dTz+gj//Mq3CfgiGbhT957CvubekzPuOlL/zt46ZY5GIzcrQfgjHGt2OF3sizxZEPMl/bEv5TS2v/dWWf8k/8240FgyEoAqWWKj/nGeDVr351964hv1IH9TFDJqXPWOrbjckySQSF87gwYK7GnBM84FwSF9mgDdm+FODVGQ9/+MNXz3rWs7pzrX77Emff243xcHVlHHjQQRedYIsHmSZYFpQ+7GJ/OvBgD3xNtIyZXImEbWzV4TLEI6jyp4AenyHRwx54kJFkElvFL/hd5SpXOZPo12ET+/AFHuyNR/xCV+wRvzgnkcKc84teOrKIZsKzfeyRBSU88I09trH/EH966dIG6DBm7yUTM/wSHjhYBLyE0pdl+t5uXOfIt33bt63OO++87ltsZJgz0MefTxIf1fb22cmjXTL01cajMC9wxTG5AKr+PKL22x/9hlDtU8cC5CkVc9q/D/uUf+IfhVUHCQSlddgcYDQBaZKSL+BMnCTPTCDt2kVlTpAvcZqoxiqR4GGihge9eIbHEqAfj9gDj9gii6z6JK8leZDf+oU9Ko/wtV0CfJH4AEmKLdjEXULiw3nttJ8bGackLU7owIMtEh/sU/2ylD1ibzzo4wcc2MI2CTs8oCbeuUB24o/8LHhsER7spI35gu8SYAPltOBELyw1EJcKiIokDxNGkNAvcQhO+ybTkotKQDYeSQr0504KjywqSyWNIItcu7gkmatfMnkF5NOTpC6Jxx54OL9UMq8gnz3Ynl48JDE8AMeabJcAueRbXGp8SKiZL/vwCx7mQewee4iN+AWPGsdLgZ7MBzYQG4kPtnJeWconAfkph44Tf8cC+3SYSWLCCMRAsKZ+6UUFyKcvi5gJkqRh8uwjmQdZXGzDwdbxPha3IAnCln1wYBd2Yo/ULw166OMXwENxHB5LwzjDwzbxoZ4/cNl3fMQnSuotKvuyhzGLR/FQebBDLgT2AXr2pevDiRO7sCQwgvZ4SdBlslakbp886AsPesNhnzzocSUafdniUOuXBj1tCdrjJUFP6xfYt1+gtb/9feoH+tyltHqH6pcCPX32V8dO+8ahLy4ndmGpjhEsKUuC/DyztgVXQCBATZTcYi+J8PDYyaTAIVegdKuvjz6WQnjkcQ+f4GHrOHZamgewPX3sER7s4li980ujxkf05c4l/MTH0vaI7Wt85M4g9tiHX/CgJ2PmF1wSH/uK0+hS6Io98OAX9fuID6A/5ZBx4h+FxUmCZ0mHkSv4JFGTIckrjz0Ea4J06cVFcqgfTOc2HxfHSW62S/Egl/zwYB88cMhjQvVJpkvyID9+AUkjfgH28mHtUkmdzGoPeviBHepnUNUv+szNJTzop8e4E6f1MWF4LsUDYg887MceSi6CKo+lQHcWFfZIbCj2w5PNnF/CFsGSss82nOiFRbCmgCBZYqKQJ0lKTpkEgjIf1CZ5WFxwWCqZVh5kG3dN5nhkkauTVtu5C7nVHllks8DhgV8Wl6V4RL4tffyCA/1JZNAuLn2ydi0ZJx7swR+Jk9ij2q1PxrYlYzI+fs+ikviwxSN3DOxVF5dW3iZFfyVQJ5HXRYU9+MWXCmzZJfbQbgngRHZdVDJPFDzw0i72wHcJxE6nBSf+jgUEKHBcrjrmdKKgkAzIhkxSW0gyM4GBbgGdq6C5IPizqNCRpJErQEnDxA0vkxYHYKO5SuybpOm76373E7344KEOP+3ijz55uxS2MG56fBicb0M5Z4tfeOCnfZLuXAX4JnFAn+IYN9vYI8lsbg6KsSnk0+M3U/nWVeXBJhKsY+37ZG1SKshL7Ed2/EAf0J0P7p1nuywAc0G8WSgyB+nKohLOOcZPe/PFObaaE+yQ+A9aux0aTvwPJMEQFPIynARx/YESZwqeqT+Q/JZv+ZbVox71qDMBqo1glKSUlr/j3HYDWdormUTb/kAyV3YmofZZVCIXYh9tcAk/78cCfdIWnPe7gqnIeCKfLJMSjyo30M5LK7O46Y+DPn3t8Zf41oF9koxif3IVOlpoz344J8GlfR+PYJ19yNUmSZRcPwBkoz654VETqOPqwzEM2YdcHMhKMseBLcRuC23SXtvYQx9xPxXG7lfrZFjIvCzVPp/wT/ztHB1Knb/0sy8+2vmB5CMe8YjVm970pm5MKUBu9tf9QFJdvbBTnzlb48M5byGw1d48eeQjH7n6jd/4jTN2Iwuq/qk/kGQD8tMvusnqQ2ufdcC75p912Kf8g1hYwDAEgVKHJHATFLaCeerC8tCHPrRbXPTBNZMkiaOPvzoBLXmQI4lm0triv+nCctWrXrW7UxGo2pLTLipQ7WNsF110UTdZ7Ud+tmDf2KbCWOiIjSML58ojcL4mUW20VdipRca2DrEReyj4pH6IB2gX38V26dsH/cbsQx9kLJE/xkPRnv4cwxiPYMg+ZJFZeYQD+7SIXu30hdgjx1NAhlgHdyDXuc51upj1T+YcQ71Tsa3zV3/2FSP2xeqjH/3o1Zvf/OaOd3gCbtkfW1gsvOQpsXPfogLOm7/k2vcrfPPypS99abfQkB37Vf1TFhZtjc3CAvorLYeK1j7rEP5TsU/551wWGH9vrR7EOFPBcFMSQzC3fPIEA4PY5tiA41j6XvWqV63udre7jS4s7iwe8IAHrL7pm77pzCStiwoM8ddfYNbFRT+FDP8fxZXRs5/97K59q9++ieC1+T/2Yz/WvYaEPMgkIbMP7OM1JxdeeOHqGc94xur3fu/3Og5ga6Kwz6ZgQzozMcioSX0M+qSvsYaHbcY9FXikwCY86M7iGJvz31z2IGvKeOjmp/DIGDbloW94ZDxkKFP9gkfGEL9sy8O/xf7Mz/zM1V3vetcuds0h3IKMuwW70Suhe4VSfW1+xpHxwWMf+9jVPe95zw9ZWJx3nHmnfmhRgfg/++6uvdLlxS9+8RlfWjjJqvqNzdyykBp3i/DAnxy69e/jUDFknyFU/lOwT/kfedlV+QU69xXGceWepLiuMFz7EsCxsqT8BIQrJ4Glv61AeNe73rX6hV/4hTOPORgksK9o+6mf+qldYeAEkAkQHUP89bWAJInhrdi3QPifESbRG9/4xk5mqx+09bp8/4TJhCXL1Viem7c6ldjHa78tSF5DLrjJdC5jg0ySKcClTaJTkznQpUR/uGzCAfBIgUzcTeRUHuESflOhT03I2/Bgu8pD2YRHuPN7+uKhbOqX+CMl56ZAe/5gD3POoqDvTW5yk9UNb3jDrr6Nz8yfFJz10fc3f/M3zzy6VZexhBf4D6nujPxLDPLNN/FJVt4dF/vSGf+0RZs6f43jec973pl3lWVRbG3h0fQXfuEXdndjNR8obFDvmFzBJx9Ez1AZss9QafmvK/uUP76EnkAkmGpQGKgAsF8DtA/6ClZBlkmTRWJd3wr9BJ6gIpPufOukDdQ+6KNoDxyXDxqHgJ+xWlj+8A//sKsjI4tAxmN8Gc+6ol21BzlJBG3bsaJ9+sG2PNKeHOOCtu1YATxiD/Zh26k88ObTao9tebR+qXLHCs74ap86cpRt/FLnxjZ+SVLRFwdX/K95zWu6MWozFcaT+MgYyVwHffKEgG8zBvOWnE2Af+IDImuKHDzSP/aMXU4bDm5hgRr0tpws4XL4GARBJgkICMFpu8kECfTL4gJ4CP4klCHoh0d06r9uUQEy3/ve964uvvjiMx8+JsjbxZUO43Q8VDIpYkP9Y8e27ZSinys6W1zJjY6+9il9PHJV2radUvQzDsUxsO06e9AvyYBj/XNn3LadUvTTv/IgP+McKq3N9GeTOfzimP4p8cFmiUnHsal/mOVxb73zmIpwAPqrjj5omy/X6Iu3uWPeGsc2ICf2BDLXLS54pF/lr+9pxEEuLCCoqmM5m9MVE7qFtjV4tE/dtgEKZAjyBDq5SUZ9csPZOcWioqwL0ASzPn3jcz4JCOgxYYfkZkLHHpk0fbI3QfxATmyMw1DyyLnKoybibREesQe78fUYjxoL6bsED4lxnV8qDzbZ1S/6s2vkrIsPtsg5Y2jjQ104bgL9Mz9gKD7IpqO9U2G7elG2LTIeWwiHxGEFrmmfcQ+1PS046JHHwUoCURBkEgeCpk6Uvja7gNwsLoJNEGbC1AnQBi8eU6+8tFF83fVa17pWd4cDGXsKmUr0G3fGrk5xrF/qYjdIm10KRB5OGXcSatq13MJDn7TZpVR7gLrwqO0qj9pnCR6RGR/UduFhH7RnE6jtti0gNpMcjbfqVNS50Ak37eKXyPC1YzF45htCl7XZBGThYQvRSydEpza5c3XeXInv5kAWC1ugv44bwjWLinPaOL/puA8J83jgLAbn1kmagBWINWBtIUGiTSbtHKDLhMwkxSt6Kw/7mTTptwl8sH/b2952dbOb3aw7znhTHNfHL3iED4SLY+e10z42mauQV+X28cjxkjxij8ojPqk8FDzCu7XrrqXyoIe+ysO+AtqHx9z2qOOr8aHU/T4e+ojh293udqtzzz33jO+2AVkZG9AZG0SvmNDOOXNrzkUlCA9boN8Yw8s2d3rhaGvspxnzeuEsBSfXxcWxfUV9O2ETRHOCzgQlnY5bHriZiOGxzaTU5/a3v/3qq77qq1af/Mmf3H2jzGKTOyYlj9ZMRPvO+8ZZirudXP3hpY261E8t6TNUstDaRgcuStqEQ/huIr+v1P4pdMcHsQk7xC626pzTTp8+2Uore6z09SWfHoVe38rBwVYb9Xhqh1Mrs5ZW/pSiHx01PtTHL7jEFrbxH35Xv/rVV7e+9a27r/L7NuWu6FtcjFt9ffyV8Tq/BMLDNvM28zMXaHTjohxxWb675JJLBrMXIx3KD3Y4X0B4Jvvbv/3bq3vf+97dB92gnuwEiUA2gfyGxQ8kh7AJf3IFo6/jve1tb1s94QlP6L7aCPQ7D1lUTKD8EMvXjqfAGHxgSp6vUv/+7//+6oUvfOHqrW99azcRY4MKiWEI4RQ4pmMTGMcUmJjG3ie/5VExVT5M4c8+8YdtEkXqcGxtGMxpn1xkVER+Wz+Gbe1j3zj7eGT86p1XzANfMXZB4weSFhuotiJ7bP7+zu/8zuphD3vYma8sp5AfeWBOnnfeed0Ph8HCR886+S3a+WvO3P3ud18997nP7e7C6M2iFluw5y1ucYvV937v966ud73rnbGNhba19T7z2xTsU/6pW1gk2Je97GXdD6yysDiX2/8E05ILi2/MfPu3f/vqV37lV7pgxMt5ehXtBOo2Cwv7kKVYKPOL/UyQCmM1znyrRh9ccHJ16nwF+fntzxTo70p2CvAj28IYrhY9PHDqwybyYQp/bcQI25FPv6Q25Yp4TvuQ5SKIXyCJTb24m4Jd7SMe1IkPW8CDXyRzPMgPNzErntSra/1Gxtj8HVpYgEx6yTQnvTnD70nUxx7r5LfQr85fYx9bWHAxNz7t0z5t9cQnPrFbWKByq2jlr8Ou/Ndhn/JP5R2LheVe97rXmYUFJJIkE8G09MLy+Mc/vrtjwSlBC3TjIVC3XVimAn8JoiYOYAMJtb0CW9K/kZ1XYAAeEnrLI1gifrSxGAO/SJz04MEnY5jTPhY3JYkNxIhj/aZgDvvgkIsOSLyKGwvJnPYfWljoY/uMO3csHr2BhV+bXe2/bmGBLCzuWLzSBbSr/II57D+Gs1n+qfiMBRKkBp99QZPAFTB9Vx1zIrJxoDvHNXkIUg6dg0fG2Qf1Jo/JVBMHLhY2C6BFuHJbAuRLXvThUfXh0fJbCrFH7vD4KIkFP/W2S4M+C71i/I7xwGef9ggPMUBv9LU8qr+0mZtX5maSduSr5ycc92GP8MhFTp2nbDL0VOC04iMk06HCcIJoamHgPjlDZV/yBZ4JkiAkRyAmgdivAWy/M84Hr0SGyib86VKSrIDeBGXlQW4C2Lk+eX2ltY8rSqXWKWTTpQ+b6Afqk8TYy9WHhMpmffLXlXX2IZd8evBgF3dK7hJcEeOTiYuv403kt2WMf3xh6xiPPLvHiz3cTWUB3FR+X2n5Z4HNok4e/Xyi4AZiIjzHyrb2iS7jpl8MuWNzF29LLuiTBcZ+YrzKrGWdfeLvwL46+uzjRH5AZuIUD+f65A6VPvv0LQ7hEX7sww7ulBT2IUu97Zj8sbJr/Kwr+5R/MG837kPk2wp+jrf/yle+snvB5Lvf/e4uUGJE+4oJLqm45fZSvCFswj8TVcL60z/90+4zluc85zmdjLggwQsC9uY3v/nqh3/4h1cf+7Ef29WtwxT70MUWJmSuxI2fPrpxlOQFin11eQxkf07/0oGHbSarF24ah77hiHN4mMR8BJvYH4bswx7GLDGRTQc/0evFhDho4xjPPCYMj2Db+AS2Zgc86CGbzZPItXUet9hDjHaTuOERbGMfi4fxVh500uU8G0ni4cMuOPbZo8U6+3hP2P3vf//uXV2gPXtHLt2KNyB7ZOUCBBfnw92LKdfxCFr7mAv0v+AFLziTL9iAbDYAfrrlLW+5evrTn949CnOeHWIrdgjvbew/5/xqsU/5B/8ojHEEI8dDglA9qE/A1uCoAT0HyDdZ6SVXgNq3hfAIL9DOJJ8LdGRRoYv8JC9jBuPO3UImR5J/bLgrwiPJnB76krzAFq88P9euLjRzgBzjklDIhywqOAEeuTKN32r7OUBm7IETPXhkUYE+e+Axt1/YeGhRAdt8QM9GeMSPc4Fe8hX7uIhDOjLWxIyiTeKUHeeyR3hk8SYXhzpW+p1PvOChZF6fVhzswiIIkrztK4JEICRggxow9hNQsGuAkGfyZ1FxbLIKxFa2cwnMIFfLcwTq0KKSsQa41athfOZaXGIP8jJOPpHMq08AryUXFzxc8ca2dNVFJcCDz+riwp9z8NCfXyKL/CxkrV8c8wuegEcWl11Bd7UtHu2iAuodW1z4DfiRPeaID/LrHCWP/MzNitiDv7St8bErMs66qBgfHS3Srl1cdrXFScZBLiwcatIlGBXBmgBUWmijffpokwS4C8jIogIShgnbxwHCI5NUMVEkn8jYBmQYC9l04yCJmhR9yKTVDug2jl2uCDM2PMgLj5ocWuBRFxf9agLcBrFp9UsSdruoBHjgWnnEL7vwMBYyxCu5iY8hv+CnDb7642FxIWNbhIfxhEf80sfDefXiR0IFPNgz82cbkGt8ZNsnh7w+mTnWvl4MaJtY34WHfNEuKomVFuGdHAPsqP22HE46Dm5h4UilOlagKnH6ELQVmOlHhgkrSO1vAv3TNwFpsgo+gagMIbptc2yyZOJvgvTFw9joxUMS7UsaFewliWmrn3GQs00y1Z7+msxNXPLX8XB+rsVFe0lCX3wgsqfwYDsFjySxbZI6P7IFLtUvyhQerV/IwmVT4BGf2ieP7KFFJdDOeRzaxSUXRZuCHcQc2YkXMsdkhQe+4VH9sg2P9o4pi8o6Hn2Li7INh5OOg1pYOFARBEqcLUji7HVOdl5gCgggR5Aq9qeCjCwqeCSJTkXGkiRGjomyCQ/99elbVEyAKWC7JDz9TbJNF5fYtNqDPPbYhEff4rJpEqv8yUmCJn8KtNMHfzGFx6ZJTGwlptiFnNhjEx6SaexRxzUVNabqojKVh/baZXFxbDzkbeIXutMP9MNNmSKD3syvurhsEh/RyRcpeOlP1lQe+rGJLZChTOl/SDiYhSWOiyPj5FxBOJ4KssgAfQWcKzGT0P4Y9BWMuTLXX7AneW3CA5JM9cXJ5JvKQzuTy8SgV/Iib2oyD+jGIcm0JrF1E8b5OsnxoH9bHrEHOWwwNXnEHrmiNg7j6ftMZR2qPcKD3CkJKD7U3n54xMebQF+LS/xCv8di5E/hET9qaxw4bOoX/WIPHJTIneKX2ENhR+1ts78J2CH88WKPzNt1spwPX33xwoGMTcEeCjkBuZuO5yTjIBaWOEwwJDAEeAKsOngqyEoCTKBl0tofQoJZG/2yqGyaRCHjMGGSPIwPh7HFRZu+RUUS2oYHmChtEls3adWbrEm68cnYZzvroF/f4rKOh3bhUe2B0zbAA4fw4O/8pmMI2jiPB07hQca29sCfPas91n1bDA8xVBeVXPFvw0P/+BUfJX5h7zEebJFFhRxtpyxIQ2DPxBd59K+LDzwSp/a100/dtmADHGzJ23Y8JxUHc8ciMONAAZXAUraFoDDZagISpAnACnprcMKuSQMSkJEF5GdxaXlAkhc+xp8kugsPYIOaxEy+fHDcN3FiD+0gyWcXn4BxZHEB8mOPPh7hKUZA3ySfXaA/2yqQpJ6EXeEYxxofGcMcfuHfGh9Di1x4KNrxRb2j3hbk6B+70sPu8X9rD7qdCw99lNhmF4izfCU6ccondLXgM/XOB9oru4JfUoANWjscKk78wlKdZcuJCahdExiQl6s58gS+CSsQ6yRIEk3yaheVXQMKDzIlgPDAQckkoMNxJnPtYz+22qXQTR659o23JgiwdZwf0mlXuUOf7E2K8bBveBgvnZWHdllkY6PKvZW5TYmNEx/GG7/goY0tDuGhXXjM7RcF4pcstkp4sFH8ktiegweQkztbMN7woBPCLTz0wRuPyNkFxmXeZXGBxAe/RAfdeMVG8V94zgEyFWOE2GqOcZ7NOJg7FkhAcaL9uUBmAt++wBOkSRQJWPX0JtEkqLdBgjETNGMzaa9whSt0kyYJIXq0iX6/StbO1hVczs1R6CPXf6u0lZzUZ/LE/vi5gv2oj/qoM797qHJ2LbkyjT3wwC08tLGfO6W0W4IH+ewRHvTGDop99mAv/yNnCR7GTi751S8pgIf40C585+QRe9PP3uI18hOn2thnD7GhnWNtY7NdQUb8wg6QuWohyb5i3tJrjtvOjdgm+3V7qDjnMiMPLp1W1U2eMzJWnDgFu8rPqp8rAOdTUh/5Oe/4Va96VffPiP7qr/6qO6c+sgSWKzsTw5tWvT4iUG8BydVXdAnSuqgI0EyiIPKd93bjRz7ykatnP/vZXV3Vn33t/H+LhzzkId2/eiW/ns9VlmIC0YdfzjtW1k0U3KeC7Dou+vQPjyQy+7E73vgp6sfQyp8C+sPDFjJ2x7Eb3fyCxybYxD5AT3TiQB9bhBt/xE6wi/2HEPvjQS+d+vXZqMbHtvbvA1n04xG/G7eiXtGGfjYS7/5/0I/8yI+s3vGOd5zpk6222X/sYx/b/dsLr2/J+ECbmh8Cc8W8DdfodOzi0L7YcHyf+9xn9fznP7/ro13sVfXf6la3Wj3jGc9YXec61xm1l/aZB+BYIUtpMcR/CK38ddin/BP92nwDr2idVeXHoQz1ile8YnWnO91p9Z73vKc7pz6yEkyu5Ppem+9cFhf9LECBKzBXXX3BRr7A9YJBE+eCCy5Y/dIv/VJ3ruoP8MDh4z/+4zu5OZ+22WpnHxzjl8nQymyh39jEaEEeHwThUUvgnFL5rUMrfx3IbeWHR7iFR0psMwX6b2qfyA+PwLlss7+N/Cn20S76Jc0hHi2myg/W8Y8O7fjJcY3Nuu+8/8Xjn+C5i0h9QEaO/cuJ+973vqsrXelKnQx9oc0PFVlEtIkc/dwx5c7ao9t1/48FvCvsKU95yura17726Pida/NbO6aKMf596JM/hn3KP5iFpXUSVPnaarPrwgKCNI++srCYwPXZcgvyN1lYMp6+cQXOuUIwzgB3Y8yE2AfwMO5McKA/d1X7Av38UO3BR+yxTx7041HtgQf/79Mvffb4cMQHHuKjxvKQX3LcNx9St83Coi/7WzwiRz8yLCr297GwBGRVe8AY/z6Mye/DPuX/Q+QfMQkCQrAxYoWgnWPCCrYaxDnuK23yAscCwravzxKFPtsKxzjsk0f0VThmp772S5XYv8Jx7LSv0l50QGzU136JEvu3GOIBfUl3V5iX5mgLdfu+AIK5x3e24UQvLDUYBc4+gkMQuluhj+46aZxzu73L4mIMGYctWX0lkxIcW+jSN5N2rP9cBQe6IPpsIUltXzyqPvZQD7FH22eJksUDh/CIPfbNA2L7Gh/h2PaZu9BlvDVOUw/VVu25bOcAueZmFpD4gW52MZ/3dVdLR8oh40QvLJyTYFzaWWTXb5EIynymkm+zqM/CY79C+0ywPgydq2NLMSEzMYyfLhOjTg7na3JZokQHHo7pN/7wUJ/z++ARHbFFffTk/JL2gHoHSW94KC2PPhlzFGh55G5aSRsctGn7z1WqDog9xAc+2vTFRx9yviJ1fecq6DVn6bVPX+atOzo6s7ikzVIgO/ZZx/uk40QvLMBBcRLHxXlzgjyToi4qglKAenZsqwjaBKm2bZCGp89vBHaQ+myH4DwdmbB40WGi0mvbTto8BpobkZ3EEf2VBzifdkvysIXoxiMl9ki7uXnE1pFNX2uPPh5zI7KVyiMltlFP/9I8qj2qT7IP6+IjdbaR67l/5k9fn4COLCr26chcNW9TACfzNj6aE2QukZfOZpzohSXBVrGEAwVl7kLoE4z1K8W2jrO40O+RmD7t4gJ+P3CDG9yg+2+JUMeQMbXFpCC7PjenBydbbcBxdGbS1ok7RyEvPBxncQPHUHlU3nPz4IvYgz56wfnYp9oDjzntERvjYR9aHtDy0F6/Vt62JWNTHIPx09kXH+rYbSkesXHVCdrEL+E1Fh/pE5g317/+9S93YdYH8i0oucAjO4tK5Bl77lzUiWHbcJgDxqhk/BC7HDIOZoQ1EARVAndXCLZ8TREEYxaQCsHSBm4Wl/QFnLT9rM/6rNXtbne7rn0NuiHQl8maQMWt7euc+ujEJZN2jslSeQA99RFL4DiPFjLm9JuDBzk1iRrzEI/Yyb72eLT+2wZkkYNHwB70DfFwPjzilzlgTAqQb7zssUl87IpqW/vR1WcPvOqjpxofLdLXDz+/5mu+ZnWzm92sO25lBolJi4o2+LjwU1oYu2+FRXcdw66gW8kYyVZOAw5iYYnDEpScKbgyibeFwK8fxte7kj6od95VUAKofSwWjp/6qZ+6Ov/881df/dVf3d3BJLD7isXMBNAmcpMY+tprQ582qSNDwbG23aTgQEa4xs6xfV+JD+zrxz6ZuG3bqQWP3DE6NlZliIf68LCvX+zR135q0d94cjyFR9o4TrzsyoMMNrFPB4z5ZYhHZGxTYlMy7Lc6+oo2Fh1wnPiIjLRTf61rXWt173vfe3Xeeeetrne963V9MtYK4zZv81hL/9h4CORbXMJbUadsi8yNGncppwEn+ncsfUgwa0u+10UI1DjXlcyU37Hg5bvy97///S8X9GQGQ/zptpgo4SGwFd+VD5z3K/w3v/nNq7/8y7/sjlvQSwbg6Zi88K3A26QKMq5cySsZi3OKMU0BDuSQX3nQOYTIt9UuV66KvopzQcu/D3iQo5+x+B1RfLYO9Obu0z6QIz76EP59yN2ANgp7kLmOf6Ct/tUX4iO8+tDaR9v4tvJgj9SN+df5KoP8xOsU6G+Bj0+ik34ywiNo+Qf6OIcHxC78gr8fMd7whjdc3fjGN15d85rXHOSn/3vf+95OB73010ddLcjJ/NX+Ax/4QLd4vfCFL+xk6UNW4i1jWfc7Fu2MQR/ybXFRxsCOh/I7loNbWCATBMinR+FYAbNuYXEsmL024gEPeEAX3AJdqRjjT3+7uCj021ao86vjcA5wMSmMJ4GZcfRB/7pwQWyhZLJlLMZZ3xzQB23IyATz9l51+g/xCJyP/PCwzXiMzXhi+z7+AZ0Zh+JYf35axyPQT/yEQ3hI6OSFR1D5V5DDZ2nPFsZBHvusg37a0im2HMcnY2Ohl33C1TGfkJW4SIEh/hX6kpNi4WVXfVt7tKCTfP2SzPt4BNr1+Tf2cN4WYhsXhllcyB6CfmS///3v7/bptujFt30gr85f/c+77I7oBS94QcfFefaNjcNtbGHRJr5xLrxbW/RBn7Mhfwa7yD/n0ksvHYweDhFkU8GgJtxULCmfgw2UQxPwdKm3sNzlLnfpXVgyqUwYVy8PfvCDzzx2abGOP/0WFpPOvvbkmCgJNHrVtxDM4eQ8DuuCc8w+xo2HbXjkLmoMeJCZfjis4xFo39oHxzxeTDJVcm6IPx5sqB/grd+28WOfb8LDmMIj6OOvf+yRmJrCvw+xZ/xCHlktjyDys9VHIYM9Wr/08R9CYpVc/cZ4BHjgHN9oL7aHMMU+zieR4y7uw0N/3FpoK6bY0SMw7dctKtDax8Li8bR3hZGpf2xsfJmT55577uqpT33qh7wrzLnEaGzDHrXNGKbYp2IT/8I+5Z9z2cHgwsJIJ3kFFWh/8zd/0+kxTIFi++pXv3p1j3vc40NeQplAsO+Zq0XFyyKHAmMKf23wUMCC5fa8LhRxga3COSaKSeIKGCfFhEnbPozZB4/6eQ/dggYv/WKDikxUfLTB+apXveqHJLAh9NmHbjLJdj7Jw9b4XOH18WAPEztJlA212yZ+jJWsao8kI3amg2z8vILHvjaxR+yHh5LEN2b/PpBzySWXdBwUesKDPcIjIN9X1XFoebBHGx999h8CWfxMln5kkemYvRIf2WqfO4S01xb3vliCMfukD7+IeVzss0vi31hb0M0v2pGROxzc16G1D70efbtjoZscMgE3nPTxEspnPvOZq+te97rdmDJWfZyHcJ1yBxtsGj8t/3XYp/xpGeKEwkCVTFCTIdsW2mUyA6MKKvW7QH8TLhMUJEklQag+JZMJxyQZkwQ35/HbpugvKeUbMGSZkPSxSZUdHs47py/++utb5W5a9MfBuMgkPzzo7ePBVuzBlvrtyoPc2CO2DQ8FaluIPRzTrV8Sb5W9SQkP9ohf8OB/+qC2h3CsPIyDHHW1/Sal+iU8LF6ZB5FtCzhKtMAGidO0qbKnlPQxDhdfkjp/45FFxn4FbmyBi3P6T11U1kG8ZSEBstmlLx/QjV98Ziza9bU9LTjohQU4V0AIjDYAAm0EtDaQNn0L0DYg3+QT8HVi5qoTcEsd3dplws4VoMaXBEB+dJqcmUCxUU0qbJOkMQfCw/jIpyc86A9MbFfFqZM09JuTh3FlcQgPY49O/ql1+OKRxDcH6MaBTPLppI/eoNZVHvjPHR8K0MP+1S94WOjV2U9sh/uuIINMixy5wC/GLh4qj7qo6MMW4T4H6OhbXJQgbZTAfJnLJycVB7+wACfH2QlMwSGIbbOoOCdA2oVnDoRDErSANCly52JfyaIyd9IIksTIpseY6TVJ6Tb+ejeVtkvxSEJK8sAltvEYwT6OOCzFI4uc/fgCl3BKEo1fFG3nhHFVe9BHL/1Z6MODbu3mXGQDPMiW2IG+LCR4tItK7IHzXCCLbP42ZyC+yPy0z09ZVOLDOXmAcdKZ+cDedOAAtgoe6pNLTjtOjQUEH4crgsBWIPbdzdhfAjgkedgXtEmgSSCCM0lDmyUQHiauseMhWUgaeGQSJWloswTwiA7jTvJgD3ZxrB7PJZJogEff4oJHkkrlurQ9Wh5sUhcV5/cRH3S0fqmLSmymzdwg09xkj3ZxEaf8knmcNkvwgHZxAXM1i1x44LuUT04aTs3CIug4n+OV7NsKDEGz5KIS0JkEJRDpq0lU/ZJJIwgPiQGPOnnCQ1maB/vjoNinnz1wccwWeNhfEsaZRFl52DpXOS6JjDlXvvRL5kleOOwrPqrt+aNdVJxbKpkH7ECPcdPFHriEh3P74JH5kRzhGJf4xRxSjvh7nJqFpS4YbRA6lyDZB5KoEojhI0BNpKWTRpBEFf11q35fPJKobKtvHEsa++Rh3OwCH06/5Ao8JfX79Ev0VXsosVN4LQ3zpOoLD0X9vpDFpAX7HBeVy+PULCxBrjYqBKjJksBdGji48lEgegWtupbfUhhaUB3n7mUfCI+WS64SW35Lgb7WL0rq98kjV+WQ+HDc56+lQJ+7FDpjC7pjo33xiM6qz35f/ZIw/ponPlx+OQk4VQtLGwDZT8DkKnFJ0Jfn5pmwrniiN8+Qk1SWAh6SRnjgEB7hmKSyJOiSHDy/jy/ChW78cHFuSbB3bA94JIkkwe6LRz4gr/YIj9hjabB95cEWrsrxcJzPW/bll9g+sQGJj31cfBh3vWutfsEjF2JL8zgpODULC6fH8YpkJhhMDvUCZOnFhV4TxGSITo968qNJgWoiaWPiarME8DBuiSM6PFLI7zrwCldlKR7AB1lI6aTfj6zy3JzuJBZtlkBNXvbp9WguX3nlFzzYTBs8lwDdbJGrcHrpZ5NqD22UpUCHcRovTuZF7IFL2uCgzVKoPNgDD/rFaR6BacN3abME2D2Liv16nMWFbn7D54hTsrCYHJyepJFE4dg2AeGcYMmV2ZwQeIK/XVRM2DxDdmwfr7S1PyfCQ1IIDxzop9uEcZxFTluTW9u5QW61RxIoHjgo6p2viX9OkMcWGWOSqMIW+PQtLkvwMMY8AqMv+m1xiF9iD2XuZNraOvaIX8IjftFOWYIHuexNtnHHFuGhtG3n9otx0pdFhXxFXXxkH9TjIp+cdpxzmTMGI4JDBfpUMDxDT8U+5JskHK3oq+5Vr3rV6u53v/vlXulSg0RwCGKvdHnUox7VtenDVP7aJSHRQ18mqIAN6gSxH1641HZDWGef8IhNhuSbIHgoeKQNvspUDNmn2sN5usmPjoBuXLWxX9vhNNX+QWuf2FsxZvJrAo987cI37bQhS7tgnf1bVPnhoY5MPIyz+sW5cMFDOzy0o7vFpvZJYtRnTL5zuVvhH3NGO5z7eART7UN+FrfIx4GOCjGsTexBv7uZIXu0aO3jx6D3uc99uneFkcn2bJBFhG3o9BLKZzzjGWdeQpl6HCB9cFA/FVPtE2zq333KP8i3G1cIRg5nJAEHL3/5y3vfboyPNvb1u9/97rd66EMf2tX3YQp/sgRpJqJHXH1JIzBG7RTIY7Kh9hVj9kmQZFFJ0vBfLPvkal+v5LUXNJlwU9Bnn/DIoz5y2cMYnWv5J8noo32SDC7KtvFjP/agVwyQq+AElb/22ho/Ts5py4b6ps2m8S8Rxs54xB7ktnYm31uwazKNH9kivIM++w+BbD7J24H1TZxmfBXasJ824ZFHh33tYYp9yDI+hZx17/4Sy5lb9vXTfoxH0NrHwuKC87nPfe6ZsRkXOYlbY7jFLW7xIW83xjuLi/b68Yn/tTQV28TPtvE/BbvIP9hHYRxsoAICODlBMATtBU+Cw3Em/DbQT3+BTxaZmaxDXNSnTSZGEg9e2yCTQmLEI0Fvsg7xoFvCUrQnI4mVjG1Ahv4mcOyRpEFHH9Q7H//FJ8azrV/IwINdyQgPZYgH3Xgk2YRHFqZtwJ9TF5UgbRS8ycBhF3tERmKsLwZb4IFn2uhnYdqVBw7VHnQMLSqAa13Q5ogPclzA5K4DL/IsHEMycU2M6qOdfvhsy+Mk4yAXFs6sQcDhCZJ1Tk5fQaGtgMrCsAn0FeBJ5nQneQ0ljSAT24TSD8jZlocxVB6RbTKMwXl8TdzYzpi2WVzCQ/KxD0lM63jQrS0/2qfbePDgp01QkxeQF79MsUe7uOChZExTgUffokL+1PhgE/zbMW0CYwgPcsiOPcgeA85J/NoaR/tusanAI2OIPcQdHmOgt7Z1HL9ss7jo37eokLkO6YtPoL9y2nBwC4sAqI6si8pUREaK402SumA2QWoyF/Qm4bqkEdREYx8PMjfl0S4q4VGDfwzh0S4uylQeINlYVIyDDPI2tQfuSR7kGBce9qcgfdjEfuyRhWIKtOMT/exHpjI1ibEbPybxxcab+IXdxHZ4kJmYmwp9YkM8yMQBF7aZgnBnE2APfo7MKcBDfKQPmeTlQmIdtNEHd30gY5u6yGmTmIgPHE9dVAL92TEyILJPE6ZF8QkB53FiAsmCwslTJ0kFWYKDDIHlLkag2o6B7kxw/RLwmyTRQN8kHDxwMlHIXheoeKQtHmxAllKDfgrCoy5ySQRTJh0OWRDxIGcbHuynXxYX8nDAZZ09nMcjiYIscpRt/JK+sQfZU/ziPM5Z3GLbbeIj9ogtYw88MgeGUG2nLVmbJPOK8KjxEXvsi4e25kjsAZvEB93hS5b2my4qgf7GwRbk1XJacDALS3VedewmwVlBDhltUleGFhd9nBegAjJJY5vkFeiXyRIembRDQR8eJhWubLArD2PRv/KIjjEezuOKR2Rsk0SDag/ysuDjMpQ88Ks2i4wsDNuADP0jI35Zx6MmUf3wmMse9qtf1vFIG/1wIGPb+dLag1+iw1j7gAeuSvyi/y48cheXO5fwyELeh9Zmin44bQv82cGYgA3IHbLFoeEgFpbqNA7lTE7dNjgD/QVonfgJwDbo6HauXpnvmjSCTDglsuhJoqzAwyTC0eTQPpNtVx5sajzkkZUJmcRQgQf9Hos4lzHkqnYXkJVEaJ8etkhiqAhH9sKJbv1wmYNH/EIWXTjQR1dFeDhfecwVH2Qp5LI3PX3J1Lksss7Flsaw63yhu/qFLnbvs4dz1R7t3cYuICt3PTjVxaXlkXOJD8BN2RXsSb8S0NFyOESc+IWldRIncuiuk6TCJBGotvQlUZmYCZQEp4Ck20SdI2kE5ERmxtYmUzxMniw4bJFJNhcPupOIYg8c2CSTUV0WFdz0kTD0q5NsF5BjXOFBd3jEHurYAg+IX5S5eNCdZEom3Xgo7ADq4it12rUXLLuCHByMzTjpFI+VR+yRunBPnzlQ/RIe7F8Xl/iq2iN+mZuH+CezxkfLg50g/lPmAt3ktuMKh0PFiV5YqnM4rpY5QZ5EUBN0TZwma03mJsicyTyIbB982wd6TQx8TJrwwFmiwSNt50JkS0r2+SGJAg8lCy9otxSPmhiNm152wCF+qW2zAMwJ8oyvb3GxH05JollU5uYh3iLbeCsPtmEL+3gssagExkU2m5BNXxaXxGm1h3Zz8yArsvnFcRaS8IhtYo/MK8dzgm7yMz7y5xzr2Yh5I3uPiPOrgwTFUg4jN1f/tiatu4NLL730zMSl3wRZImkE5Cap28fDRDFxJbC6qCzNoyYx/mh5QL4GuiSPmsSSyJPIHKvXBo+5F/sAjyQx+0nq4iOPYKrNlrJHXVzoyILia8A1iS6RzCvoZgv+h+qX8NDGeXyXgLEZq3FGRxaXutibz+GxlD3AeMlX6D1knNiFJQEQB8VpS4J8QWjSCkK6XflkUTGRlkxeAV304FEXufBwTrG/JDJmScqY2QOH8Eii3Yc9wsN+7GEbf+3LL4mB8GALdqG7nlsSdGVxsY9DFjf2iF+Wni8Zc/yS2Ig91OOzNA862B0XwMG8rfGBz9I8gI596Plw45zLrqgGl04G2ORqQsAI4KnYVb7joM9ZVb62jvW/6KKLVne5y10+5JUukITgVRsPechDVo94xCO6+gqB6SrQFU/k62eiCOAhzG0fk8MVIJkZA26uvjKJxrBOfosh/uzlyhyfgD3yOhp6pmBX+9DvlRLxpa3z7CGB7Cp/HSJfXIiPao8k9CpvLvsPQVscFLoUCVRs27ZYyj70iw+xSb5+7IHH2CI7p32cyx21fSBfbCjs4a7u/PPPX1144YVd2+SCtE2/c889d/XUpz51dZ3rXKfXjsGc/PtwNss/57KDf8jODQTC2fzumkqdEVpU+dpqY+CvfvWrV/e4xz0u9xLKyEowSYrf+q3funrMYx7T1QfauZXOwiIYA8k8Vz99mNM+eNCPi3ZQk/mUK/Q5/Bse9fEXJCidW8cj2MU+fMYWecwSkMkWuChLx6dkKTYUPBJb4SE+Eqtz2H8IZIvNSy65pLNNeIgRHNiiTeq72H8I2iROcSA/PHIBFHu0mNM+ZGXeJj7UOcaBb8Tw/e9//9ULXvCCjnNyAcR+8Omf/umrZz7zmavrXve6nc4hDPGPnHbcS9i/Yp/yT+yjsAqOSgAsCXoSnIwuMFx5JbiSYHFJ8CwBsi2Q4WECKAlUHJxb2ibhIYGFB1vYOocDmzi3JMivSYMdwsM59XgubQ+6XBFXHvFLeOTckoguNjFmtlDwcOwcv+yDBw4KXfGJgkc+B1uaR8ZsXgD9sYe7KRzEBx5LciEbl6XHezbgxC8scRKHCeSlnJbgVPJowVWOqy5XgIKVbudMGO2XAB1ZwIwXD1efrpTz2EkbkxkPbZaA8dFhUaEv9qg8WpstgfBI8gI8cHAlyi9swF5LLi4ZK9/Yjz1cweUuBY/YYylUHXhIoPSLU3zSprXZ3ODvqoMf+KTaAz8xqs2SfuH7yoMtxKl5A7iy15L2iFzjTjlknOiFpXUQ55k0cwWHIATyJCUBaF9AmiSKiZvEngmjTRLM3DA+XOgJD3rdOUmkeOTxAv14LIHKg+48gsMpCbUmdrZbwh7GR3Z4GD/9eLCLYh+PtJ0b8bdx4mHcklfiA4c89gF2W8IvNU6Nt+rFg13Yh51AW2Vu8HN8XueHbewhXsIjtlsC1S/0Ji7DiX3wcD62sH/EbjjxdyyCIMXEUgTSnElMcLqayUQxQQVpFh66BaeAtaVbkLoKmmvCJHnVOxX6lPCwxU3BUzu857yDwoNMPJLQ2QIP+2CbxG4/3GPDOWBsxsXOxkaPcVd7qHMcHvrgnav5OUAOecZnv/qgzy/28dBnTh4ZW666Y/8kb6A79rAf7ukzB/BgC4VMeiywSd4Qv2ThrX6Zi4exRSb59Bs3feEReyigj3O1za4wHnIV+3ON72zHif7wPojDqvMSGPlwPXUS0diH99mXBD7/8z9/dcc73rFLhvVqRpAq+JuUqadfW/WCFkxw+2TakjsV5JFPNuBAdoADmwSRr18SbniYPJETRP5UkGVyhof+ZJIdPRXa+DZQbKtNTTAtwn8qalIkky2qPYLYQxvy4z/H4daHdfbRXxs+j5wkc6XK1la7tHWssNE6HsGQfdSTQzY+ZKljC+NuZYezrXb0x4dJslPQZx+6cFGCcG7561/jNPrDt0/+GFr5WdzIYYt2bOqzuOOr/fOe97zVm9/85jMXCgpUH0398J6NP/CBD5zpF58rfSDrw5E/h7CL/INYWAJDIVMw2FdctSQobAXylIUlQa4kEMhW0hbqfoCnxEKG8/oIsm1BDpm2QJ5xtAhPsK99TaBT+feBjHAID2MibwzkJ9FWHvq2uiv/IWRc4UJGeKwbS3hAeCRWhjB0Dg+yYo/IW8cjdlRij6n8++xTedhPMky8jfHHIX7RZ4o9WqRt5aGEA5mBNn0Y47EJF/2VxEZ4kFd5VFT+LgK1U6dfxuDY+bSdsrBoa3GysIQXPmC/D2QdF5YenA2GqYFp63GJfsCh6xYWcKxPgt05shJkU5D+CSb9+64ex0C3/gI+PIxLwE5BOw4whk3GAS0PIKNvcRsCDvoH2/IgRwF9yWDbqXJwYBOytukP+kYO6LtJfGQclcem8QXhwTf2E/PkTIE+NT7o1ndq/0Df1i9iA5ep0LfGR+4YNrXHLjz0r/FBP1ukf7hMWVjoVeQfsmoZAlmHsrB86POLEw6TLIFRJ4ogmQL99M+EBXL0d07dlJI+tvoJdrfpZPe1b4t2+rhjckxGAr1tO1Rig4zdsXGROZWHom3lEXu27cYKHgJV//DIJO5r3xbt0kd/qPbt69NXcNAvfbbhwRZ8U3lUmeuKdukD6sjbhkfax89K23ao4FHjQx0O8fWUQn9sGHuID3L72g8V7fUjQ4mN+9r2ldhjFx766VP7xSeROQUWFP0h40k5LTi4hQUERCYcJFhMoARwJlN1tn39BDRoo62rpySkTUquWvSlN/Lt97VPSVBqC44jq6/9WKG79iUr9lnHQ9E29tCeLdhkU3uEh/7khIeyjofz+FbOGdO2fgkPwIFvpvKobdliGx6xR43FqfaA8ACyyImsTUp4KI4BB/Lbtm3Bs+Wc+GjbrisZQ/ULDmT3ta9F+7TdlYcSWwIbt4tL2oRn4JjeyIlt9Evf04KDXFiAQxNsIHA5noM5vYV67XMlqm2CvQ2gTRAZtkCHQA2vFi0PSKBvy6NvLOERHX3AofJIAt2VBzn2+8baQr3zsZd+seecPOjAZYxHTTCRsatf6ljIXWcPdog9tEmSm8MeGUt4GO8QtKk20y/xsS3Co/WLMgRtql/YYy4e7AF9Y21zSNVrX9u0V04bzrlshR2MxgTLVDDgWDC2WFo+B+frhorgoPPlL3959xnL+973vq6dSZoJm8BJnzaAtoUgIz8JkmyBW+XTnYDULjwy4XdF5GecQHaffG3CF8c5eUDkj9nbubQD7XDQbi57kJ0EMCS/j8ec9pjKIzFqq138Mqc9anwM8Wj51viYA1V+4o/sVn7aKZB2uMwB8rNo4ZEx3uIWt1j91E/91Or6179+d059ClQbnuT8uYv8cy655JLBiGSgQ/gwSTC4RRUc9r2E8m53u9vq3e9+d2eMGsRDk2kOJODoATo4jh481Oe8OudxmZMHPeFhH+iInvAQIPbDY5MAmwocWh50SRDqch7wWMovSR4Zb9XTx2Mpv9AxxKPGhvNzJ/OA7DY++H7MHjjMzQNav+Bh3EM8wnNXkAUZPx7RQ/+nfMqnrH78x398de1rX7urM3b1ENvxk/1DyJ9TUeX3P485MHC04OBsYAD7cX4CIZPE+QTwnCC3DcIk8OyHh7ZZdOZEZOMR2cYfGyg+BM2kCo8lgEPLgx1wCCdwPn6Z2x7QlzjxsF+TivOt7eZCO8bwUGKPcBI/4TE3+sbIBkN+YbsleECVbdz1SwUtDxeOeO+K2F6xnzHGL3SzRY6rz8JL39OOU3HHAhwPHo297GUvW9373vfuXpsvCASEyZogsa/ej92UMWwaRDUA8csCRk5k4VEn1CbIONeBXDxMVtCvj0cmTTBVfrCOv/PsUJNEdKSviR07tVgnv8UYfzwkUQgPNhqzR4uxc31o+Q/ZQ71S43QKWvnrEP76GXvsQS+Eh3Z4pH4qNrUPDmP2sJ/4yPlNQEagrx9UkxcdkYdDeLhjeeITn7i63vWu152nW71S40X7Q8mfU1Dln6qFhcOzsNzrXvdavfe97+3OQa6OtBEoFpSv/MqvXN3pTnfq6uhOwASCyLuGpoJc32sHfOhUgGxFoscbdpE/BeT7CrRfNxsf4KDe+G0rtpE/lT/Zfsyal1qC/tUeLTaRD1P40y1GEi/sQD8ekmy49WEu+9ArLupVePzSF4dDmMM+6sSHLYSHuJFIvZZlKnaxj3GHR3xDf35p73gb+fhnTGLve77ne1aveMUrzuSC+Nt+dN7ylrdcfe/3fu+ZhUXf3NVV1PwzBcZ4XFh6cDYbJsEoOC0s97znPc8sLM5lYREkAtQL6vyjr4c97GFn2uhfsQt/OiSO+soKuiWyXCXuwz4mroReFzg8jN/5iiX9S7ZfKZOfyRx7mMyt7WEJ+4gB9oi/vSyRP8JjDHPaJ7GBD8Qv/NT6ZQhz2If+fAEmyILCLkvHZ+Tr6/VA5g2wB/3iN7Gxq/35/Ru+4RtWv/Irv3LmM9mqT0wY+6d92qd1dyx+IAnk4KJ9xRz2H8PZLP9UfMYCCT7BkcQVZNK2gVGR/nNAsHJCropSQL2yD7ADXfhUDuolsEyqpYFD1dfaY588ksghPKqd9gG6FHqrLejHb9/2qDyUDwePeuFT7WEBwG8fGMoReCj74nEScGoWljg/AWCbZCFQrc6uRmrgOBfoM0ch02Rwy55b+0wUk9VVk5IJvVQJD7f/mZx42JrE6vfBgw9cEdPXJis8cHB+aR7k00NfFjmxYBt+/JWEv1QhPzHALxAe9OOifmke7EFf7KFOfOARv+yLR+xPLw7s4Rx+5pHzu/AIyKjxV0Gv/JAcocgZ1Sa2Vd5pxqlZWARonA+CyMRQZ1+A9C0ugfO7FqCPXjzo8uzeY6e8QjxtTJZw7ZO1SwH2kBzooNejnvxPlfBIItOmT86uxSSMDmB3PDzeqJ+tsFeSWJ+cXUt40AH0xi95BKYNnnxjv0/OroWdk7Dp8HiFPzyOCA9tYg/ok7NraXXQyyc1TrVhjyV5xC+K4/AQp+xReezil6A9DtTxReIRHOOTOrrNKVvltOPgFxZOFnRxeoInVzi2ziVpCRalL8B2gQmQJBpdgtMEkVDpNGltASdXY/rNCWOWDCSw2IPevMdMQnWMk/M4L8GDDXDIohIe9LMBPrEN4IwLu8wJ48JDjAB91Qa24ZG2uCxlD7LZnQ3oxaXaho+0zcWHtnOCbHbOgkEfHvkMocYsG+CQWJoTsXXGSJ+FjV3sJz7Ypvplbh7kx+722UcM4gD4sEl4ZIGbm8dJw8EvLAkETud8gaBUpI0tCKIE0hygO4tKeLSJM9zU2WqXxWWuZCrYKw/I3UF42CaxsoE+Jgsesc+uIEciwAUPOuljk2qPmsTCY87FBQ/jSjIwXmPHI76Pr7LQ4Fu5zwHjqYkxcYBL5ZE6PHHXni/1x0XfdUW7tG1BJnnhEb/wA6QP/fEV3WzhUVXlMKZnHfTzQT0uONEnTjNvyWSPxKnj1oZzgI4sqPbxogenQD1+uNkPF9u5eJxEHOzCEgfHyYJDANgqLQRLDRptBJKkswvIEOwmH9mCz6Q0KVoeCWQJxBZv+k2wXXmQhYeCB90mZR8Px+rrIqffHIsLWUle9pNE66ISOGaHnIs/kkx3gf6RwzZiw5jH7FEXF/6cY3EJD/bAo29RCcIj9uAL/ewr2q8raQv0BWRJzHWRzaKiH6R/OH70R3/06qM+6qM6PkmsrR77Vc86sAce9HoE+DEf8zGdntijlnC84hWv2G2NodpyF+COAx10kc02rb+d01Y7BejWXttdeZxUnHPZlcHgyBmNcaeCETdJgEvJ145TFU4HTqeLw31P/S53uUv3A0nAIwGgjT6e4/oR5YMf/OBuEiVoKtbxp1+QC3Z6yVVMkj55FfopQE8m85i+IfuolwTDgywcktCH0PLHI/zJWIfWPmTUhMwGSZT2x/jjIeHEjuGv0DMFkS95ZVxANw64Vr+0/HEOfzzST8FpiP8QyFD00Zc84zG2vjFFfvyi0Otr2u9617tWf/M3f9PJq33JdKyvtpL1x33cx62ufOUrd+fUk8cWxkUm3xpTy8P5t7/97auLL76428859gTHsZf+H/uxH9v91sM+PTBmH3Lin7/+67/uXrnE50FkQMZkDBYeX/1lu/g0i6IxD6HyBXdd559//upXf/VXO9nGzzbxU8Z57rnnrp761KeurnOd63T6A21T9I8dxzhU6LNJ/LT812Gf8g/uH31BAsEg3VLrx7mKurF/9KWN4ytc4Qqr+9///quHPvShl0t+zgVj/AUXXSaggNRXsJvQUwINH5PEizLpAU7GYyip99kHjyRl+3STgYvjdfav48ApH5yO8QiqfeyToUB4GBPe0Mc/oFvfjIMf6De21i9D0M4jFTJaHsbU+qXPv/ELm8Sv+osRY5ka/2SLzUsuuaSTSQ4OZAyNpdpHH+P48z//89Wv//qvr171qld1iwt7OJc2iR3QX/z5Hcbnfu7nrj7hEz6hs6HxZJGSpOPfCosWHS984QtXb3jDG848+lIA5xR6xdeNbnSj1W1ve9vuH2O5szE22z4kPtwV/8Vf/MXqRS960ep3f/d3u0UsOvqA/9WvfvXVZ37mZ64+67M+a3XjG9/4THzgwC+tX4PWv3Sb8+xJBntlsXMcu479oy9t9MmWTPqHOFRU/05BX3yOYZ/yD25hIVMxLFuTj1MzWacsLILIBHjQgx7U/UhSHd0CtSbTIf76Jxlro78A9+Hj0MTqg8CUeEx8+3jSj0cdU9DaJzwEt319JA1F3yH+LSJH8pGY9TUePOgcQuTrzxa5mtQfh3bSr/MvH5GhkEk+u5BT/dIHfelSjAPsS6DG0doShuwTHuS0dnVBsg7kikslFz6xxxiqfXCQdP1S/Jd+6ZfOvKk7Nkk8tzBO5au/+qu7O/JP+qRP6saoTuK/6lWv+iGLG3k///M/v/qhH/qhbu44V+U7xo0P0k+84HKDG9xg9fCHP3z1BV/wBd2i5cKkygbtEh9ve9vbVt/3fd/X3TWI/bZtH7Rhu/POO2/1gAc8oHvrsIUvc6WNs6D613j0+aZv+qbVi1/84jPzLXPYfsY85T9I6s8GZOqr9HGoWBf/LSr/Kdin/PXL6AkBp5vkiv04UqlBMRXk6GeS6StIJAIBMwb9tDVJEpACO8l8E2hvcuhriwf9WSjGoK3Ep23sYZJJpJvyYEN2yIJGngnHHsboeAh4asceEB5Dk30M+rKFxS19jRGXdX7BkS34BkyCsUVlDOGhPx4ZYxaaMbBX2uKEB1nsOwWR//73v3/1ghe8YPXsZz+7u0AiR4yQw7aOcaslbcjQ91nPela3IKlzLn4xPty0s33lK1/ZtX3Na15zRm6VX9vbV9iGLAvFD//wD6/e+ta3dm3SNtDH4qrOXdGFF164ev7zn9893guv6OkrGZMYYAu/mqeDbrKrrcfgvLYZg20Wx20Q3uTWclpwMAsLCAZI0Ak4QbIt9DfZsrgIUAkyyalFglGQJ0CTgLbloR8e7eJiEgwlU21wwDU22TaZB/qxAx4mTewxtsipx5NNtCcjSXRbHuyhfxYXcmPzIXskmYcH/nyCyy5+Yc8sLuSyNx5DySh+S6KLX41nKo+08xnES1/60m6BITcF8AknPlCyrw29eLzlLW9Z/emf/mk3BvGhPqAnujwC++M//uMzfja+KlNRx77GlnM4kOHR1ute97pu4QDnQDtX9Dipcwf2O7/zO92iEtnk2s9xLanTnx6L5Otf//pOXy4YnOcXRfs+6J/40J5OdUN+nAK6xZkSO2YcQzwOCQexsNRAUwR0deg2iByTzcTLpBtaXOhPghOQdO+aRAOyktTDQ+DT1fLAGz8TRRu6JeEkwF2gfxIyHhmzxaWdhM7lDsF+7LjL4hboT47kYb/a3pgrHMdfbJNFZS574MEe4YFD3+ISHrssKpC2/PvOd76z00me8dGRY3yMFRynXv8kPHcKFij72rc8HOvjSy5/+7d/29U5zjYyUxzjEB7R5ZwP4sVDwD71DpId2M3nRIF+2ba62rpwt9B6B2DizbjwIbtvcck5fCLPtvXfNsBJwaEiXA8Zu82sswAJlATX0CTZFPpHtiCtV3Tt4iIQ7asXqPQnieIzF+righudJkV4qMNLMTGSvOZI5gE5SabkZ+xZyHCg2zFuzmunz5w8+IeNWx5JEpCkkWTOF/HLnPbgF3LJp5M+BSdQ17eo4LFpnOoPdOXzrsgw7vhAnTZ0pQ2u6hTH9OczD6VFdOFqjFDbDfWpPCAxQy84zx6JD7Kdp8eYYIhTRT0fXeTELokPehML0QmpEzfhQU7Oz4FwbLmG76HixC8swEkcJ4CV6sQ5QF4CP5NSMGZxSUKzdT4LAC5zI0nJFkyOLGi2OJkYzofz3DySKExcetg/kzZ2sQ/soa0yN4/4JUkdD/pjDxzsQ3ik7ZwwLnLJZw+6Y4PYo11UtN8mTpOQfBB+85vfvNOZOltJO4kRL/rEo33jduw83f4D4g1veMNuP6WCPHU3velNV9e85jU/WHt51L4p+tFh7OC3KL7i7OIsflG0xS22uMpVrrL6N//m33RcozuI7FoC+/SxBT31rcNsnfnCNrng6fMLHtE9J1rO7dgOESd6YUkAxGmCYkmHCTxBmsQkOAWqImjVmyh5vrsEyE1yoo8N8PCsOp93sAOuS/KIDjzsg4nq8YotXuqdN+HTZm4YH/mVh8TBHkls8UttMzfwYO8sLvwgLvgEH/aI39htW8Sfvr31xV/8xauP//iP73TSB/RI3uLRvvbGH15ge5Ob3KT7eq7fmbDJWJx8zud8zurWt751940fMqcgC5wFUH+LEx4+P2EPcOzugm/gWte61urLvuzLut+HxIZTgBOb+srx533e53W2AWNS2Dy+15ZfxGkWFTycx2PMDrsgXE4LTvTCEnDYUgmjRRK2YBSUdQKbvEsm84D8JClb+k3C8MABz6V5sHnsEfvjAOFhsi7tG7pie6j2oDuLytL2gNieXvrFB8RfeO4CYyDXmHxV+AlPeMLqdre7XZfA6VBvq50iTtWl3vZmN7vZ6j73uU+XxCE+a5ExXO1qV+va+yqu5J9FKnLb4pziLudLv/RLVw984ANXV7rSlbqFPosF2RYV7aKH7SwO3/Ed37G61a1u1T2mG9OTot9tbnObTs8d73jHTn7FWHyQr56d9hEfdBjvoeNE/46lUu8LiipfW20E95TfsQjqb/3Wb1095jGP6eoryHVV7qpYAdzWJY657YOnq6887sHd72T8XmZKApvDv+xGTr7dEyRxuGKfOmF3tQ/99KkH3CQePMie2/4tIp8/+KXaw2KTC4FgV/vH/34N/0d/9EfdV3vziAnodz7gk2tc4xqrT/zET+wegZGVeQFD9tGGLN+6+pM/+ZPuG2LuPPBP7LUQh+6G/GDRIy488I18fjHH2iRLpljy9eQ/+IM/6L7hRfdQDJFjTPT4zYxFsI6pwtx3p4IH0KWOX4xd7PiBpK9iG1dyAZBHLkz5HQuM+beP45D9h7Br/KzDLvIPYmGJk1pHVflpI5B8fdKrG7ZZWJwTdHk+m4WFDElDAhHsfZjTPvhKIjhoB7iTb1Fpk1gf5vAvGZJGrkarL/CRFNbxCHaxDz3sgQcO8Sfd/BG/zGX/PuDv6rc+uw+c4xc87MOu9o+tgQ/IqkkYDwtAjgE/SR+XWg9D9q967PvmlfHRlfhvYZzmEJtrwy9kqIPYQ5zWxaXq8k0030hLcu9DYj53HeS34wL62SPxAYnd8LCw+IHl0gtL5LQ8h+w/hF3jZx12kX/OZQb8h+hvwAAcMRUMNZRU+zCHfDKqo6qzqnz7zjn2gy//gnTdwuLfEj/60Y/u6qEuKoyurb4mmGMQpEqfHbSdwz54qMeDbg4lt9rB8brFZUj+EFr+xoxDPkPAI/ZzTntFkpmyuGxrnywqCuCh4BD7sAUeylRsah/6FH1iD+N2rN6x2Mjisqv9gQz1Fexv3GQr+vCLOvGLCw644BGM2Z8eqLrW8aenxkd04oEjTn08MqZ18vtAVgsyMlfI5JPYw8JCt4VJu/ve977dDzTXLSxPf/rTP+RdYS1a/o4VsqodA3XbxP9U7FP+if+f9wYPCQDBEKdV+XEoGRdddNHqa77ma7rv1oP6yEkwCXjPlB/xiEd059UxskkiIMmWrNzm13pg3L7ntnPYBw9Bn0cL2uCq4FDfLWYCjS0uffLHUPnbxyNJg93oItO51FugcVu3yME29vGYiy1woS/2kGD4JXbiB/USjDZTsIl9wt2PAPEwVvrEAlso2oSfehx3jf+ATkUbY0xi9IoZsVh5VDsp2sFU+7MnDNmHfG3CA9jDePkj84U+fhEb+LV+wSt3OGMgQ+njb05mUQE6EqeZP7b44XTPe96zW1jCzVig7ucllF6yGdv1obVP7AbhXDHV/kErfx32Kf9gPkWK4zmvOrAFY5logrw6NvsJHkHmXUX5FbBjAcp4ZGTxEFgmZ02cSWjazgnjMlHdstuvuu2HE34454oMj4xrDpDHHgq5dCc5JIHghQdoNzcPcsgjNzzoozuJA4f4yHl2Y5Ox+NgGeJDN7/RkUUmM4eNYPd3iSFv95gI9ZJNrjLFF/usj3Rbh2INuPJRN7aH/WAE+wQWv6BYfztviZp+9cBDXLQ99q9yhkrlbkfggmz0SH5mn+tU4dd6PM835Ph4V+ih9evtANpm2oN/UvicVJ35hqQ6yz3lxZEVtZ7L5br0Ag9bJgg68OdaHogJT4hCoCUgTtPZTl4RGfxYX2zlAZhK0fbqTsMLDlv4kEu0qd8e7QH92NVn7FpXYDY9qD6gL4q48gAy2yBUxPa1fbNlHUsMtfXBv42NbxL54kM/udLJHRZJReLDhnIsLHsaFh3HHL3QG6tUpzrNBYmoOexiX8bBH4oNfzDf2iF/oTnzEHnizif1dQYbx4MHGjvmFPtsaH4kZPLx2xsKCs+OK9GFPuUNMpW4M4VLHNaXfSceJX1iCGggc2TqzQqD74E1QxclpW/v4Vspzn/vc7sNKQSngBKZCvklUCw5JHia6CeuDSxOmbbtJMTnIUZLA6MHDfm2LF2RseOiTvrXtJoUcPNzq1qtAHIy3j4f6JFh99dMfD/1r+02K/r7dI3nVxEFX65fwSILVXsJJ0qltNy3GU/3L3llgh3jEZ3QbQxal2nbToj858QvwP31tWzxwjF/Sd674yO+Y1LFH7N62Z4MaH3THnrv6JTzIxCt68Gn9kgsSc/w5z3lO93g8sYQj2CZPeLToa9ThPYbo0j+yIufQceI/Y6ngvOpIzhcIAgsyuX0O8QM/8AOrJz3pSd0+HvpVp9sXYH7J+5Vf+ZXda8Z9h78G1BD/GlCRY7uLfUwQcsmJzBat/GoPfcizDbaxfx4VjPEIIl+/ysNE7kPLfwxJGOTb0rUOEk3eeTWlzzr7GI8kZkuerSS9DsYJbOEbWmM2rBiyD73O8QvO5GZ8Y/z1CRft9ds2PgM2jj2ctw2G+POlPoo+Cqzj36LK5xeILSqPgHyf4fzhH/7h6mlPe9rq537u5870j00jR3/HvtbsNz13vetduzrylRaZIy5iK4e+tsGQfYawi32mYBf5B7WwAIemcGQmbhxqa/L/xm/8Rve/VrzdVTuBVKFPiu/G+xHaZ3zGZ3SvwcitsyJwhoADzkAvHe5ixoIr0JZ8usjQR2Gzof70ueJroX8dn/5kkzXGH/Qj11YCCP+Mv8ptEftoH1vU9hlLxjPEH/RTYgv7thJD9e8YyM/vGCoPPCuPIPwrwoMMRR/tjGWMP4S/bcbOvxA5fTyCKr/yCPQjN+jj36JyIsvc0E9ZB208EtIvfCBjcz51MGQfbZ3Do4Jfp+YHesQn/wbh0NqzjtWLPH/zN3+z+8A+L+RUwp3M8NLn9re/ffdNUa+eAbJb+dop6uUfsvp4tKDnuLD04GwxTIKUI00sepJ8FOd9UOfK4yUveUl3C55Acl57RR3k1txrMPywLHdB2vbdEqtP8NqmTiFH/TqkPR5VjmP1fdAmV1gV6mOPKlf92C199KS/rSvS9F8H7ci31dc4lMiNjZ1L6eMPVUbamvTufpSMZwzO4x8ZZCoZS9vfuWqftM840r4mDfKHoH0SVexiq54MMRqZLRdQV6/EgTxwTl31S+QPwXn98AH75A3ZowXObM8WVUZ4RH5gf8i/ELvqFxm5u53CBYd8tqPon/hqoa23IL/pTW/qfoQJacsP6Qva8qtFws8UfFPUo3HAsyJjULIwVlljoOe4sPTgbDIMx0KuqOji6DhYgPvKoH9C9MY3vrE7n2BQMinoNNmcS8BvAvqqXnIibwh0aJ+kgEcS0rYgk7zKgw36Jl2gT+wG4aHvWL8hxH5JqhD7ruOBAy6grX7KNjwg9g0Ptlg3Ln1wCI8pvlyH2BcPuqfYFw+l+iX8t0XsGx5T7NvnlzwK2wbkZVzxy9T42DS2oZ4nQ7/oxSHxQa47de888183/TdMbaMvUFdtpn99FL8O+h7KwjJtxCcQCVBbwZEAzeRzzmcnvpPuA0b1AqFOLu0zYRNgKY6nFHISaOHkKiyTpy1pky8BKOHc135qAXJwaXX0tVefu4G0SX9o208pAV84JpfN1/FwPolDXWya80N9x0rLIzri/7aodz48oPKYWsI3nGNT+3QkNnK+Lc4p1S9JvG3bTQpbVB51rG1bRT0O1R54QF/7KQVwqH7JWNu2KdrwXWym/5T5om18DfpkH4wld5/O+SbYHe5wh+5xONS2oA3e1Y50KKcRH3nZbd0FH9z/EMRpU8GgY48CWiwtn3Pdsmby2ipxtsdkVmSPxbybyCQRbNoILEECCSIy6nYqoj+oQelcBf0mifaKW/vw3hXhobBBgr+PX2yh3vnYo7bbBtFfxxMerfzwiL/CQ6ljqX2mIv3ojD+yjd8D+vkk9nA+PDZF9CpBn76+dupxqH4xH6otd0FsCmwRe9R6iF+qPXa9YwrIS4Hqmz47tQub0rbrA/mVb/SAc44V8si/853v3H2Bx+et5Bt74Fi7yNNevCgnOX/uIv+gFxbyLSwCRN8UAeCc4gV2OFhcfNXQeYGSyaQk6HK8TYm8yKqcci7Jyzl1JmvLZdcSWeEQqFcAD7ZJ+0zYOXkofQgP3PbBI7Loae2hXh2f9PGIjDlK1QfZtjxqfeKjytm1tDyC1EPrlyV5QOVS+VW/8AcOm/AIIl+d/cQCXXR8yZd8SfeL/Bvd6Ebd57HapQ19icn0ZZ/sn/T8ua38cy699NL+GX4ZGMcVwVQQLMimYp/yBYC+ggASlILAi+5+/dd/ffXTP/3T3QsqtdE3oLdudwG9mZiQyUBf6gUpDuG6BDJ2fACHTA714Dj85hh7C7rojy8gPByHG91ssRQPMOZq//AIP3AcHkshPNjGWD8cPOKXs4WHkvigr+VBf+o3BR1B3SfL57O+BeaNx17jT5/PEOQURXvtotf5xBA4fyj5cwqq/BP9duN1aOULvhQQAPYZz9cgX/7yl6+e8YxndN9r94Mp/Wuw1f2KERP2og1AgZl9sirHJUEnHvi0CA822HR8m4BNwyM2qKAbB1ymJI4hH00BDkpk0GdfsR97bIMpNozePh41VnbhMRV0J07th3/lJInYLomWB+CyDY/0aVHHRo7PdPz/GP8bxlvQb3nLW3b62TyP1sMrXPhHHqlzSftDyp/rUOWfqoUF1OVzCzB8RVAoF198cfdtMXcw73jHO7pb36zCgmcoODfFUDKVNJR9YYwHW42Ex2zIxKzJA+hO4qhctBnaJ6fK2BQ4KBU4sEdiZlOMcQfHLXccxHsdi3b7WFQqhnjsY1EJYps2Pnb1CxhL+ltQ/K7I/3Xx+MuXe/zKnk6FHTwakj+g1vfFDT8dWv4cQ5V/6hYWQWRSKBm6oM03XPzgzmLye7/3e93/ZfBDyre85S2Xe5/SiMkmQ0C2wZiJgve+gIexs0FgfJ6V7jJhN0Ufj/iKPSqX1v76BmJkF9AvDioPPlG29Xv155AM+owjYzEOsVF5kLNrIt0UfX7Bo86ffYB+PKqv8djkM4MWkUW236j4ndrnfu7ndo+//Mtn9tcmY+cTC4+Fhe7U56K02gi0ObT8OYYq/1QtLCakOsFo2CkJHkFzxStesTu2uHh9if/Z4htj/nOeX+l6JUjuePQ10aeC3CwkSQ4J7oBMXNRrs638MWiXsZ/5sG2AR8VU+cEm9tF2SD6bv+Y1r+keT0L4h7N94DvPwj0b78MYf+fahB3+ka9NdPbBOQmmtmdf///HF0PIT/+WP+5+ze0RjOPatoJ89Ur0DMH5beInslNyLlCX4yXis2JsAQuPcBGvcsQ6aK+tuw/5xF2JuxRv1fC14vyb53bsjvXJmKObLO3jm+DQ8uc6VPmnZmExTAFRA1UwqNMOXBFd+cpX7vTUAMkiU1+wR4bJP/YKjxYC0B1R7a9OgfBwjIPjTeWve4UHGFvsYUz2M0kgSa3aQZup8oN19gkPMFbH8a++zimvfe1rV0984hO71+9UPvYVbfnSouI/flpYIrdiHX994htjJ7faR//o70MrX1t3ut/5nd+5eulLX9rFojbkRWb4e6ODfzJ185vf/EydbdpHnrHhVuuHQMY28UMP2frHLymgHhwb3zoeQWufdSA3r2iJX8gIqo0U+1Plpx+5Ys4PGS0MFfRlzOYKffnFvXjLHFVvX52SPs4dSv6cgir/VCwsmSApHJ8gcM4diMARaK4cBU8CNUHSh234591fQEcNZvV4gLZcs0li2MQ+FlgFf/3YIqDXlTZ+sYPttvYfAj3a8IF9Czv755x6PH72Z3929V3f9V3dwgLqA7wc6/dVX/VVq+/5nu/54JkPxRD/8FDs84m24Z9z1Q596JOvn8XOfxz0+V3kBjm2sHh3nd9KgDpXx/QFuImfcBjiEZCxaXyGfy7A2LZ9FOYc2c5739Y6HkGVPwXmQv5xWnjU+YiDEr84v2t80kNe1ZO5gkfeTcc3xoNjzjlWsrjsYv8pOJvlX/5ZxwEiQclICodzvOQhGGuQgETmrkSfoJWhON6kCD5XdyaKRzscRleV5Vgb/1zMHZJt22aXQg555IaHxKAOv7SxzwZph6u6OXmQ52oUB3rCw0Rl70xY5/yfDAssX8VPQRKARxjXv/71uz76TuHa2sOW/fMMPW0c04+rdrjS08qrJfz191Zsz/DHwMZeLURH7oyr78MVDxxyBx0drf5tSnTEHjU+osO4Yo+0CY9W3raFLjrwSHw4xoN+bcIDv/gFp5xfV+hIcSzmQE5ITCUOM34QgxawLB7ySHJJlRt5pxUHvbBkQUiwcX4CIcEDgsRdSoJFINVHXur0ldRSHE8tQBaZCUa37PWxhuJqVF0WOpxxCfddC5AnCTjGgz5jz+SgN/xypcoGeeQRW2xbYndJgU3U0WfsSp2weOHqMy76Y/vIyBbcsVhYoqPqHCrGk6Shj/GyR/WLLV7sgZPjcNe/lZmS/uT63+i5kosNwTYyyHRHI0bwcGVs/JUHXuGhb3wJ0bttCSc8yKQPDwti4lE7/knsOq8fW8zJg01qfMQvtvSrs03MqFfHHvpN4WE8KY4z/gr6q69jE/avcJy4Be3NWX1OKw52YeFUDraoZPK2AVAhaOriIqAkMzJ2QRYHCSM8TBK6+ngI3CRYyJWZ7baILXI1DnjQwyb2K/Bij5zX3zhcHc5hj1zxxx4SlxJ7qAdtXY36T576QNqnrTbgjsX/zlHfZ9cW7Jm7AvqSqMhuQR478Ftslb7R3wdtFQtL7lja9s7TjY+FhY+y0PcBPzz5B288kvy2RfxLdxYInCwg9LT2dIwjLs7rqx8eY/aYAuOo8RG/DPEwX8JD+8zbXXnQz7bJH+TTM+QXPJ3DSXvjUOyfRhzkwsKZAitBwdmc3hecgXrnc5XoWOIQ5JGzKfQR6Ip9SURySgAOIZPJFpIEbbcBWxhHkqjxkZ8rvT5Ue+CrXyb9tjz0M+nTn26TVemzB10+V/F/MpJoQFt99M94fLPHIyfn1I/ZN0mjLirxyxDIi1+iV/+hZBr92uJ1latcpTsG51JwV9jW4xyPfewPQR9jrzyMRdkmmeqvH7/EHuzAHnhlHC3Ut4uL/niM8R8Dv2RRgVxkreNRF5fw2GVxEZ9kZBzkRv4Q8HA+XGNXxf5pw8EtLHFogsLkM1HWJRtwviYZx4JMsJO3SYDgYJKZJPrSvy6ZB+GRSQV4kJekPBV0Z7LiRK6EMJUH/XVxob9e2U6FfpJw+JNrsuLR+iV29sz8zW9+85kkYSy2UP3qm3y+KuoKu5XVAm92TBKNnW3X9W39gg85Y4uL4uurFr76OQveZCUR6e/uzI9yY9uheNM+SZcc7ZLU+3iMwRgSpxC54TWG8KhJnZzq56mIX9KP3HqRN4bw0J5N4xfy7G+CvjjdhId2iSV+qeU04SMf/ehHXyAghkrX6DJjTSlJVH1yhgr0yeor6+QLIgHx/9u7f5dZkuqP43Pxf1hEEzFRlN1FwR+BoIkgRsaCmZEKJgoaCCKaaGQkJmZqJAYaGKqBguIGoqKI4o/ARNjkRhu5r4HP/Z6tb3dP90zP3PvMPW8ouru66tSnTp2qmp5nZh5JoBpM9QTdaGsqsZ/gUTd2YjP5tU2MdtigJRq0b9EToO7V+ktJ2aoJzgWuRXVsd/SPyWVxzkRRlxb1Uw6jnTEpL7GvTnySyZL2phKUU4dPot/mbQGr/Yh+5dTx3Y8f//jHhz/84Q9P/M9m/KKOcr7M9tGPfvTw0ksvPbEfmzWxyxfZCJTNoshO1Z2E0U7iSf1apvooKX3Rhz/+8Y/Hp5Kqj434R/673/3uw4svvnj8m8zYl3F80z7fZEzi4/QHqT+m1FWHbb4Qo87n/DEmbWUMgzzXtE+N72jDeHjxk3FRjo8dY2tN0p7y+hSfjP4YE1Lfdeq4pl2cJkbm9I9JWxI7UC9tLKW19mvClK2pdEv7d/OPvhI4OSbgvVpcy2hfcHq1LJ9dwZ4gS8CP+rVtQTdR1OFsC6h67p3jH/ZMOkEPE4jNTKRQ9dOujrpgi/5M2OSt9b++sOe/7sUf0RF/jMh3vz4haNvilU22Mvrfb7Z98YtfPH6PRX8QG8ZW++r4Pxmf//znDx/5yEeO19qtqCPfJuvTVIgO/pjjlH/0K6+K9YUt/Yx/Ycxd/+hHPzp85zvfOfZFLChPV2JW//zB3v9S9x8KPYGlbhj9E+Lf6GA/Yz2nX3vqGVN19FU98T6OyxzVP/oQe3TQrX0+zniM+tPvxHZ0JKaM79r4BPue+tiKjvhDqr5E9EcH/XWOjfEx6l+DF5RI35Z8u9V+9K/llvbf6OkHjOCQIIA4RbqELJzsCQiTNwtJ2qosbSpLAXWKTFB6YBJYABxHHa7pM7FoAR1ZbMbJtRb6LeaZ9NDO3NuE0UEnHfGHfkhr/PHf//73+G9j08+0wc/y2If/kfHCCy8cz6eY01EXjXPg08QH8qo7uqpm+vLl2/hPPyxk6Z/zfAIOa8dKX7JwspOxZ3/Efe3VTUVcWQAdz41T9aJD/zIXtDGng5/ooAfqJb7O1cEHxjU64o85HYgO/ld+alM5B+3XvmiH/eeBu9hYDFYGzFFwrZ2UpxAYHofZEyCCL5tLRdAK3rqp5DH63ElSyaI+tbkE7dKRRRT0Z5Ls4RP26KAn7elzFseQ/Czm0SEt+SOT3ytPi6y3jpLHTtqQxza7/jjuU2HxfdVhvPgji0b0X7poQD/YqX/bqYuYvOT7472fazF+7tFCU/oG1/qcb5tvQZzxrf6xPbWYync9xseli3lQn4a6udCgvaoD5k+NG37ZU4dxGf1h3o46anwg82yP+IA5lz5J2qfn3nnwG4tBykAZOIO416aC2KxBn0U9i5UkaCXn2VQEqfJ7kck3bi6ZFFk0MlnpNclNkr10xB8mLbvaSbvZbLVv0Yiu6Di1qYA9+CSYpxU2+XOqnrKeBPyzNv62eGg3OrQvL+PEb8rFf3tAl3G2udCpHYt2FjH35fmejScW1/Qpk0UufZbvfwNJ8V3urWFcTBOTacfR24Hadj+6+ePUuKyFHRqiQ5vxR40P8RJdWcyV31MHu3WT49Parmu64utxfu0FLYnh9G/LuD5E7uKJBRm0PTeVwG6CX9AJCpNEUJo0eWUuT/vKmeR7a6EjwU8PTNIsIHkFaOIoR4NyCea9YC+bBfv8oU0aTFyLeRYR5Swyyq7RkTJ+cNKrd8irE9F1fPu2t73t+D0Rbeh7Fq3oMC7gD5vKnotXYI8fYr8uYtp3pM8TizLuKRMd6Zujhf9f//rXk/eqa79PER3a4h91+SC+qJu92Nh7MQ/s5YVE/KF9KbEqPuiL3mvp0E9ajL82M18SG1Obyt46QuxuGdOHyt1sLLjGplIRdCaByQBBmSAVtLm/dhE9B3YzGauOLGKClg4T6hqbW6DDYlB1mLSZsHS4zxdbdMRveWKZm4TJ96VITyw0aE++9o3LrRcNfc0iZjGlIwsqfXk7jMbRH+rLE0c2Fm8FYq7/c7CjLTqyqMcfju4bD+N2C39oJzoSG+IE2s/9a+qom0sdF0dEB79dU0dN986D3VhMuEw6A3XtTSUkCNOeSZKFQvBawG4ROFk8MlkkaFu+dG2faMuiEH/UMXEtv/pqDWyy8Z///Ofw73//+3he+5b78ti1sVis5Vffu2+RVoYvLC65d03SVvpMgyTPhwze/OY3H/OntKSOfvuiJM7RrA6/02J8tJ/FXBvuXXMRDezXWMyYGD/X13piGmE/m4tz7UdH5rP7tyB9vXafnzbXXXmuSB2YWw+S9kzMiglisgjWW6CdqUlJg/Q0AnccEzq2EN95G8zimlftc1iY/B8NGwsyBlWHa/m3GhdER9A2TXRmY0HVqYxk8a19r2W2wNaogy0L6dZxuZSpTcx10i3Qzlx88MmtuWU8Pg0e7MaCBEgm5S0w8fMojWjwtou8PMFcE/bpyHvmNESHfG975BXqtfHKz9tweQU46kj+GtSB38zyDXRkERxtWCTe8pa3HD8R5tVm/M9GdEj8kD/or9VxCTUOgj649s17b9shOiuuJW+F5fs28ecW2KhxEF/IF7vy4+trw+/+bpT20h/5Ga9bYFzSb36IDv4QH7fS8bzwoDcWJEAERoLmWrBvMghG7Vgw6nv3JrFF1vHaOrKpOLfIeszPU5RJS4f714T99Bd0WOQl/ZdvUcn9tfhPnd4KQ8YXWRAkbfkfJj5tJb/2d3ybUP4tNhf9zKYSjXm7hwZ/uPd3FrqmdMiTfCrMfy6lN/lrUVa9xIdr/ogO1zRm078m/FD9bkzERnTQdysddbPnfzrG+HB+TdiX9P3eedAbiwG61SAJCJPApmIiZFMxWSwYJi8tgveam0vs00GTyZG/ZWSTA430mjTXIJM1i4LFgi+S6uYSvafI04knFglTPpTH337KxbfV2aZFvv7zQ3wyjss1FrFq39E1f4gLfqAH9NhYbIbZMHNUJ9iMba75V8xbyLinn2nfmDjysbb4q47f3oi76g86Ehv8wD/iV7lr6tA+fzhCu/GHJD60LYbopekaZHzrON8zb/rKV77yVc6eSpnonL02YcrWVNrLvsnJlmNeKVpg9rQvMOsksWhkokK+ADVRUjb5p+zPpVG/4PfKKhORLlqymaT/Ur12Xzplf02CPumna/ZNTv7IQq4tR/dSNr6TN9pMig9/+tOfHn7+858f6ykPxyTl+N5/W/TbWmlDn/gj/YJ7GY+MiXL0VV9MpTX+yZgbF+OjPQtW/BFfsCXfp91+97vf/b8vfqL2z9PYu971ruPfZdiXl/JTWiVllKVJe9rPIp42UkbiD2WTf8r+mOb8Iz4Tp+wql3GR4vugz8mvcTpnfykh9V3rp2M0+N6Occi4IH6I7xB/jAmxfypFP5tpg9052xKmbE2lS/1zKl1i/y7+NbEO1QHjEGWdX2qfxryaYV8ZgWnCjvYFT14VKytwM7FNnjn9c1T/sG2i0oLoyKKVPPZNkPq0YhJZiB3pCFv9rx12Ynv0R7XtHq1+W4x219ERf1Riy7fO/T7YD37wg2P+VDn4La3vfve7h3e+851Hu/LZzmIR5Mcfzj3hWGDmdFRO+Yc9ZTIu7Pnf6WxroyJWtPXb3/728I1vfOPwi1/84livLmbus8FfH/vYxw6f/exnDx/60IeO9+VLU/FDhzr6SAc7fGJcLPBjH1OOXfeUSyydG5+IP/Kkkv7E1zTFvrL6T4s6Yis6lMVo/xTxT/VHnQNitI4L+z59l/hwXf2ReRXm/D8He/Vj4xmH0W44x/45/lnLJfane/jAMFCSgZNM4ixm0rmwYwLWTUVwjotoSPAqhxqw5+pQry4aYF/g51XgSDa0LLLqZ7JfokM/2NGv+IOOKX+4jj8cXaf+qMM5Xzv+7W9/O/6qMdK3lE0b2vRHe5+wokH+1KYC9+KPjEvG9NJxUT+bSvqbt79GlFfG22A2RVqk+GbEhuy30jC3ECE6Eh9ssUtHfDOShdN99fVBMgbnEh02MsfomNvAXVcd2taHzJdzoSPxXjeVqc0edNT4UJ8f9/BHYtpRO0nPA3exscCAZXOBwRRYGdytqCfIBaj6bAtOE2EpOBLEmUw0nLuIJSjpMFnALg0myZKOpc3lHLJorNlUKvyRzUU9dub84drG4u0i1AU1ZeX5dJW/r3g6YJeOqU0l0Od+Flvoh79lnDMuUK8u5okPeqaIjzwx+bUA5Y0tPerkfrT4A342ljn/KstGxkU5trzdk/ibQn7Gjg52srno11bUV4+OzDc65jaVIJ8GSbnouGRzGeM8OtbER9VhXOnQn3NQL7FV+z/ni3vjbjYWGDSBkQWpDq60FvUElSBXj02T9dRijmiorxgz6QT7Wh3K0WGSZINkb82mEsZJlUln0myhbo6gIwvCGh3RTUfGJK9swUYWuLqxuI6/lNGfLJz+BuGxm92M9xKpn8VD2/xxzuYSfziqp/2lJ4RKNpbaN36R1E2eJxafjMsCOepzTTf9iQ82Ti3mFeXpju8T8xmXtSjPHzSww278fEqH+8YwutXP5pK+r4Ufar3Ev+Mp6Ihu/tCX2HO+Fvq1P8YU+2vG5F64q40FBk+ASshAJ+hPoVwmmHN2sjivDQzlalBrN3ZpWaNDYNYnBHa2bCqIL0wW+qF9OtZuLspnsaEj9mhhf41f44/oV57dujhDO/lXxJCfvmrXhHe0sXhiySIgrYEt7ccftNNR/byE+3Xxcs3OmsU89yzk+W+XbNDgXvoW+MJHjn0yTDtJcBz9p1/8y89TOpTRVkW5xKn2ldE3ae3mEh2JjyzOp/xRUY7++JEd/U/crYEflHdE+jXnjymUq/r5K3ZH382hXHwBNvl2rYZ74e42FmQwM1ENtGTQM+BTKJNFV1lBKci2LOaV1M+iPi5Kc7gfHWDHosHOVh3KZ7I4ajc6HE/pqJOVP0d/rJ000eEVuyeNTF7tuyd568e3zi1UrqMtY+kIvxL83ve+97hIp+5a2NC2t9G8pcav6cMpOylDi3r6Ia0Zl9xX1xc7/XCmcz4Wd+4bZyn9tMHaXNyLRuQ49mUpTmNjRL567Gibz/M2EF1LjPGcONOvOR1zVB3qR8eazSVxqnx02FTWjMuI8ulH/KGfWRPmUI6O+AL8XcfteeIuPhU2h4DwDeZsKOpLU4NNS8rkaPGQ5gJjrX7BZgLSkbfUErij7ZQVyDmnYWnRCKf8k4UgGwV7+qBeta3/2jZZM1GUMVnz0+9w3/dNfPKFnRH99VZNhS0pi4CUBeBPf/rT4dvf/vbh73//+5M2HN3PuOD973//4Wtf+9rRh5421sKGzQhs0cwXztNOFhPX0Z92XdMNMTTqqvanUI59fz/51re+dfj1r3991M9OFiFE18svv3z45Cc/eXjf+953zHef/VF3NscRen3KThnx47+p+sDDVFm22KXFmCuT+NevSsqybX6xr1+nNhX3Ts1ftsVV5oAXGTTN6ahxSrM+0qG/p9CHufkb23Q41yfx7//+TPlPWfZSVhnHLf9bZ41/Kkv6p7il/bveWNjPomfgddWAZyJnApiAJqpk4U8QnVrMt+jXPvsmCGiomwtt7GVCBfWUXdIR1viH7UxE7Zm4+qruqMMxPuMLixr7yvmY5iuvvHL4yU9+cvjzn/98tDOGUmxNwUYS+8bAgvvPf/7zyROLfP7JWEWPyf2Od7zjaGfO/hRs6GdI+zkH+zWx7x4NcB4dI+5V+1Mow/c2T08jzjH2VayIj7e+9a3HzUA599iPFj6b0hGqfk81L7300uHjH//48ffV2HbfvcCucRYfqZdFOv2KTRuiWLLxupdYXkK5NfNXGzRoQ5zRMW4uyvBJtIJOL3yUXYN6S/O3tsHX2va9Iu1kDMBONvqMHw3qPPT181z7d7+xCMwEiGvnBl6QOrrOpgL21z5Gb9GfdgVedJiI2nIUhCYSne7pKw2C+pSOsNY/+mrjYNvCQFN0aN/CnkUri00mtbdc1PM9E08Xf/3rX59o3or2pExSdrKhydN/bUJeEn8kfw/i6+jQBh/xgTwa05683LsEbfBZ9Zu2EpdQRju5rgu8exb2tX5nw+L/4osvHr785S8fPvCBDxz7pX7ssy1+jG9iwD2aMv6JD0eJBvfYOkXsr4Eu88HbgdFhjKqOxArkeeHjRcda1D01f+nQVuah+I8OsOF+/Jh4cVxjv7LFP3iW7b/pq69zPJuAs+qr51NkYqzlVvYNuIQEKac51k1FQCRwUn6JLfrZo1/wqyfRIjkXuDQ5p8MiQEe0rWGtf5QTBNrTbvS41p7zlMsr1vjD9c9+9rPD9773vcNvfvObY53ajy0p/R2hjQ+yWCln8jqG0dYlKX0I8nKkhR+cZyGN7j1SjTPX0F7ixZE2vnCujDE6R4fyngod/Y3Hz/gjGrSXhTvxoW1HOCZOkXmibGwsEftrYE95fa2xBdfy6VCOb9jNC6C1sHdq/kZH4kCfkXihIbqUcV85rLFf2eIfPMv2/+957s7R6Qw8OK0GZ5ySyXINMgnqE5H2DZ5FKwsIHXUx35voyNsX0ZFXXuCrbG7RkXK/+tWvjj9LojxSJ7hem+piDe1K2nI/unI/jHYuTdGRPokHvnGs9+kY656TQj3H6I+qA2I2cTvaHFPFtfjytPHLX/7y8Je//OWYn7GtyDPueYsUNNUXP/UpdsrGHkSHOMw46HvGyX3t05I4vgZpRxsS+IEGPnVf/jXXjofGo9cH6Y0RWMhAroVTOXctT8O+QBAQAsO5Mpm8AlRayyX61auP8qAjE1bZW/jHQmPB0I76cJzb3Oj9zGc+c/j+979/vI7OlHN+DlMT0/jQVX10bbJ4ZCHHs6JD+4ndtYzjZ3z4+etf//pxHOt952P8iA1xmnFVxiKbxZ6etUzZX0Kb/O6YjS0LefohRmPzXPtrYR/R5FrKplPHCufYv7b+W9l/9Oqrr86uBBx2L+/5hamNRbk45Baf4tCmc4NWB05gmrDsJmCv6R/teWsuG0tIfnQgmr3n/YUvfOHwwx/+8HitrHuhnm+BnWyowfhYUBxvRWKBnqCfWxf0S5nSQYO0xR/Vn86Njxj75je/efjc5z53zJfn3hg/GXMbS9pUziJqrOi71fzV7/zdJ9DhqSo+usT+Gtj346HmSnwmsSM5r5xj/9r6b2X/jVvsnSModV6CgJTkCxbHcxfGtWSyas8xwUmHe8m/hQ79zdsb2o8OJD86otOC4lNF+U+IKR9SbksSwF55RkPsyNeeYy1/raQdi1Xaiw55FlHHWv5aSfvam9OxxR+hXvvVAl/SDLVcSHzY2FHHRlxs3eDOhQ7tiUfn0eAo/5YvPLKx01H9of1baXgoPDcbSyaKJCAERl1E5Cd4pWsQDdk8QIfFM4Eq/9qbS/pYJyU/WNyzwMt3PzqRsh/+8IcPH/zgB4/n7meCnUNdRMGelLZoiaZrEh1iAtqvi2fuX1tH+ht/aF88GC9+pi8b3FbY8LTyiU984vgdmeSNyNOu+VD7X8dBbNxicxELidP0Py82wDfuT/VjL9jOphId/JB4iL9ovaaOh8SbvvSlL81+KozTDOJaONUgr+VW9jPwknOBkcUsgZHkcVueMqcm71b9AtPHexOcmazjBgda5FkITukI6qzxjwlgQiKLGH/oiz6F+ET78ZPFxmf5X3jhhaMd3zuRdw7aTd8RXY7xUU3aj3/2ZEoHPzrW/kdH4mhvtFEX7+jQnpT8HLfq8I3/T3/604dPfepTh7e//e1P+hTYSnuO6Tvf1Dh1H47RW+3MEftrSZ/5AdoXo2J11K2svMT1Gtg+NX/Z1r6568h+4kV7SSHnjmvsV7b651m2f/d/Y/ETIgmOBJ98KbgnWSD9jYVDBY5jDZqRLfq1bdPyHi3UzURNGzQkgGEC5Zu+SzqCeqf8k75qR9s+Xk1HJgpozQLPd8rRgtj3HQNf8vv9739/+Mc//vHkD7xVp3MLz4hyEpRJAjtIXsrWFH9IU/bnULdOLNc5xp5U80wsR9cpzy9jebi/ZeKqS39sS3yde5KxCK7jH/nK8wWqjiDPuCnjC5K+VPqe97zn+FHjjGdFv8RnjcHEaY1B98WHa/HvftpZgs218zex528oSAxGh3t0SJnX4J9TOgKbp+Zv2tAeTeZwnSvIWEjyJRrW2K9s8Q+eZft3vbEYXBtLBj552h1RxsaShT/lpBpElbX62bbgSHXjmrKtj0nKWRDqhFrilH/cN0kcwa6fwBgnCpSxeMR32pdsKLWscn7ji+8ysYL++SWDKZSNbXUk1+wH96QKDamzZH8KWsefmIF2K9ET+9GhnHxMjcec/Tmq/tjPeezXNoxHPlxS7406Avs+hMGWdnwrfQnx6Sda9INN9cRIbQvRKrHvnrZObS7snpq/bCsnwfxiO/NlhE+yuUg2FuWWdATl5uZvdGRTCXlHY0TbKRd/0fyQ189L7N/txmKQ2Rf4QUAsBZwgNbESJOpL6tSJFU7pZ0Nil3bJwnNqo0hZWBAEqLRUB0v+0ae6qbDj1bh/PDWHstlcoC95Rai+6yU9c/5RL9T6S/orqX/JxGVDWoqHJf0S7efoD7G/Rgvm7BufqbpT+qN7hA1jm/94qG5ibg51zC+62KxxOsUp/9CWOHWkwQsrNp1PoQ672WBsvNEx1c/KlH8QHWwi4yzNvXBQZ/Qt+94RWMu58bOWW9pfjuQHTgZaEuynJq77CWJ1BBdnJWi2ok4W5miwqcT+HO5Hhzp1sm3VEe3ph3bZjY4l3M9763TEDh1gS57rNUkfLF6eSiTn/LPGhnJeLarn6AkpPtma1FM/9uhYays6JIuM47k6+FLbsbPFlnLKR7+njYzNVOLjjH8l+RmHzIGM+RJiaG6+nIN66qPqWIpT7SpT5xUd8eNWaEh9sEdLXgzOoZxUYetcXzx07nJjqYMpGKYGfY4a0OrUYN8SJLUeOwnOU4t5qOWrji0agkmSeuzpW/xyivhDPefsZAFB+nYqIROdLX3zxOS4xgYNNrnqk9ibKj+XoA/qZ5zZTf9OJeV9oIIO54iOtb5QDuo5Z4sG/tiiI5u+OvqUfk2Vl592R7KIQtloWEN0pLw+1Xhbi3qJbzppSFpD/FB1JK1F2zREf3zG9pzvKikfcr7VF/fAuuh5oGSgM7HWomyC2rnASLCtCRLBnCcV5bWfwN+CtutCypbAj91TKFMnOR1JW/yhfCZtdEhrJ61yddFgR78c16JexqTqjz/WEM1Vh3Gp9k4xVY89OtaS8o5gJ2O8VgfUqTri57UonzhF9e8Wqj8QHenfKZSX6rgkbSFzTL34g82tOpD2xemWMcFYfmv9e+CuNpa1AbSGBHgmPBKoS9TgVC+TVTqH2Mhk0f5aHVlkal/O1VHrR0e0LBEdykaHBcD5OaifFB3sL+mI1vpKVD/qYriV9KP6g/1T/lAuZeIPNtKfraiXBPbXLOoZF1R/nKMBY/0tOiTloqP2Zyu1PnvV/hI1htS91B+ovnjeePT48ePZXnOMHXstHOgV0FquYT+DyPYe9uXVCcJmgtax2ldmbqLk/rn+mdLBds4R+47RgWiNjlDtr4Fdf5uo/UP8keuKe9HhnOapcoj+U6R/iA/SP2kkei38WUyXdAT3T/mH7dh0LkXDaD+6Jfckb39NaZ5izj/yawLb+uhtqpFokBC/qXNufIbYjY5qW16173pqbkm53hqfsR8No23HEPvRLFUNtSyq/TWob3PK+SnOsX+uf9Zwif27/H8susQpe9lnL4EHtpV1HfspU1EukwSX+idtZMhi3xHs5+PVVWvKpFw41z+xHz/nHnLtniCr9qcma2Wrf2wU+RRTtNQ25MVX9Jrk7J/SEdb4p9qn36f42B/biL8c5Uuu8/HhNSz5J31lPzj3x/0R+VVH0lb/z/mH7ehB/FHtR2vKaH/02aXzN/1MG+5rI7AvfqK1+qLqCHv5Z457sr/updIDYyooLoG9TI7Y5vQEbAKzkjp7wmYmR+1j1ZGJlPanyl9KtRtq/53nWrvRsqcGVLtJY9twHa1764itqkN7dUGLJillrqGDzfRzSQeq3j11ILZrH+kIVUfar2X3gs0a/zSM/kib0ZHUXMZdbizXQLAJ0ASplEANY5lrkTakTJJMmGiLhmvpYNekTRvaHlPKJV2D0X6O2s/Y5H707k1tOwmJj9EX14wPdvUTc+0kz/FaOtK2Y4gvxvi4tj+mtKR9yE+6lo7njd5YNpDgrAvqXCBeO0Bjvx7H81xfk3FCTi0Y19Yx10by5+7vSdqovqjt5t61NrcQ2zVGURdSVJ3XorY/tuWahlvowOiPkVtoeJ7ojeVMxgnhPHm3CtK0M/XqC7fQUdtI35NuifbmFqlbaknfq5bk5fra1HafBcZ4vKUvcKqtZ8VP90RvLBeQCfK0AzOLWNVxS03aqhpqehrUtp+Ghqm+Pw0dqE+QNd2atFmPt9aRNmvbt9bwvNAby048rQDtiTHP0/aN9pOeFk+7/Up0PGt6mv3pjaVpmqbZld5YmqZpml3pjaVpmqbZld5YmqZpml159Nprr73xA+4Fnyi5l9+uWUPbX6btL9P2l2n7y9yT/bv/n/dtf562v0zbX6btL/M82++3wpqmaZpd6Y2laZqm2ZXeWJqmaZpd6Y2laZqm2ZXeWJqmaZpd6Y2laZqm2ZXeWJqmaZpd6Y2laZqm2ZXeWJqmaZpd6Y2laZqm2ZVHjx8/nv1Jl/5tnGXa/jJtf5m2v0zbX+ZZtv/o9YvZjaV/G2eZtr9M21+m7S/T9pd5lu33W2FN0zTNrvTG0jRN0+xKbyxN0zTNrvTG0jRN0+xKbyxN0zTNrvTG0jRN0+xKbyxN0zTNrvTG0jRN0+xKbyxN0zTNrvTG0jRN0+zKo9dee232J13u6bdr1tD2l2n7y7T9Zdr+Mvdk/9Grr746u7H0b+Ms0/aXafvLtP1l2v4yz7L9fiusaZqm2ZXeWJqmaZpd6Y2laZqm2ZXeWJqmaZpd6Y2laZqm2ZXeWJqmaZpd6Y2laZqm2ZXeWJqmaZpd6Y2laZqm2ZXeWJqmaZpdefT48ePZn3Tp38ZZpu0v0/aXafvLtP1lnmX7j16/mN1Y+rdxlmn7y7T9Zdr+Mm1/mWfZfr8V1jRN0+xKbyxN0zTNrvTG0jRN0+xKbyxN0zTNrvTG0jRN0+xKbyxN0zTNrvTG0jRN0+xKbyxN0zTNjhwO/wMnwCLJzBDFfAAAAABJRU5ErkJggg==;fontFamily=Times New Roman;fontSize=11;" parent="1" vertex="1">
          <mxGeometry x="719.48" y="46.260000000000005" width="51.37" height="51.25" as="geometry" />
        </mxCell>
        <mxCell id="QQM3joWRBrfqUw3WO8kn-109" value="&lt;div style=&quot;font-size: 11px;&quot;&gt;Front end Server&lt;/div&gt;" style="text;html=1;align=center;verticalAlign=middle;whiteSpace=wrap;rounded=0;fontFamily=Times New Roman;fontSize=11;" parent="1" vertex="1">
          <mxGeometry x="715.16" y="13.129999999999999" width="60" height="30" as="geometry" />
        </mxCell>
        <mxCell id="QQM3joWRBrfqUw3WO8kn-114" style="edgeStyle=orthogonalEdgeStyle;rounded=0;orthogonalLoop=1;jettySize=auto;html=1;exitX=0.5;exitY=1;exitDx=0;exitDy=0;entryX=0.5;entryY=0;entryDx=0;entryDy=0;fontFamily=Times New Roman;fontSize=11;" parent="1" source="QQM3joWRBrfqUw3WO8kn-113" target="QQM3joWRBrfqUw3WO8kn-115" edge="1">
          <mxGeometry relative="1" as="geometry">
            <mxPoint x="745.5700000000003" y="228.88" as="targetPoint" />
          </mxGeometry>
        </mxCell>
        <mxCell id="QQM3joWRBrfqUw3WO8kn-113" value="Import all modules necessary." style="rounded=0;whiteSpace=wrap;html=1;fontFamily=Times New Roman;fontSize=11;" parent="1" vertex="1">
          <mxGeometry x="685.7400000000001" y="167.63" width="120" height="40" as="geometry" />
        </mxCell>
        <mxCell id="QQM3joWRBrfqUw3WO8kn-126" style="edgeStyle=orthogonalEdgeStyle;rounded=0;orthogonalLoop=1;jettySize=auto;html=1;exitX=0.5;exitY=1;exitDx=0;exitDy=0;entryX=0.5;entryY=0;entryDx=0;entryDy=0;fontFamily=Times New Roman;fontSize=11;" parent="1" source="QQM3joWRBrfqUw3WO8kn-115" target="QQM3joWRBrfqUw3WO8kn-125" edge="1">
          <mxGeometry relative="1" as="geometry" />
        </mxCell>
        <mxCell id="QQM3joWRBrfqUw3WO8kn-115" value="Check the current endpoint." style="rounded=0;whiteSpace=wrap;html=1;fontFamily=Times New Roman;fontSize=11;" parent="1" vertex="1">
          <mxGeometry x="685.57" y="237.88" width="120" height="41" as="geometry" />
        </mxCell>
        <mxCell id="QQM3joWRBrfqUw3WO8kn-122" style="edgeStyle=orthogonalEdgeStyle;rounded=0;orthogonalLoop=1;jettySize=auto;html=1;exitX=0.5;exitY=1;exitDx=0;exitDy=0;entryX=0.5;entryY=0;entryDx=0;entryDy=0;fontFamily=Times New Roman;fontSize=11;" parent="1" target="QQM3joWRBrfqUw3WO8kn-119" edge="1">
          <mxGeometry relative="1" as="geometry">
            <mxPoint x="743.2399999999999" y="349.88" as="sourcePoint" />
          </mxGeometry>
        </mxCell>
        <mxCell id="QQM3joWRBrfqUw3WO8kn-124" style="edgeStyle=orthogonalEdgeStyle;rounded=0;orthogonalLoop=1;jettySize=auto;html=1;exitX=0;exitY=0.5;exitDx=0;exitDy=0;entryX=0.5;entryY=0;entryDx=0;entryDy=0;fontFamily=Times New Roman;fontSize=11;" parent="1" source="QQM3joWRBrfqUw3WO8kn-119" target="QQM3joWRBrfqUw3WO8kn-120" edge="1">
          <mxGeometry relative="1" as="geometry">
            <mxPoint x="688.24" y="414.9234782608696" as="targetPoint" />
            <Array as="points">
              <mxPoint x="691" y="415" />
            </Array>
          </mxGeometry>
        </mxCell>
        <mxCell id="QQM3joWRBrfqUw3WO8kn-141" style="edgeStyle=orthogonalEdgeStyle;rounded=0;orthogonalLoop=1;jettySize=auto;html=1;entryX=0.5;entryY=0;entryDx=0;entryDy=0;fontFamily=Times New Roman;" parent="1" source="QQM3joWRBrfqUw3WO8kn-119" target="QQM3joWRBrfqUw3WO8kn-121" edge="1">
          <mxGeometry relative="1" as="geometry">
            <Array as="points">
              <mxPoint x="790" y="415" />
            </Array>
          </mxGeometry>
        </mxCell>
        <mxCell id="QQM3joWRBrfqUw3WO8kn-119" value="Data Received?" style="rhombus;whiteSpace=wrap;html=1;fontFamily=Times New Roman;fontSize=11;" parent="1" vertex="1">
          <mxGeometry x="703.41" y="379.88" width="80" height="70" as="geometry" />
        </mxCell>
        <mxCell id="QQM3joWRBrfqUw3WO8kn-120" value="Display place holder data&lt;br style=&quot;font-size: 11px;&quot;&gt;on Dashboard." style="rounded=0;whiteSpace=wrap;html=1;fontFamily=Times New Roman;fontSize=11;" parent="1" vertex="1">
          <mxGeometry x="650" y="459.88" width="81.76" height="43.25" as="geometry" />
        </mxCell>
        <mxCell id="QQM3joWRBrfqUw3WO8kn-133" style="edgeStyle=orthogonalEdgeStyle;rounded=0;orthogonalLoop=1;jettySize=auto;html=1;entryX=1;entryY=0.605;entryDx=0;entryDy=0;entryPerimeter=0;fontFamily=Times New Roman;fontSize=11;" parent="1" source="QQM3joWRBrfqUw3WO8kn-121" target="QQM3joWRBrfqUw3WO8kn-115" edge="1">
          <mxGeometry relative="1" as="geometry">
            <mxPoint x="840" y="263.13" as="targetPoint" />
            <Array as="points">
              <mxPoint x="792" y="573.13" />
              <mxPoint x="840" y="573.13" />
              <mxPoint x="840" y="263.13" />
            </Array>
          </mxGeometry>
        </mxCell>
        <mxCell id="QQM3joWRBrfqUw3WO8kn-121" value="Display data on the Dashboard." style="rounded=0;whiteSpace=wrap;html=1;fontFamily=Times New Roman;fontSize=11;" parent="1" vertex="1">
          <mxGeometry x="750" y="459.88" width="80" height="43.25" as="geometry" />
        </mxCell>
        <mxCell id="QQM3joWRBrfqUw3WO8kn-125" value="Display page correlated with the current endpoint." style="rounded=0;whiteSpace=wrap;html=1;fontFamily=Times New Roman;fontSize=11;" parent="1" vertex="1">
          <mxGeometry x="685.57" y="298.88" width="120" height="51" as="geometry" />
        </mxCell>
        <mxCell id="FntLc02cGcFD5Jxq0H_k-1" style="edgeStyle=orthogonalEdgeStyle;rounded=0;orthogonalLoop=1;jettySize=auto;html=1;exitX=0.5;exitY=1;exitDx=0;exitDy=0;entryX=0.5;entryY=0;entryDx=0;entryDy=0;" edge="1" parent="1" source="QQM3joWRBrfqUw3WO8kn-127" target="QQM3joWRBrfqUw3WO8kn-113">
          <mxGeometry relative="1" as="geometry" />
        </mxCell>
        <mxCell id="QQM3joWRBrfqUw3WO8kn-127" value="Receive the data." style="rounded=0;whiteSpace=wrap;html=1;fontFamily=Times New Roman;fontSize=11;" parent="1" vertex="1">
          <mxGeometry x="685" y="111.88" width="120" height="41" as="geometry" />
        </mxCell>
        <mxCell id="QQM3joWRBrfqUw3WO8kn-130" style="edgeStyle=orthogonalEdgeStyle;rounded=0;orthogonalLoop=1;jettySize=auto;html=1;entryX=0.5;entryY=0;entryDx=0;entryDy=0;fontFamily=Times New Roman;fontSize=11;" parent="1" source="QQM3joWRBrfqUw3WO8kn-129" target="QQM3joWRBrfqUw3WO8kn-99" edge="1">
          <mxGeometry relative="1" as="geometry" />
        </mxCell>
        <mxCell id="QQM3joWRBrfqUw3WO8kn-129" value="Receive the data." style="rounded=0;whiteSpace=wrap;html=1;fontFamily=Times New Roman;fontSize=11;" parent="1" vertex="1">
          <mxGeometry x="339.32" y="550" width="120" height="40" as="geometry" />
        </mxCell>
        <mxCell id="QQM3joWRBrfqUw3WO8kn-131" style="edgeStyle=orthogonalEdgeStyle;rounded=0;orthogonalLoop=1;jettySize=auto;html=1;entryX=0.55;entryY=0.023;entryDx=0;entryDy=0;entryPerimeter=0;fontFamily=Times New Roman;fontSize=11;" parent="1" source="QQM3joWRBrfqUw3WO8kn-99" target="QQM3joWRBrfqUw3WO8kn-104" edge="1">
          <mxGeometry relative="1" as="geometry" />
        </mxCell>
        <mxCell id="QQM3joWRBrfqUw3WO8kn-139" style="edgeStyle=orthogonalEdgeStyle;rounded=0;orthogonalLoop=1;jettySize=auto;html=1;exitX=0.5;exitY=1;exitDx=0;exitDy=0;entryX=0.5;entryY=0;entryDx=0;entryDy=0;fontFamily=Times New Roman;" parent="1" source="QQM3joWRBrfqUw3WO8kn-136" target="QQM3joWRBrfqUw3WO8kn-4" edge="1">
          <mxGeometry relative="1" as="geometry" />
        </mxCell>
        <mxCell id="QQM3joWRBrfqUw3WO8kn-136" value="Loop" style="rhombus;whiteSpace=wrap;html=1;fontFamily=Times New Roman;fontSize=11;" parent="1" vertex="1">
          <mxGeometry x="81.5" y="71.88" width="47" height="36.87" as="geometry" />
        </mxCell>
      </root>
    </mxGraphModel>
  </diagram>
</mxfile>
